<svg width="75" height="75" viewBox="0 0 75 75" fill="none" xmlns="http://www.w3.org/2000/svg">
<circle cx="37.5" cy="37.5" r="37.5" fill="#177A4E"/>
<path d="M32.5196 60.2652C32.1608 60.033 32.0542 59.7053 32.0597 59.282C32.0797 57.7802 32.0664 56.2771 32.0687 54.7753C32.0697 53.7666 32.4752 53.2856 33.5206 53.09C33.445 52.9423 33.3806 52.8012 33.3039 52.6679C31.6054 49.7364 29.9047 46.807 28.2062 43.8765C27.6963 42.9978 27.2753 42.0846 27.1064 41.0716C26.9153 39.9307 27.3285 38.9275 28.2117 38.4055C29.1426 37.8556 30.1268 37.9467 31.0666 38.6998C31.5599 39.0953 32.0242 39.5263 32.4652 39.9096C32.4652 39.8729 32.4641 39.703 32.4652 39.533C32.4819 36.0526 32.493 32.5723 32.5163 29.0919C32.5241 28.0177 33.2395 27.0901 34.2459 26.8002C35.258 26.508 36.3566 26.8646 36.8976 27.7678C37.1453 28.181 37.2942 28.7031 37.3231 29.1864C37.3853 30.2372 37.3419 31.2948 37.3419 32.3923C38.214 32.0812 39.0305 32.1068 39.7726 32.6556C40.4924 33.1888 40.8279 33.9209 40.8123 34.8695C41.5855 34.6074 42.3164 34.6007 43.0163 34.9984C43.7072 35.3928 44.085 36.0048 44.2571 36.7936C44.5393 36.7558 44.8115 36.7003 45.0858 36.6869C46.591 36.6103 47.6842 37.6323 47.7108 39.1353C47.7353 40.5628 47.7142 41.9924 47.7875 43.4177C47.8941 45.4772 47.5042 47.4712 47.1232 49.4719C46.8899 50.6961 46.6677 51.9226 46.4355 53.1756C47.2465 53.5211 47.4497 54.172 47.4309 54.9874C47.3987 56.3993 47.4076 57.8135 47.4309 59.2265C47.4376 59.662 47.3354 60.0074 46.981 60.2663C46.8021 60.2663 46.6244 60.2663 46.4455 60.2663C46.0878 60.0341 45.979 59.7075 45.9856 59.2843C46.0056 57.8735 45.9934 56.4627 45.9934 55.0519C45.9934 54.8952 45.9934 54.7375 45.9934 54.5786C41.7954 54.5786 37.6585 54.5786 33.4839 54.5786C33.4839 54.763 33.4839 54.9241 33.4839 55.0841C33.4872 56.4649 33.4783 57.8468 33.5039 59.2276C33.5117 59.662 33.4095 60.0074 33.0562 60.2663C32.8763 60.2652 32.6985 60.2652 32.5196 60.2652ZM44.9947 53.1045C45.2714 51.6037 45.5624 50.1196 45.8157 48.6288C46.0167 47.4446 46.28 46.256 46.3222 45.0629C46.3911 43.0878 46.3067 41.1082 46.28 39.1297C46.2712 38.4821 45.8857 38.1078 45.248 38.1011C44.6404 38.0944 44.2971 38.4543 44.2882 39.1297C44.2749 40.2306 44.2727 41.3315 44.2627 42.4312C44.2616 42.5945 44.2638 42.7623 44.226 42.9189C44.136 43.2966 43.8839 43.5132 43.4928 43.5077C43.0896 43.5021 42.8752 43.2511 42.8108 42.8701C42.7885 42.7401 42.8008 42.6034 42.8019 42.469C42.8108 40.7739 42.823 39.0776 42.8263 37.3823C42.8263 37.1624 42.8163 36.9291 42.7475 36.7247C42.603 36.2981 42.1109 36.0415 41.6699 36.1215C41.1567 36.2148 40.8301 36.6036 40.8279 37.1691C40.8212 38.9242 40.8256 40.6794 40.8245 42.4346C40.8245 42.5679 40.8323 42.7034 40.819 42.8356C40.7745 43.2633 40.4091 43.5932 40.0125 43.5755C39.6337 43.5577 39.3759 43.2689 39.3471 42.8211C39.3382 42.6879 39.3448 42.5534 39.3459 42.4202C39.3571 39.8762 39.3715 37.3334 39.3793 34.7896C39.3815 34.1131 38.9783 33.6398 38.4095 33.6176C37.8274 33.5954 37.3897 34.0775 37.3664 34.7684C37.3619 34.8873 37.3642 35.0062 37.3642 35.1251C37.3575 37.5945 37.3508 40.0629 37.3431 42.5323C37.3431 42.6656 37.3531 42.8023 37.3342 42.9334C37.2808 43.3066 36.9676 43.5743 36.5955 43.5777C36.2144 43.581 35.9267 43.3289 35.8767 42.9289C35.8567 42.7679 35.8656 42.6023 35.8656 42.439C35.8812 38.0955 35.8978 33.7531 35.9134 29.4096C35.9134 29.2763 35.9222 29.1408 35.9067 29.0086C35.849 28.5043 35.3946 28.1155 34.8925 28.1321C34.4048 28.1488 33.9916 28.5398 33.9482 29.0319C33.9349 29.1797 33.9427 29.3296 33.9416 29.4774C33.9216 33.8797 33.8982 38.2821 33.8838 42.6856C33.8827 43.1022 33.7705 43.4399 33.3384 43.541C32.9107 43.641 32.6385 43.3933 32.4485 43.0333C32.2753 42.7045 32.1097 42.3712 31.9198 42.0535C31.4099 41.1982 30.9122 40.3284 30.0769 39.733C29.7292 39.4852 29.3592 39.3853 28.9538 39.6219C28.5639 39.8496 28.4105 40.224 28.5194 40.6117C28.7382 41.3904 28.9327 42.2046 29.3237 42.9C31.1889 46.2149 33.1195 49.4931 35.0158 52.7901C35.1602 53.0401 35.3102 53.1356 35.6045 53.1345C38.5939 53.1223 41.5832 53.1267 44.5737 53.1256C44.7037 53.1234 44.8359 53.1123 44.9947 53.1045Z" fill="white"/>
<path d="M40.2857 14.5636C41.0899 14.808 41.9442 14.9491 42.6896 15.3123C47.2141 17.5185 48.074 23.4028 44.4037 26.9154C43.0073 28.2518 41.5742 29.5504 40.1679 30.8779C39.9879 31.0467 39.8435 31.0756 39.6202 30.9867C39.3614 30.8845 39.0837 30.8312 38.806 30.7545C38.6849 30.4024 38.8149 30.158 39.0859 29.9103C40.5334 28.5839 41.9786 27.2553 43.3972 25.8978C45.0379 24.3282 45.6323 22.3997 45.0558 20.2057C44.4803 18.0173 42.9973 16.6632 40.8045 16.1499C38.916 15.7078 37.2086 16.1677 35.72 17.4008C34.969 18.0229 34.8568 18.0406 34.1437 17.4141C31.8075 15.3645 28.1316 15.5601 26.0476 17.8429C23.9536 20.138 24.1069 23.6861 26.4142 25.8778C27.805 27.1998 29.2114 28.5051 30.6311 29.7947C30.9543 30.088 31.1299 30.3757 31.0865 30.8223C31.0476 31.2278 31.0788 31.641 31.0788 32.0854C30.9821 32.0443 30.9365 32.0376 30.9088 32.0121C28.9759 30.2047 26.9641 28.4717 25.1334 26.5644C23.136 24.4826 22.6139 21.9276 23.5982 19.2082C24.5624 16.5443 26.5886 15.0802 29.3691 14.6358C29.4391 14.6247 29.5058 14.588 29.5735 14.5636C30.079 14.5636 30.5855 14.5636 31.091 14.5636C31.6353 14.7025 32.2063 14.7802 32.7195 14.9935C33.4927 15.3146 34.227 15.7311 34.9468 16.0911C35.5389 15.7689 36.1288 15.3834 36.7686 15.119C37.3785 14.868 38.0406 14.7436 38.6793 14.5625C39.2137 14.5636 39.7502 14.5636 40.2857 14.5636Z" fill="white"/>
<path d="M40.6405 20.0892C40.0789 20.2475 39.4969 20.3568 38.9608 20.5785C38.3983 20.811 37.8807 21.1498 37.3592 21.433C36.7264 21.1156 36.0809 20.7504 35.4012 20.4681C34.95 20.2806 34.4481 20.2123 33.9695 20.0902C36.1942 20.0892 38.4178 20.0892 40.6405 20.0892ZM22.4344 25.1163C22.6821 25.5718 22.901 25.9739 23.0909 26.3238C22.6521 26.6071 22.2177 26.876 21.7957 27.1625C21.4024 27.428 21.0836 27.3169 20.7548 27.0326C19.7738 26.1839 18.4275 26.1161 17.4255 26.847C16.1013 27.8124 15.9724 29.6764 17.1844 30.8551C18.3031 31.9437 19.4584 32.9935 20.5981 34.0599C20.837 34.2832 21.0769 34.5043 21.3757 34.782C22.9698 33.0557 24.9749 31.7482 26.3513 29.7264C26.6568 30.0119 27.0078 30.3407 27.4267 30.7318C27.09 31.1517 26.809 31.5927 26.4413 31.9449C25.026 33.3035 23.5842 34.6354 22.1489 35.974C21.6123 36.475 21.108 36.4839 20.5759 35.9906C19.1162 34.6354 17.6521 33.2835 16.2124 31.907C14.6672 30.4296 14.4928 28.1479 15.7658 26.4838C17.0189 24.8464 19.2606 24.4265 21.0802 25.5051C21.2946 25.6329 21.4357 25.6229 21.6379 25.4985C21.8834 25.3452 22.1611 25.2441 22.4344 25.1163ZM46.7452 26.3344C46.9363 25.9789 47.154 25.5768 47.4006 25.118C47.6506 25.2291 47.9216 25.3091 48.1471 25.459C48.4048 25.6301 48.5915 25.6112 48.8625 25.4624C50.2511 24.697 51.6608 24.7081 53.0138 25.5324C54.3458 26.3433 54.9579 27.5875 54.9123 29.1327C54.8801 30.2358 54.4258 31.1756 53.6215 31.9321C52.1818 33.2874 50.7366 34.637 49.2891 35.9835C48.7559 36.48 48.2493 36.4766 47.7161 35.979C46.2809 34.6415 44.8434 33.3051 43.4182 31.9554C42.3206 30.9167 42.3462 30.6201 43.607 29.657C43.8781 30.6102 44.6512 31.1478 45.3122 31.7743C46.3575 32.7652 47.4151 33.745 48.4893 34.7481C48.5893 34.666 48.6814 34.597 48.7648 34.5193C50.0679 33.3018 51.3875 32.0998 52.6684 30.8579C54.1081 29.4626 53.6248 27.1576 51.7697 26.5032C50.8099 26.1644 49.9256 26.3411 49.1413 26.991C48.6104 27.4308 48.4126 27.4164 47.8594 26.9998C47.5206 26.7477 47.1307 26.561 46.7452 26.3344Z" fill="white"/>
<path d="M39.4302 56.696V56.6942M39.4302 56.696C39.4302 56.6961 39.4302 56.6959 39.4302 56.696ZM39.4302 56.696C39.4302 56.6964 39.4302 56.6968 39.4302 56.6971C39.4307 56.7927 39.4701 56.8614 39.5095 56.9017C39.549 56.9421 39.6255 56.9908 39.7387 56.9911C39.739 56.9911 39.7394 56.9911 39.7397 56.9911M39.4302 56.696L39.7411 56.4009H39.7404C39.7409 56.4009 39.7414 56.4009 39.7419 56.4009C39.7424 56.4009 39.7429 56.4009 39.7435 56.4009C39.8447 56.4021 39.9223 56.446 39.9683 56.4932C40.0142 56.5403 40.049 56.6109 40.0493 56.696C40.0493 56.6964 40.0493 56.6968 40.0493 56.6971C40.0493 56.6973 40.0493 56.6976 40.0493 56.6978C40.049 56.7839 40.0137 56.854 39.9684 56.9C39.9232 56.9461 39.8445 56.9911 39.7397 56.9911M39.7397 56.9911C39.7398 56.9911 39.7396 56.9911 39.7397 56.9911Z" stroke="white" stroke-width="3.868"/>
</svg>
