<svg width="75" height="75" viewBox="0 0 75 75" fill="none" xmlns="http://www.w3.org/2000/svg">
<circle cx="37.5" cy="37.5" r="37.5" fill="#177A4E"/>
<g clip-path="url(#clip0_47_162)">
<path d="M38 26.9986C37.8177 26.9986 37.6428 27.071 37.5139 27.2C37.385 27.3289 37.3125 27.5037 37.3125 27.6861V35.958L32.3075 29.3719C32.2528 29.2998 32.1844 29.2393 32.1063 29.1937C32.0281 29.1481 31.9417 29.1182 31.852 29.106C31.7624 29.0939 31.6712 29.0996 31.5837 29.1228C31.4962 29.146 31.4142 29.1862 31.3423 29.2412C29.2668 30.8214 27.8198 33.0874 27.2593 35.6351C26.6987 38.1828 27.061 40.8467 28.2815 43.1521C29.5041 45.4558 31.505 47.2504 33.9277 48.2159C36.3503 49.1814 39.0371 49.2551 41.509 48.4239C43.981 47.5901 46.0765 45.9056 47.422 43.6706C48.7676 41.4356 49.2756 38.7955 48.8557 36.2207C48.4324 33.6465 47.1086 31.3063 45.1204 29.6173C43.1322 27.9283 40.6088 27.0002 38 26.9986ZM38.6875 28.4974C43.0917 28.8219 46.7725 32.0242 47.4958 36.4448C47.8668 38.6974 47.4242 41.0085 46.2473 42.9646C45.0703 44.9208 43.2357 46.3943 41.0718 47.1217C38.9085 47.8521 36.5559 47.7891 34.4348 46.9439C32.3137 46.0988 30.5625 44.5266 29.4943 42.5086C27.3974 38.5513 28.3943 33.7773 31.7025 30.8527L37.4528 38.4152C37.5399 38.5297 37.6608 38.6141 37.7984 38.6563C37.936 38.6986 38.0834 38.6965 38.2198 38.6505C38.3562 38.6045 38.4747 38.5168 38.5586 38.3999C38.6426 38.2829 38.6876 38.1425 38.6875 37.9986V28.4974ZM39.353 16.0206C39.175 16.027 39.0064 16.1023 38.8828 16.2305C38.7592 16.3588 38.6902 16.53 38.6903 16.7081V23.6312C38.6901 23.802 38.7536 23.9667 38.8682 24.0933C38.9828 24.2199 39.1405 24.2993 39.3104 24.316C40.8298 24.4659 42.312 24.8659 43.6994 25.5025C43.8549 25.5733 44.0311 25.5837 44.1938 25.5316C44.3565 25.4795 44.494 25.3686 44.5794 25.2207L48.0472 19.2161C48.0944 19.1347 48.1243 19.0445 48.1353 18.951C48.1462 18.8575 48.1377 18.7627 48.1105 18.6726C48.0834 18.5825 48.0379 18.499 47.9771 18.4271C47.9163 18.3553 47.8414 18.2967 47.757 18.255C45.1523 16.9692 42.3192 16.2108 39.4204 16.0234C39.398 16.0223 39.3755 16.0223 39.353 16.0234V16.0206ZM40.0653 17.5139C42.2763 17.738 44.4268 18.3169 46.4535 19.2299L43.6499 24.0836C42.4996 23.6134 41.2956 23.2874 40.0653 23.1129V17.5139ZM26.1187 19.5489C25.9958 19.5559 25.8771 19.5958 25.7749 19.6643C23.356 21.2768 21.2799 23.3516 19.6658 25.7694C19.6137 25.8476 19.5782 25.9356 19.5615 26.0281C19.5448 26.1205 19.5472 26.2154 19.5686 26.3069C19.59 26.3983 19.6299 26.4845 19.6859 26.56C19.7418 26.6354 19.8127 26.6986 19.894 26.7456L25.9124 30.2189C26.0602 30.304 26.2343 30.3312 26.401 30.2951C26.5677 30.259 26.7151 30.1623 26.8144 30.0237C27.7009 28.784 28.7873 27.7004 30.0292 26.8171C30.1691 26.7178 30.2668 26.5699 30.3032 26.4022C30.3396 26.2345 30.312 26.0592 30.2258 25.9109L26.7498 19.8926C26.6865 19.7827 26.5941 19.6924 26.4827 19.6317C26.3713 19.571 26.2453 19.5424 26.1187 19.5489ZM49.8374 19.5489C49.7181 19.5503 49.6013 19.5827 49.4983 19.643C49.3954 19.7033 49.3099 19.7893 49.2503 19.8926L45.7743 25.9082C45.6889 26.0563 45.6617 26.2308 45.6981 26.3978C45.7344 26.5649 45.8317 26.7124 45.9709 26.8116C47.2105 27.6981 48.2941 28.7845 49.1774 30.0263C49.2764 30.1661 49.4241 30.264 49.5914 30.3006C49.7588 30.3372 49.9338 30.3101 50.0822 30.2244L56.1005 26.7498C56.1821 26.7028 56.2531 26.6396 56.3092 26.564C56.3653 26.4884 56.4053 26.402 56.4267 26.3104C56.4481 26.2187 56.4504 26.1237 56.4336 26.0311C56.4168 25.9385 56.3811 25.8504 56.3288 25.7721C54.7174 23.3541 52.6441 21.2784 50.2279 19.6643C50.1124 19.5873 49.9763 19.547 49.8374 19.5489ZM25.9633 21.2787L28.7752 26.1474C27.7962 26.9098 26.9151 27.79 26.1517 28.7682L21.28 25.9564C22.5788 24.155 24.1603 22.5754 25.9633 21.2787ZM50.0368 21.2787C51.8379 22.5767 53.4175 24.1572 54.7145 25.9591L49.8402 28.7737C49.0789 27.7939 48.1996 26.9118 47.2222 26.1474L50.0368 21.2787ZM57.1455 27.847C57.0231 27.8456 56.9025 27.8769 56.7963 27.9377L50.7752 31.4165C50.6272 31.5019 50.5164 31.6393 50.4643 31.802C50.4122 31.9647 50.4225 32.141 50.4933 32.2965C51.1272 33.6838 51.5273 35.1675 51.6758 36.6855C51.6925 36.8552 51.7717 37.0127 51.898 37.1273C52.0243 37.2419 52.1886 37.3055 52.3592 37.3057H59.3125C59.4065 37.3055 59.4995 37.286 59.5857 37.2485C59.6719 37.2109 59.7495 37.1562 59.8136 37.0875C59.8778 37.0188 59.9272 36.9377 59.9588 36.8491C59.9904 36.7606 60.0035 36.6665 59.9973 36.5727C59.8079 33.6705 59.0462 30.8345 57.756 28.2279C57.6994 28.1142 57.6124 28.0185 57.5046 27.9513C57.3968 27.884 57.2725 27.8479 57.1455 27.847ZM18.8903 27.8608C18.7589 27.8576 18.6293 27.8923 18.517 27.9605C18.4046 28.0287 18.3142 28.1276 18.2564 28.2457C16.97 30.8488 16.2106 33.6807 16.022 36.5782C16.0158 36.6723 16.029 36.7666 16.0607 36.8554C16.0925 36.9441 16.1422 37.0253 16.2066 37.094C16.2711 37.1628 16.349 37.2175 16.4355 37.2548C16.522 37.2922 16.6153 37.3113 16.7095 37.3111H23.6313C23.8014 37.3106 23.9652 37.2471 24.0912 37.1328C24.2171 37.0185 24.2963 36.8616 24.3133 36.6924C24.4618 35.173 24.8619 33.6907 25.4972 32.3034C25.5693 32.1477 25.5807 31.9708 25.5291 31.8072C25.4774 31.6436 25.3665 31.5053 25.218 31.4193L19.2162 27.9529C19.1164 27.8958 19.0039 27.8645 18.8889 27.8621L18.8903 27.8608ZM56.7853 29.534C57.6995 31.56 58.2799 33.7207 58.504 35.932H52.8748C52.7024 34.7035 52.3791 33.5009 51.9123 32.3515L56.7853 29.534ZM19.2285 29.5478L24.0809 32.3529C23.6123 33.5034 23.2877 34.7074 23.1143 35.9376H17.5153C17.7385 33.7293 18.3171 31.5715 19.2285 29.5478ZM16.6875 38.6916C16.5933 38.6914 16.5 38.7106 16.4135 38.748C16.327 38.7853 16.2491 38.8401 16.1846 38.9088C16.1202 38.9775 16.0705 39.0587 16.0387 39.1475C16.007 39.2362 15.9938 39.3304 16 39.4244C16.1898 42.3257 16.9502 45.1609 18.2399 47.7666C18.2817 47.851 18.3405 47.926 18.4125 47.9868C18.4845 48.0476 18.5682 48.093 18.6585 48.12C18.7487 48.1471 18.8436 48.1553 18.9371 48.1442C19.0307 48.1331 19.121 48.1029 19.2024 48.0554L25.2222 44.5793C25.3704 44.4938 25.4814 44.3563 25.5336 44.1933C25.5857 44.0303 25.5752 43.8536 25.504 43.698C24.8697 42.3115 24.4701 40.8293 24.3215 39.3118C24.3046 39.1428 24.2256 38.9859 24.0999 38.8717C23.9743 38.7574 23.8108 38.6938 23.6409 38.6929L16.6875 38.6916ZM52.3688 38.6916C52.1978 38.6911 52.0327 38.7543 51.9059 38.869C51.779 38.9837 51.6994 39.1416 51.6827 39.3118C51.5341 40.8294 51.134 42.3117 50.4988 43.698C50.4272 43.8538 50.4165 44.0306 50.4687 44.1939C50.5208 44.3573 50.6321 44.4952 50.7807 44.5807L56.7825 48.0485C56.864 48.0952 56.9542 48.1247 57.0475 48.1352C57.1408 48.1456 57.2353 48.1367 57.3251 48.1093C57.4149 48.0819 57.4981 48.0364 57.5696 47.9755C57.6411 47.9147 57.6994 47.8399 57.7409 47.7557C59.0272 45.1529 59.7865 42.3215 59.9753 39.4244C59.9815 39.3306 59.9684 39.2367 59.9368 39.1481C59.9052 39.0596 59.8558 38.9785 59.7916 38.9098C59.7275 38.8411 59.6499 38.7862 59.5637 38.7487C59.4775 38.7111 59.3845 38.6918 59.2905 38.6916H52.3688ZM17.4933 40.0666H23.1225C23.2958 41.2972 23.6175 42.4949 24.085 43.6471L19.2093 46.4617C18.2967 44.4368 17.7172 42.2764 17.4933 40.0666ZM52.883 40.0666H58.482C58.2592 42.2737 57.6816 44.4304 56.7715 46.4535L51.9178 43.6471C52.3853 42.4962 52.7098 41.2958 52.883 40.0666ZM26.2259 45.6821C26.1166 45.6872 26.01 45.7183 25.9152 45.7729L19.8968 49.2488C19.8154 49.2958 19.7446 49.359 19.6886 49.4345C19.6327 49.5099 19.5927 49.5961 19.5714 49.6876C19.55 49.7791 19.5476 49.8739 19.5643 49.9664C19.581 50.0588 19.6165 50.147 19.6685 50.2252C21.2808 52.6446 23.3556 54.7212 25.7735 56.3356C25.8516 56.3873 25.9395 56.4224 26.0316 56.4389C26.1238 56.4553 26.2183 56.4527 26.3095 56.4313C26.4006 56.4099 26.4865 56.3702 26.5617 56.3145C26.6369 56.2588 26.7 56.1883 26.747 56.1074L30.2203 50.0917C30.3057 49.9443 30.3333 49.7703 30.2977 49.6036C30.2622 49.437 30.166 49.2895 30.0278 49.1897C28.7866 48.3026 27.7016 47.2154 26.8172 45.9723C26.7506 45.8786 26.6616 45.803 26.5583 45.7526C26.455 45.7021 26.3407 45.6769 26.2259 45.6821ZM49.7632 45.6821C49.6506 45.6792 49.5391 45.7041 49.4384 45.7544C49.3377 45.8048 49.2509 45.8792 49.1857 45.9709C48.2991 47.2101 47.2127 48.2931 45.9709 49.176C45.8313 49.2752 45.7338 49.4229 45.6975 49.5902C45.6611 49.7576 45.6885 49.9325 45.7743 50.0807L49.2475 56.0963C49.2944 56.1777 49.3575 56.2488 49.4329 56.3049C49.5083 56.361 49.5944 56.4011 49.6859 56.4226C49.7774 56.4441 49.8724 56.4466 49.9649 56.43C50.0574 56.4134 50.1455 56.3779 50.2238 56.3259C52.6429 54.7144 54.7195 52.6406 56.3343 50.2237C56.3866 50.1454 56.4222 50.0573 56.4391 49.9647C56.4559 49.8721 56.4536 49.777 56.4322 49.6854C56.4108 49.5937 56.3708 49.5075 56.3147 49.4319C56.2586 49.3564 56.1876 49.2931 56.106 49.2461L50.0904 45.7742C49.9906 45.7171 49.8781 45.6845 49.7632 45.6821ZM26.1544 47.2234C26.9157 48.2032 27.795 49.0853 28.7724 49.8497L25.9605 54.7213C24.1591 53.4225 22.5795 51.841 21.2828 50.038L26.1544 47.2234ZM49.8512 47.2234L54.72 50.0353C53.4202 51.836 51.8378 53.4148 50.034 54.7104L47.2249 49.8457C48.2049 49.0831 49.087 48.2022 49.8512 47.2234ZM32.0325 50.4273C31.9086 50.4238 31.7861 50.4539 31.6779 50.5144C31.5697 50.5749 31.4798 50.6636 31.4179 50.771L27.9502 56.7769C27.903 56.8583 27.873 56.9486 27.8621 57.0421C27.8512 57.1356 27.8596 57.2303 27.8868 57.3204C27.914 57.4105 27.9594 57.4941 28.0202 57.566C28.081 57.6378 28.1559 57.6965 28.2403 57.7382C30.8449 59.0248 33.678 59.7841 36.5769 59.9725C36.6709 59.9788 36.7652 59.9655 36.854 59.9338C36.9427 59.902 37.0239 59.8524 37.0927 59.7879C37.1614 59.7234 37.2161 59.6455 37.2535 59.559C37.2908 59.4725 37.31 59.3793 37.3098 59.285V52.3619C37.3099 52.1911 37.2465 52.0264 37.1319 51.8998C37.0172 51.7732 36.8596 51.6938 36.6897 51.6771C35.1704 51.5273 33.6867 51.1258 32.2993 50.489C32.2154 50.4507 32.1247 50.4298 32.0325 50.4273ZM43.9455 50.4273C43.8594 50.4321 43.775 50.453 43.6967 50.489C42.3101 51.1228 40.8278 51.5216 39.3104 51.6688C39.1405 51.6856 38.9828 51.765 38.8682 51.8916C38.7536 52.0181 38.6901 52.1829 38.6903 52.3536V59.3097C38.6901 59.4037 38.7092 59.4968 38.7464 59.5831C38.7836 59.6695 38.8381 59.7471 38.9065 59.8116C38.9749 59.876 39.0558 59.9257 39.1442 59.9576C39.2326 59.9895 39.3266 60.003 39.4204 59.9972C42.3227 59.8074 45.1588 59.0453 47.7653 57.7546C47.8497 57.7128 47.9247 57.6541 47.9855 57.5821C48.0463 57.5101 48.0916 57.4263 48.1187 57.336C48.1458 57.2457 48.154 57.151 48.1429 57.0574C48.1318 56.9638 48.1015 56.8736 48.054 56.7922L44.5767 50.7724C44.5134 50.6624 44.421 50.5722 44.3096 50.5115C44.1982 50.4509 44.0722 50.4208 43.9455 50.4273ZM43.6472 51.9082L46.4618 56.7811C44.4364 57.6962 42.2763 58.2774 40.0653 58.5025V52.872C41.2943 52.6992 42.4974 52.3756 43.6472 51.9082ZM32.3474 51.9082C33.4997 52.3784 34.7014 52.7029 35.9348 52.8775V58.4765C33.7261 58.2535 31.5679 57.675 29.5438 56.7633L32.3474 51.9082Z" fill="white"/>
</g>
<defs>
<clipPath id="clip0_47_162">
<rect width="44" height="44" fill="white" transform="translate(16 16)"/>
</clipPath>
</defs>
</svg>
