<svg width="75" height="75" viewBox="0 0 75 75" fill="none" xmlns="http://www.w3.org/2000/svg">
<circle cx="37.5" cy="37.5" r="37.5" fill="#177A4E"/>
<path fill-rule="evenodd" clip-rule="evenodd" d="M49.0554 30.611C49.5924 31.1479 49.5924 32.0186 49.0554 32.5555L36.222 45.3888C35.9643 45.6467 35.6145 45.7916 35.2498 45.7916C34.8852 45.7916 34.5354 45.6467 34.2776 45.3888L26.9442 38.0555C26.4073 37.5185 26.4073 36.648 26.9442 36.111C27.4812 35.574 28.3518 35.574 28.8888 36.111L35.2498 42.472L47.111 30.611C47.6479 30.074 48.5184 30.074 49.0554 30.611Z" fill="white"/>
<path fill-rule="evenodd" clip-rule="evenodd" d="M37.9998 21.0417C28.634 21.0417 21.0415 28.6343 21.0415 38.0001C21.0415 47.3658 28.634 54.9584 37.9998 54.9584C41.8192 54.9584 45.34 53.6974 48.1741 51.5686C48.7813 51.1124 49.6433 51.2349 50.0995 51.8421C50.5554 52.4493 50.433 53.3113 49.8258 53.7673C46.5318 56.2417 42.435 57.7084 37.9998 57.7084C27.1152 57.7084 18.2915 48.8848 18.2915 38.0001C18.2915 27.1155 27.1152 18.2917 37.9998 18.2917C48.8845 18.2917 57.7082 27.1155 57.7082 38.0001C57.7082 40.7822 57.1309 43.433 56.0882 45.8367C55.7861 46.5333 54.9763 46.8531 54.2797 46.5507C53.583 46.2486 53.2633 45.4388 53.5654 44.7422C54.461 42.6776 54.9582 40.3986 54.9582 38.0001C54.9582 28.6343 47.3656 21.0417 37.9998 21.0417Z" fill="white"/>
</svg>
