<svg width="75" height="75" viewBox="0 0 75 75" fill="none" xmlns="http://www.w3.org/2000/svg">
<circle cx="37.5" cy="37.5" r="37.5" fill="#177A4E"/>
<path fill-rule="evenodd" clip-rule="evenodd" d="M40.1595 24.4686C38.4572 24.4686 36.8243 24.761 35.3097 25.2988C34.8101 25.4763 34.2613 25.2151 34.0838 24.7154C33.9064 24.2158 34.1676 23.667 34.6672 23.4895C36.386 22.8792 38.236 22.5486 40.1595 22.5486C49.2449 22.5486 56.6101 29.915 56.6101 39.0006C56.6101 48.0878 49.2447 55.4511 40.1595 55.4511C31.073 55.4511 23.708 48.0878 23.708 39.0006C23.708 36.3739 24.3231 33.8878 25.4204 31.6825C25.6566 31.2079 26.2328 31.0145 26.7075 31.2507C27.1822 31.4869 27.3755 32.0632 27.1393 32.5378C26.1717 34.4826 25.628 36.6765 25.628 39.0006C25.628 47.0273 32.1331 53.5311 40.1595 53.5311C48.1845 53.5311 54.6901 47.0273 54.6901 39.0006C54.6901 30.9752 48.1843 24.4686 40.1595 24.4686Z" fill="white"/>
<path fill-rule="evenodd" clip-rule="evenodd" d="M40.5653 28.5863C40.634 28.0606 41.116 27.6902 41.6417 27.759C47.203 28.4864 51.4949 33.242 51.4949 39.0006C51.4949 45.2607 46.4204 50.3382 40.1597 50.3382C38.6457 50.3382 37.1989 50.0405 35.8757 49.4986C35.3851 49.2977 35.1502 48.737 35.3512 48.2464C35.5521 47.7557 36.1127 47.5209 36.6034 47.7218C37.6994 48.1707 38.8993 48.4182 40.1597 48.4182C45.3595 48.4182 49.5749 44.2009 49.5749 39.0006C49.5749 34.2184 46.0102 30.2668 41.3926 29.6627C40.8669 29.594 40.4965 29.112 40.5653 28.5863Z" fill="white"/>
<path fill-rule="evenodd" clip-rule="evenodd" d="M40.2897 37.9696C39.7916 37.9696 39.3878 38.3734 39.3878 38.8715C39.3878 39.3696 39.7916 39.7734 40.2897 39.7734C40.7878 39.7734 41.1916 39.3696 41.1916 38.8715C41.1916 38.3734 40.7878 37.9696 40.2897 37.9696ZM37.4678 38.8715C37.4678 37.313 38.7312 36.0496 40.2897 36.0496C41.8482 36.0496 43.1116 37.313 43.1116 38.8715C43.1116 40.43 41.8482 41.6934 40.2897 41.6934C38.7312 41.6934 37.4678 40.43 37.4678 38.8715Z" fill="white"/>
<path fill-rule="evenodd" clip-rule="evenodd" d="M39.4594 39.6277C39.8505 39.9857 39.8772 40.593 39.5192 40.984L32.8433 48.2752C32.4853 48.6663 31.8781 48.693 31.487 48.335C31.096 47.9769 31.0692 47.3697 31.4273 46.9787L38.1031 39.6875C38.4611 39.2964 39.0684 39.2697 39.4594 39.6277Z" fill="white"/>
<path fill-rule="evenodd" clip-rule="evenodd" d="M34.7603 28.4165C34.7603 27.8863 35.1901 27.4565 35.7203 27.4565H37.2721C37.8023 27.4565 38.2321 27.8863 38.2321 28.4165C38.2321 28.9467 37.8023 29.3765 37.2721 29.3765H35.7203C35.1901 29.3765 34.7603 28.9467 34.7603 28.4165Z" fill="white"/>
<path fill-rule="evenodd" clip-rule="evenodd" d="M20.6494 28.4165C20.6494 27.8863 21.0792 27.4565 21.6094 27.4565H24.2228C24.753 27.4565 25.1828 27.8863 25.1828 28.4165C25.1828 28.9467 24.753 29.3765 24.2228 29.3765H21.6094C21.0792 29.3765 20.6494 28.9467 20.6494 28.4165ZM28.4895 28.4165C28.4895 27.8863 28.9193 27.4565 29.4495 27.4565H32.0629C32.593 27.4565 33.0229 27.8863 33.0229 28.4165C33.0229 28.9467 32.593 29.3765 32.0629 29.3765H29.4495C28.9193 29.3765 28.4895 28.9467 28.4895 28.4165Z" fill="white"/>
<path fill-rule="evenodd" clip-rule="evenodd" d="M15.8608 28.4165C15.8608 27.8863 16.2906 27.4565 16.8208 27.4565H18.3722C18.9024 27.4565 19.3322 27.8863 19.3322 28.4165C19.3322 28.9467 18.9024 29.3765 18.3722 29.3765H16.8208C16.2906 29.3765 15.8608 28.9467 15.8608 28.4165Z" fill="white"/>
<path fill-rule="evenodd" clip-rule="evenodd" d="M13.3901 24.3941C13.3901 23.8639 13.8199 23.4341 14.3501 23.4341H21.5799C22.1101 23.4341 22.5399 23.8639 22.5399 24.3941C22.5399 24.9243 22.1101 25.3541 21.5799 25.3541H14.3501C13.8199 25.3541 13.3901 24.9243 13.3901 24.3941Z" fill="white"/>
<path fill-rule="evenodd" clip-rule="evenodd" d="M25.6157 24.3941C25.6157 23.8639 26.0455 23.4341 26.5757 23.4341H30.6701C31.2003 23.4341 31.6301 23.8639 31.6301 24.3941C31.6301 24.9243 31.2003 25.3541 30.6701 25.3541H26.5757C26.0455 25.3541 25.6157 24.9243 25.6157 24.3941Z" fill="white"/>
</svg>
