<svg width="75" height="75" viewBox="0 0 75 75" fill="none" xmlns="http://www.w3.org/2000/svg">
<circle cx="37.5" cy="37.5" r="37.5" fill="#177A4E"/>
<path d="M38.0961 39.3025C40.4005 39.3025 42.6531 38.6191 44.5692 37.3389C46.4852 36.0586 47.9786 34.239 48.8605 32.11C49.7423 29.981 49.9731 27.6383 49.5236 25.3782C49.074 23.1181 47.9643 21.042 46.3348 19.4126C44.7054 17.7831 42.6292 16.6734 40.3691 16.2239C38.109 15.7743 35.7663 16.005 33.6374 16.8869C31.5084 17.7688 29.6887 19.2621 28.4084 21.1781C27.1282 23.0942 26.4448 25.3469 26.4448 27.6513C26.4483 30.7403 27.6769 33.7018 29.8612 35.8861C32.0455 38.0704 35.007 39.299 38.0961 39.3025ZM38.0961 17.281C40.1471 17.2811 42.152 17.8895 43.8573 19.029C45.5626 20.1686 46.8918 21.7883 47.6766 23.6832C48.4614 25.5782 48.6667 27.6633 48.2665 29.675C47.8662 31.6866 46.8786 33.5344 45.4282 34.9846C43.9778 36.4349 42.1299 37.4225 40.1182 37.8225C38.1066 38.2226 36.0216 38.0172 34.1267 37.2322C32.2318 36.4473 30.6122 35.1181 29.4727 33.4127C28.3332 31.7073 27.7251 29.7023 27.7251 27.6513C27.7282 24.9017 28.8219 22.2657 30.7662 20.3215C32.7104 18.3774 35.3465 17.2839 38.0961 17.281Z" fill="white"/>
<path d="M38.0957 36.0776C39.4638 36.0774 40.8114 35.744 42.0219 35.1063C43.2323 34.4686 44.2693 33.5458 45.0432 32.4175C45.817 31.2892 46.3045 29.9894 46.4635 28.6305C46.6225 27.2716 46.4482 25.8944 45.9557 24.618C45.4631 23.3415 44.6673 22.2042 43.6367 21.3043C42.6061 20.4044 41.3719 19.769 40.0407 19.453C38.7095 19.1369 37.3215 19.1498 35.9964 19.4905C34.6713 19.8312 33.4489 20.4894 32.4352 21.4083C32.3108 21.5228 32.2369 21.6818 32.2293 21.8507C32.2216 22.0196 32.2811 22.1847 32.3947 22.3099C32.5083 22.4351 32.6669 22.5104 32.8357 22.5192C33.0046 22.528 33.17 22.4697 33.296 22.357C34.6207 21.1585 36.3473 20.5009 38.1337 20.5146C39.9201 20.5283 41.6362 21.2122 42.9424 22.4309C44.2487 23.6496 45.0498 25.3143 45.1872 27.0955C45.3245 28.8766 44.7882 30.6445 43.6843 32.0491C42.5804 33.4537 40.9893 34.3926 39.2261 34.68C37.4629 34.9675 35.656 34.5825 34.1631 33.6012C32.6702 32.62 31.6002 31.114 31.1647 29.3814C30.7293 27.6488 30.9602 25.8159 31.8117 24.2454C31.8902 24.0964 31.9069 23.9224 31.8581 23.7613C31.8092 23.6001 31.6988 23.4646 31.5508 23.3842C31.4028 23.3039 31.2292 23.285 31.0674 23.3317C30.9056 23.3785 30.7685 23.4871 30.6862 23.634C29.9909 24.9177 29.641 26.36 29.6707 27.8196C29.7003 29.2792 30.1087 30.7061 30.8555 31.9605C31.6024 33.2148 32.6622 34.2537 33.9312 34.9754C35.2003 35.697 36.635 36.0766 38.0949 36.0771L38.0957 36.0776Z" fill="white"/>
<path d="M37.8521 30.6688C36.8463 30.6076 36.5699 30.0022 36.5187 29.8598C36.4744 29.6978 36.3683 29.5596 36.2231 29.475C36.078 29.3904 35.9055 29.3661 35.7426 29.4074C35.5798 29.4488 35.4396 29.5524 35.3524 29.696C35.2651 29.8396 35.2379 30.0117 35.2762 30.1752C35.2762 30.1775 35.2778 30.182 35.2794 30.1877C35.2869 30.2178 35.2968 30.2474 35.3087 30.2761C35.4271 30.6028 35.9019 31.6167 37.3006 31.888V32.7401C37.3006 32.91 37.3679 33.0729 37.488 33.193C37.6081 33.3131 37.7711 33.3806 37.941 33.3806C38.1108 33.3806 38.2738 33.3131 38.3939 33.193C38.514 33.0729 38.5816 32.91 38.5816 32.7401V31.9072C39.0607 31.8329 39.5068 31.6182 39.8638 31.2902C40.1069 31.053 40.2998 30.7694 40.4312 30.4562C40.5626 30.1431 40.6299 29.8068 40.6289 29.4671C40.6289 28.8181 40.3745 27.2805 38.0169 27.0205C37.5498 26.9689 37.2172 26.8205 37.0265 26.5788C36.9071 26.4238 36.8418 26.234 36.8406 26.0383C36.8406 25.9259 36.8716 24.9378 37.9412 24.9378C38.6429 24.9378 38.9263 25.3841 38.9796 25.4812C39.0119 25.5617 39.0601 25.635 39.1214 25.6964C39.1828 25.7577 39.2559 25.806 39.3364 25.8383C39.417 25.8706 39.5032 25.8862 39.59 25.8842C39.6768 25.8822 39.7622 25.8626 39.8411 25.8266C39.9201 25.7905 39.9911 25.7389 40.0495 25.6747C40.108 25.6105 40.1526 25.5351 40.1811 25.4531C40.2095 25.3711 40.2209 25.2842 40.2148 25.1977C40.2086 25.1111 40.1852 25.0267 40.1454 24.9495C39.989 24.645 39.7679 24.3782 39.4977 24.1679C39.2276 23.9576 38.915 23.8088 38.5814 23.7318V22.8722C38.5814 22.7023 38.5138 22.5394 38.3937 22.4193C38.2736 22.2992 38.1106 22.2317 37.9407 22.2317C37.7709 22.2317 37.6079 22.2992 37.4878 22.4193C37.3677 22.5394 37.3004 22.7023 37.3004 22.8722V23.7291C36.0362 24.029 35.5591 25.2088 35.5591 26.0383C35.5591 26.9607 36.1659 28.1049 37.8758 28.2936C39.3475 28.456 39.3477 29.217 39.3477 29.4671C39.3492 29.8001 39.2189 30.1201 38.9853 30.3573C38.7328 30.5947 38.3516 30.6998 37.8517 30.6697L37.8521 30.6688Z" fill="white"/>
<path d="M27.2275 45.6587C27.1676 45.595 27.0954 45.5443 27.0151 45.5096C26.9349 45.4749 26.8485 45.457 26.7611 45.457C26.6737 45.457 26.587 45.4749 26.5068 45.5096C26.4266 45.5443 26.3544 45.595 26.2945 45.6587L21.9439 50.2837C21.8583 50.3748 21.8012 50.4889 21.7796 50.6121C21.7581 50.7352 21.773 50.8619 21.8226 50.9766C21.8722 51.0914 21.9541 51.1891 22.0586 51.2577C22.163 51.3264 22.2855 51.3629 22.4105 51.363H23.6678V53.6888C23.6678 53.8587 23.7354 54.0216 23.8555 54.1417C23.9756 54.2618 24.1383 54.3293 24.3082 54.3293C24.4781 54.3293 24.641 54.2618 24.7611 54.1417C24.8812 54.0216 24.9488 53.8587 24.9488 53.6888V50.7226C24.9488 50.5527 24.8812 50.3898 24.7611 50.2697C24.641 50.1496 24.4781 50.0821 24.3082 50.0821H23.8921L26.7608 47.0321L29.6299 50.0821H29.2135C29.0436 50.0821 28.8809 50.1496 28.7608 50.2697C28.6407 50.3898 28.5731 50.5527 28.5731 50.7226V58.3556H24.9486V56.2507C24.9486 56.0808 24.8812 55.9179 24.7611 55.7978C24.641 55.6777 24.4781 55.6102 24.3082 55.6102C24.1383 55.6102 23.9753 55.6777 23.8552 55.7978C23.7351 55.9179 23.6676 56.0808 23.6676 56.2507V58.996C23.6676 59.1659 23.7351 59.3288 23.8552 59.4489C23.9753 59.569 24.1383 59.6365 24.3082 59.6365H29.2135C29.3834 59.6365 29.5463 59.569 29.6665 59.4489C29.7866 59.3288 29.8539 59.1659 29.8539 58.996V51.363H31.1115C31.2365 51.363 31.3589 51.3264 31.4634 51.2578C31.5679 51.1892 31.65 51.0915 31.6996 50.9767C31.7492 50.862 31.7641 50.7352 31.7426 50.6121C31.721 50.4889 31.6637 50.3748 31.5781 50.2837L27.2275 45.6587Z" fill="white"/>
<path d="M38.5619 41.2527C38.502 41.189 38.4299 41.1383 38.3496 41.1036C38.2694 41.0689 38.1827 41.051 38.0953 41.051C38.0079 41.051 37.9215 41.0689 37.8413 41.1036C37.761 41.1383 37.6888 41.189 37.6289 41.2527L33.2783 45.8779C33.1927 45.969 33.1356 46.0831 33.1141 46.2062C33.0925 46.3293 33.1074 46.4561 33.157 46.5708C33.2066 46.6855 33.2888 46.7832 33.3933 46.8519C33.4977 46.9205 33.62 46.9571 33.7449 46.9571H35.0023V58.9964C35.0023 59.1662 35.0698 59.3291 35.1899 59.4492C35.3101 59.5694 35.4728 59.6369 35.6427 59.6369H40.548C40.7179 59.6369 40.8808 59.5694 41.0009 59.4492C41.1211 59.3291 41.1884 59.1662 41.1884 58.9964V46.9578H42.4459C42.5709 46.9578 42.6931 46.9212 42.7976 46.8526C42.9021 46.7839 42.9842 46.6862 43.0338 46.5714C43.0834 46.4567 43.0984 46.33 43.0768 46.2068C43.0552 46.0837 42.998 45.9696 42.9123 45.8785L38.5619 41.2527ZM40.5487 45.676C40.3788 45.676 40.2159 45.7435 40.0958 45.8636C39.9756 45.9837 39.9081 46.1466 39.9081 46.3165V58.3557H36.2833V46.3168C36.2832 46.1469 36.2157 45.984 36.0956 45.8639C35.9755 45.7438 35.8125 45.6763 35.6427 45.6763H35.2266L38.0953 42.6263L40.9643 45.6763H40.5482L40.5487 45.676Z" fill="white"/>
<path d="M49.8967 37.176C49.8368 37.1123 49.7646 37.0616 49.6843 37.0269C49.6041 36.9923 49.5177 36.9744 49.4303 36.9744C49.3429 36.9744 49.2562 36.9923 49.176 37.0269C49.0958 37.0616 49.0236 37.1123 48.9637 37.176L44.6131 41.8011C44.5274 41.8921 44.4702 42.0062 44.4486 42.1294C44.427 42.2525 44.4419 42.3792 44.4915 42.494C44.5411 42.6087 44.6233 42.7064 44.7278 42.7751C44.8322 42.8437 44.9544 42.8803 45.0794 42.8803H46.3368V46.7888C46.3368 46.9586 46.4043 47.1215 46.5244 47.2417C46.6446 47.3618 46.8075 47.4293 46.9774 47.4293C47.1473 47.4293 47.3102 47.3618 47.4303 47.2417C47.5505 47.1215 47.6178 46.9586 47.6178 46.7888V42.2399C47.6178 42.07 47.5505 41.9071 47.4303 41.787C47.3102 41.6669 47.1473 41.5994 46.9774 41.5994H46.561L49.4301 38.5495L52.2988 41.5994H51.8825C51.7126 41.5994 51.5499 41.6669 51.4298 41.787C51.3096 41.9071 51.2421 42.07 51.2421 42.2399V58.3561H47.6178V49.3507C47.6178 49.1808 47.5505 49.0179 47.4303 48.8978C47.3102 48.7776 47.1473 48.7102 46.9774 48.7102C46.8075 48.7102 46.6446 48.7776 46.5244 48.8978C46.4043 49.0179 46.3368 49.1808 46.3368 49.3507V58.9969C46.3368 59.1668 46.4043 59.3297 46.5244 59.4498C46.6446 59.57 46.8075 59.6374 46.9774 59.6374H51.8827C52.0526 59.6374 52.2155 59.57 52.3357 59.4498C52.4558 59.3297 52.5233 59.1668 52.5233 58.9969V42.8803H53.7807C53.9057 42.8803 54.0281 42.8437 54.1326 42.7751C54.237 42.7064 54.319 42.6087 54.3686 42.494C54.4182 42.3792 54.4331 42.2525 54.4115 42.1294C54.3899 42.0062 54.3329 41.8921 54.2473 41.8011L49.8967 37.176Z" fill="white"/>
<path d="M24.0374 27.8805C24.0374 27.7106 23.9698 27.5477 23.8497 27.4276C23.7296 27.3075 23.5666 27.24 23.3967 27.24H19.6404C19.4705 27.24 19.3075 27.3075 19.1874 27.4276C19.0673 27.5477 19 27.7106 19 27.8805C19 28.0504 19.0673 28.2133 19.1874 28.3334C19.3075 28.4535 19.4705 28.521 19.6404 28.521H23.3967C23.5666 28.521 23.7296 28.4535 23.8497 28.3334C23.9698 28.2133 24.0374 28.0504 24.0374 27.8805Z" fill="white"/>
<path d="M24.226 32.9062L22.8901 33.4296C22.8118 33.4603 22.7403 33.5061 22.6797 33.5644C22.6191 33.6227 22.5706 33.6924 22.537 33.7695C22.5033 33.8465 22.4851 33.9294 22.4835 34.0135C22.4819 34.0976 22.4968 34.1812 22.5274 34.2595C22.5581 34.3378 22.6039 34.4093 22.6622 34.4699C22.7205 34.5305 22.7901 34.579 22.8672 34.6127C22.9442 34.6464 23.0274 34.6645 23.1114 34.6662C23.1955 34.6678 23.2789 34.6528 23.3572 34.6222L24.6934 34.0987C24.7717 34.0681 24.8431 34.0223 24.9037 33.964C24.9643 33.9057 25.0128 33.836 25.0465 33.7589C25.0802 33.6819 25.0983 33.5989 25.0999 33.5148C25.1016 33.4307 25.0867 33.3472 25.056 33.2689C25.0253 33.1906 24.9796 33.1191 24.9213 33.0585C24.863 32.9979 24.7931 32.9493 24.7161 32.9157C24.639 32.882 24.5561 32.8638 24.472 32.8622C24.3879 32.8606 24.3043 32.8755 24.226 32.9062Z" fill="white"/>
<path d="M22.8901 22.3309L24.226 22.8543C24.3043 22.885 24.3879 22.9 24.472 22.8983C24.5561 22.8967 24.639 22.8785 24.7161 22.8449C24.7931 22.8112 24.863 22.7626 24.9213 22.702C24.9796 22.6414 25.0253 22.5699 25.056 22.4916C25.0867 22.4133 25.1016 22.3298 25.0999 22.2457C25.0983 22.1616 25.0802 22.0787 25.0465 22.0016C25.0128 21.9245 24.9643 21.8549 24.9037 21.7966C24.8431 21.7383 24.7717 21.6925 24.6934 21.6618L23.3572 21.1384C23.2789 21.1077 23.1955 21.0927 23.1114 21.0944C23.0274 21.096 22.9442 21.1142 22.8672 21.1478C22.7901 21.1815 22.7205 21.23 22.6622 21.2906C22.6039 21.3512 22.5581 21.4227 22.5274 21.501C22.4968 21.5793 22.4819 21.6629 22.4835 21.747C22.4851 21.8311 22.5033 21.914 22.537 21.9911C22.5706 22.0681 22.6191 22.1378 22.6797 22.1961C22.7403 22.2544 22.8118 22.3002 22.8901 22.3309Z" fill="white"/>
<path d="M56.2515 27.24H52.4951C52.3252 27.24 52.1623 27.3075 52.0422 27.4276C51.922 27.5477 51.8545 27.7106 51.8545 27.8805C51.8545 28.0504 51.922 28.2133 52.0422 28.3334C52.1623 28.4535 52.3252 28.521 52.4951 28.521H56.2515C56.4213 28.521 56.5843 28.4535 56.7044 28.3334C56.8245 28.2133 56.8921 28.0504 56.8921 27.8805C56.8921 27.7106 56.8245 27.5477 56.7044 27.4276C56.5843 27.3075 56.4213 27.24 56.2515 27.24Z" fill="white"/>
<path d="M51.1995 34.0994L52.5357 34.6228C52.6143 34.6549 52.6983 34.6711 52.7832 34.6703C52.868 34.6696 52.9519 34.652 53.0299 34.6186C53.1079 34.5852 53.1785 34.5365 53.2376 34.4756C53.2966 34.4147 53.343 34.3426 53.374 34.2636C53.405 34.1846 53.4198 34.1002 53.4179 34.0154C53.416 33.9305 53.3973 33.8469 53.3628 33.7694C53.3283 33.6918 53.2788 33.6219 53.2171 33.5637C53.1553 33.5055 53.0825 33.4602 53.0031 33.4303L51.6671 32.9069C51.5097 32.8481 51.3354 32.8536 51.182 32.9222C51.0285 32.9907 50.9082 33.1168 50.8469 33.2733C50.7856 33.4298 50.7882 33.6041 50.8542 33.7586C50.9203 33.9132 51.0443 34.0356 51.1998 34.0994H51.1995Z" fill="white"/>
<path d="M51.434 22.8982C51.5139 22.8982 51.5932 22.8832 51.6676 22.8539L53.0035 22.3305C53.161 22.2681 53.2873 22.1458 53.3549 21.9903C53.4225 21.8349 53.4258 21.659 53.3639 21.5013C53.3021 21.3435 53.1801 21.2167 53.0249 21.1485C52.8698 21.0804 52.6941 21.0765 52.5361 21.1378L51.2 21.6612C51.061 21.7157 50.9457 21.817 50.8734 21.9477C50.8012 22.0783 50.7769 22.23 50.8046 22.3767C50.8323 22.5233 50.9103 22.6557 51.0252 22.7509C51.1402 22.8461 51.2848 22.8982 51.434 22.8982Z" fill="white"/>
</svg>
