<svg width="208" height="55" viewBox="0 0 208 55" fill="none" xmlns="http://www.w3.org/2000/svg">
<mask id="mask0_9_45" style="mask-type:luminance" maskUnits="userSpaceOnUse" x="0" y="0" width="208" height="55">
<path d="M207.206 0.785706H0.793884V54.2143H207.206V0.785706Z" fill="white"/>
</mask>
<g mask="url(#mask0_9_45)">
<mask id="mask1_9_45" style="mask-type:luminance" maskUnits="userSpaceOnUse" x="0" y="0" width="208" height="55">
<path d="M207.206 0.785706H0.793884V54.2143H207.206V0.785706Z" fill="white"/>
</mask>
<g mask="url(#mask1_9_45)">
<path d="M9.96776 1.57141H198.032C202.675 1.57141 206.412 5.22074 206.412 9.69046V45.3095C206.412 49.7792 202.675 53.4286 198.032 53.4286H9.96776C5.325 53.4286 1.58777 49.7792 1.58777 45.3095V9.69046C1.58777 5.22074 5.325 1.57141 9.96776 1.57141Z" fill="#181818" stroke="#177A4E"/>
<path d="M60.5178 26.6742C60.4834 22.9832 63.6312 21.1866 63.7757 21.1032C61.9924 18.5798 59.2289 18.2347 58.2576 18.208C55.9366 17.971 53.6856 19.5549 52.5032 19.5549C51.2969 19.5549 49.4759 18.2303 47.5139 18.2693C44.9886 18.3071 42.6263 19.7274 41.3305 21.9302C38.6564 26.4239 40.6507 33.0278 43.2124 36.6588C44.4944 38.4375 45.9909 40.4244 47.9518 40.3541C49.8692 40.2774 50.5848 39.1677 52.8988 39.1677C55.1924 39.1677 55.8643 40.3541 57.8642 40.3097C59.9215 40.2774 61.2172 38.5231 62.4535 36.7277C63.9351 34.6885 64.5291 32.6805 64.5532 32.5781C64.5049 32.5614 60.5578 31.0989 60.5178 26.6742ZM56.7416 15.8182C57.7737 14.5659 58.4788 12.8629 58.2827 11.1343C56.7897 11.1988 54.9228 12.1361 53.8483 13.3605C52.8966 14.4402 52.0479 16.2088 52.2658 17.8719C53.9436 17.9943 55.6648 17.0505 56.7416 15.8182ZM88.2676 40.0981H85.5877L84.1198 35.6213H79.0168L77.6191 40.0981H75.0102L80.0651 24.8554H83.1876L88.2676 40.0981ZM83.6773 33.7423L82.3504 29.7619C82.2094 29.3557 81.9468 28.3984 81.5592 26.8901H81.5111C81.2758 27.8506 81.0273 28.8081 80.7656 29.7619L79.4595 33.7423H83.6773ZM101.268 34.4682C101.268 36.3382 100.748 37.8152 99.7063 38.8995C98.7739 39.8656 97.6169 40.3464 96.2351 40.3464C94.7432 40.3464 93.6721 39.8277 93.0197 38.788H92.9727V44.5773H90.4566V32.7261C90.4566 31.5507 90.4246 30.3441 90.3627 29.1074H92.5759L92.7158 30.8495H92.7627C93.6022 29.5361 94.8751 28.8816 96.5838 28.8816C97.9197 28.8816 99.0355 29.3936 99.9276 30.4188C100.822 31.4449 101.268 32.794 101.268 34.4682ZM98.7041 34.5571C98.7041 33.4875 98.4564 32.6059 97.9586 31.9113C97.4151 31.1878 96.6846 30.825 95.7684 30.825C95.1479 30.825 94.5838 31.0275 94.0805 31.425C93.5759 31.8257 93.2445 32.3488 93.0897 32.9978C93.0206 33.2403 92.9814 33.4898 92.9727 33.7412V35.5746C92.9727 36.3737 93.225 37.0483 93.7307 37.6004C94.2353 38.1502 94.8923 38.4252 95.6984 38.4252C96.6468 38.4252 97.3842 38.0701 97.9116 37.3621C98.4402 36.6531 98.7041 35.7192 98.7041 34.5571ZM114.292 34.4682C114.292 36.3382 113.772 37.8152 112.73 38.8995C111.799 39.8656 110.64 40.3464 109.26 40.3464C107.768 40.3464 106.696 39.8277 106.044 38.788H105.998V44.5773H103.481V32.7261C103.48 31.5194 103.45 30.3129 103.388 29.1074H105.602L105.741 30.8495H105.788C106.626 29.5361 107.9 28.8816 109.609 28.8816C110.944 28.8816 112.059 29.3936 112.953 30.4188C113.844 31.4449 114.292 32.794 114.292 34.4682ZM111.729 34.5571C111.729 33.4875 111.48 32.6059 110.982 31.9113C110.439 31.1878 109.709 30.825 108.793 30.825C108.171 30.825 107.608 31.0275 107.103 31.425C106.598 31.8257 106.269 32.3488 106.114 32.9978C106.046 33.2404 106.007 33.49 105.997 33.7412V35.5746C105.997 36.3737 106.25 37.0483 106.753 37.6004C107.257 38.1491 107.913 38.4252 108.723 38.4252C109.671 38.4252 110.409 38.0701 110.936 37.3621C111.464 36.6531 111.729 35.7192 111.729 34.5571ZM128.854 35.8239C128.854 37.1206 128.389 38.1758 127.458 38.9895C126.436 39.88 125.011 40.3252 123.181 40.3252C121.492 40.3252 120.136 40.0081 119.111 39.3747L119.694 37.3389C120.799 37.9877 122.01 38.3128 123.331 38.3128C124.279 38.3128 125.016 38.1046 125.546 37.6895C126.073 37.2754 126.337 36.7188 126.337 36.0242C126.337 35.4054 126.12 34.8845 125.684 34.4614C125.251 34.0386 124.527 33.6466 123.518 33.2838C120.768 32.2877 119.395 30.8294 119.395 28.9127C119.395 27.6593 119.876 26.6319 120.841 25.8327C121.8 25.0313 123.082 24.6317 124.684 24.6317C126.113 24.6317 127.301 24.8745 128.248 25.3553L127.619 27.3477C126.735 26.8802 125.734 26.6464 124.613 26.6464C123.729 26.6464 123.038 26.8579 122.542 27.2787C122.341 27.4511 122.181 27.6637 122.072 27.902C121.963 28.1402 121.909 28.3984 121.913 28.6589C121.913 29.2622 122.153 29.7608 122.634 30.1516C123.053 30.5134 123.814 30.9051 124.918 31.3282C126.269 31.8557 127.262 32.4747 127.9 33.1813C128.536 33.8871 128.854 34.7697 128.854 35.8239ZM137.171 30.9397H134.398V36.2758C134.398 37.6338 134.887 38.3128 135.866 38.3128C136.316 38.3128 136.688 38.2739 136.983 38.1981L137.053 40.0526C136.558 40.2328 135.905 40.323 135.097 40.323C134.104 40.323 133.327 40.0292 132.767 39.4414C132.208 38.8515 131.927 37.8653 131.927 36.4784V30.9373H130.275V29.1052H131.927V27.0928L134.398 26.3692V29.1052H137.171V30.9397ZM149.683 34.5127C149.683 36.2024 149.186 37.5892 148.191 38.6735C147.15 39.7909 145.767 40.3475 144.042 40.3475C142.381 40.3475 141.059 39.8132 140.072 38.7425C139.085 37.6728 138.592 36.3226 138.592 34.6942C138.592 32.991 139.1 31.5964 140.118 30.5112C141.134 29.4258 142.505 28.8827 144.229 28.8827C145.891 28.8827 147.228 29.417 148.236 30.4889C149.202 31.5274 149.683 32.8686 149.683 34.5127ZM147.073 34.5906C147.073 33.5777 146.85 32.7094 146.398 31.9838C145.87 31.1066 145.117 30.668 144.14 30.668C143.128 30.668 142.36 31.1077 141.833 31.9838C141.381 32.7094 141.157 33.5932 141.157 34.6373C141.157 35.6502 141.381 36.5206 141.833 37.2443C142.376 38.1213 143.137 38.5588 144.117 38.5588C145.078 38.5588 145.831 38.1136 146.376 37.2209C146.839 36.4829 147.073 35.6035 147.073 34.5906ZM157.861 31.2546C157.599 31.209 157.334 31.1866 157.068 31.1878C156.183 31.1878 155.498 31.5106 155.017 32.1607C154.598 32.734 154.388 33.4574 154.388 34.3313V40.0981H151.873L151.897 32.5693C151.9 31.4151 151.868 30.261 151.802 29.1087H153.994L154.086 31.2123H154.155C154.42 30.4889 154.84 29.9066 155.413 29.4704C155.939 29.089 156.577 28.8825 157.232 28.8816C157.464 28.8816 157.674 28.8983 157.861 28.9261V31.2546ZM169.112 34.083C169.112 34.5205 169.082 34.8889 169.02 35.1906H161.473C161.503 36.2769 161.867 37.1072 162.569 37.6794C163.204 38.1915 164.026 38.4475 165.036 38.4475C166.154 38.4475 167.173 38.275 168.091 37.9277L168.485 39.6229C167.413 40.0771 166.148 40.302 164.688 40.302C162.932 40.302 161.554 39.801 160.551 38.7992C159.55 37.7974 159.049 36.4505 159.049 34.762C159.049 33.1047 159.515 31.7243 160.449 30.6235C161.425 29.4481 162.745 28.8615 164.407 28.8615C166.04 28.8615 167.275 29.4481 168.113 30.6235C168.778 31.5574 169.112 32.7116 169.112 34.083ZM166.713 33.4497C166.729 32.7261 166.565 32.1007 166.225 31.5719C165.789 30.8929 165.12 30.5545 164.22 30.5545C163.397 30.5545 162.729 30.8852 162.218 31.5496C161.799 32.0773 161.549 32.7105 161.473 33.4485L166.713 33.4497ZM82.8458 15.4787C82.8458 16.8256 82.4296 17.8418 81.5982 18.5231C80.8275 19.1519 79.7324 19.467 78.3139 19.467C77.7094 19.4719 77.1053 19.4422 76.5045 19.3779V12.0114C77.1615 11.9079 77.869 11.8556 78.6349 11.8556C79.9858 11.8556 81.0042 12.1405 81.6911 12.7104C82.4594 13.356 82.8458 14.2777 82.8458 15.4787ZM81.542 15.5121C81.542 14.6372 81.3035 13.9671 80.8275 13.4996C80.3506 13.0343 79.6545 12.8006 78.737 12.8006C78.3472 12.8006 78.0157 12.8251 77.7417 12.8785V18.4775C77.8931 18.5007 78.1718 18.5108 78.5765 18.5108C79.5238 18.5108 80.2531 18.2559 80.768 17.745C81.2829 17.2342 81.542 16.4904 81.542 15.5121ZM89.7595 16.6564C89.7595 17.4867 89.5153 18.1668 89.0267 18.7C88.5153 19.2487 87.8365 19.5237 86.9889 19.5237C86.1725 19.5237 85.5223 19.261 85.0372 18.7335C84.5533 18.208 84.3113 17.5447 84.3113 16.7455C84.3113 15.9095 84.5614 15.2227 85.0614 14.6906C85.5613 14.1574 86.2344 13.8903 87.0818 13.8903C87.8984 13.8903 88.5543 14.153 89.0508 14.6784C89.5232 15.1904 89.7595 15.8493 89.7595 16.6564ZM88.4775 16.6953C88.4775 16.1966 88.3662 15.7691 88.1448 15.413C87.8857 14.9823 87.5165 14.7674 87.0359 14.7674C86.5394 14.7674 86.1622 14.9823 85.903 15.413C85.6806 15.7691 85.5704 16.2033 85.5704 16.7165C85.5704 17.2152 85.6817 17.6426 85.903 17.9988C86.1703 18.4285 86.5429 18.6444 87.0245 18.6444C87.497 18.6444 87.8675 18.4252 88.1345 17.9877C88.364 17.6237 88.4775 17.1941 88.4775 16.6953ZM99.0297 14.0005L97.2902 19.3991H96.1571L95.4358 17.0549C95.2562 16.4811 95.107 15.8991 94.9887 15.3106H94.9656C94.8589 15.9019 94.7095 16.4851 94.5184 17.056L93.7535 19.4002H92.6068L90.9705 14.0016H92.241L92.8706 16.5674C93.0231 17.174 93.1481 17.7527 93.2489 18.3004H93.2708C93.3625 17.8497 93.515 17.2742 93.7296 16.5784L94.5196 14.0016H95.5265L96.2832 16.5239C96.4667 17.1394 96.6147 17.7317 96.7294 18.3015H96.7638C96.8475 17.7461 96.9736 17.154 97.1411 16.5239L97.8165 14.0016L99.0297 14.0005ZM105.441 19.4002H104.204V16.308C104.204 15.3551 103.831 14.8787 103.083 14.8787C102.913 14.8739 102.745 14.9067 102.59 14.9748C102.435 15.0429 102.298 15.1444 102.19 15.2716C101.962 15.5332 101.846 15.8427 101.846 16.1966V19.3991H100.61V15.5433C100.61 15.0702 100.595 14.5548 100.565 13.9983H101.652L101.71 14.8431H101.744C101.889 14.5804 102.103 14.3645 102.385 14.1908C102.72 13.9905 103.096 13.8881 103.505 13.8881C104.025 13.8881 104.457 14.0506 104.801 14.3767C105.228 14.7763 105.441 15.3729 105.441 16.1654V19.4002ZM108.851 19.4002H107.616V11.5228H108.851V19.4002ZM116.132 16.6564C116.132 17.4867 115.888 18.1668 115.399 18.7C114.887 19.2487 114.207 19.5237 113.362 19.5237C112.544 19.5237 111.894 19.261 111.41 18.7335C110.926 18.208 110.684 17.5447 110.684 16.7455C110.684 15.9095 110.933 15.2227 111.433 14.6906C111.934 14.1574 112.606 13.8903 113.452 13.8903C114.27 13.8903 114.925 14.153 115.423 14.6784C115.895 15.1904 116.132 15.8493 116.132 16.6564ZM114.848 16.6953C114.848 16.1966 114.738 15.7691 114.516 15.413C114.258 14.9823 113.888 14.7674 113.409 14.7674C112.911 14.7674 112.534 14.9823 112.274 15.413C112.053 15.7691 111.943 16.2033 111.943 16.7165C111.943 17.2152 112.054 17.6426 112.276 17.9988C112.543 18.4285 112.916 18.6444 113.397 18.6444C113.868 18.6444 114.238 18.4252 114.505 17.9877C114.734 17.6237 114.848 17.1939 114.848 16.6953ZM122.117 19.4002H121.007L120.915 18.7779H120.881C120.5 19.2744 119.959 19.5237 119.256 19.5237C118.731 19.5237 118.305 19.3591 117.986 19.0339C117.842 18.8878 117.73 18.7152 117.655 18.5265C117.58 18.3376 117.545 18.1365 117.551 17.9342C117.551 17.2742 117.834 16.7711 118.404 16.4236C118.972 16.0752 119.773 15.9051 120.803 15.9117V15.8116C120.803 15.1002 120.417 14.7452 119.647 14.7452C119.099 14.7452 118.615 14.8787 118.197 15.1459L117.946 14.3567C118.462 14.0461 119.101 13.8903 119.854 13.8903C121.307 13.8903 122.037 14.6361 122.037 16.1243V18.1123C122.037 18.6522 122.064 19.0819 122.117 19.4002ZM120.834 17.5447V16.712C119.469 16.6898 118.787 17.0527 118.787 17.8007C118.787 18.0823 118.865 18.2927 119.024 18.434C119.191 18.5765 119.407 18.6518 119.628 18.6444C119.9 18.6444 120.154 18.5609 120.385 18.395C120.526 18.2993 120.64 18.1718 120.718 18.0237C120.796 17.8755 120.836 17.7111 120.834 17.5447ZM129.144 19.4002H128.047L127.988 18.5331H127.955C127.604 19.1931 127.007 19.5237 126.168 19.5237C125.498 19.5237 124.939 19.2678 124.496 18.7556C124.055 18.2459 123.834 17.5826 123.834 16.7678C123.834 15.8939 124.073 15.1871 124.555 14.6461C125.02 14.1419 125.592 13.8892 126.272 13.8892C127.018 13.8892 127.541 14.1341 127.839 14.6227H127.862V11.5228H129.101V17.9454C129.101 18.4718 129.114 18.956 129.144 19.4002ZM127.862 17.1228V16.2233C127.874 16.0157 127.837 15.8079 127.754 15.6163C127.67 15.4247 127.542 15.2542 127.38 15.118C127.153 14.9226 126.858 14.8174 126.554 14.8231C126.093 14.8231 125.731 15.0012 125.465 15.3573C125.203 15.7135 125.07 16.1676 125.07 16.7231C125.07 17.2574 125.196 17.6905 125.449 18.0233C125.716 18.3794 126.078 18.5565 126.53 18.5565C126.935 18.5565 127.26 18.4083 127.508 18.1112C127.746 17.8346 127.872 17.4831 127.862 17.1228ZM139.72 16.6564C139.72 17.4867 139.476 18.1668 138.988 18.7C138.476 19.2487 137.799 19.5237 136.95 19.5237C136.135 19.5237 135.484 19.261 134.998 18.7335C134.514 18.208 134.272 17.5447 134.272 16.7455C134.272 15.9095 134.522 15.2227 135.022 14.6906C135.522 14.1574 136.195 13.8903 137.044 13.8903C137.859 13.8903 138.516 14.153 139.012 14.6784C139.484 15.1904 139.72 15.8493 139.72 16.6564ZM138.44 16.6953C138.44 16.1966 138.328 15.7691 138.108 15.413C137.847 14.9823 137.479 14.7674 136.997 14.7674C136.501 14.7674 136.124 14.9823 135.864 15.413C135.642 15.7691 135.531 16.2033 135.531 16.7165C135.531 17.2152 135.643 17.6426 135.864 17.9988C136.131 18.4285 136.504 18.6444 136.985 18.6444C137.458 18.6444 137.83 18.4252 138.095 17.9877C138.324 17.6237 138.44 17.1941 138.44 16.6953ZM146.37 19.4002H145.135V16.308C145.135 15.3551 144.761 14.8787 144.013 14.8787C143.843 14.8738 143.674 14.9066 143.52 14.9747C143.365 15.0428 143.228 15.1444 143.12 15.2716C142.891 15.5332 142.778 15.8427 142.778 16.1966V19.3991H141.539V15.5433C141.539 15.0702 141.525 14.5548 141.496 13.9983H142.581L142.639 14.8431H142.673C142.825 14.5753 143.046 14.3505 143.314 14.1908C143.65 13.9905 144.024 13.8881 144.436 13.8881C144.954 13.8881 145.386 14.0506 145.729 14.3767C146.158 14.7763 146.37 15.3729 146.37 16.1654V19.4002ZM154.692 14.8999H153.331V17.5224C153.331 18.1902 153.573 18.5231 154.052 18.5231C154.274 18.5231 154.458 18.5042 154.603 18.4674L154.635 19.3768C154.391 19.4659 154.07 19.5104 153.674 19.5104C153.185 19.5104 152.806 19.3668 152.531 19.0786C152.254 18.7891 152.118 18.3038 152.118 17.6226V14.8999H151.305V14.0005H152.118V13.011L153.33 12.6559V13.9994H154.691L154.692 14.8999ZM161.24 19.4002H160.001V16.3301C160.001 15.3618 159.628 14.8787 158.882 14.8787C158.309 14.8787 157.917 15.1592 157.702 15.7203C157.661 15.8606 157.642 16.0061 157.644 16.1521V19.3991H156.409V11.5228H157.644V14.7774H157.668C158.058 14.1853 158.615 13.8903 159.339 13.8903C159.852 13.8903 160.274 14.0528 160.611 14.3789C161.03 14.7852 161.24 15.3907 161.24 16.19V19.4002ZM167.993 16.4448C167.993 16.6609 167.977 16.8412 167.947 16.9892H164.239C164.255 17.5235 164.431 17.9298 164.776 18.2114C165.09 18.463 165.495 18.5898 165.99 18.5898C166.538 18.5898 167.038 18.5042 167.489 18.3339L167.683 19.1686C167.156 19.3902 166.535 19.5014 165.817 19.5014C164.954 19.5014 164.277 19.2544 163.786 18.7624C163.291 18.2693 163.047 17.6093 163.047 16.78C163.047 15.9651 163.275 15.2872 163.734 14.7463C164.214 14.1697 164.861 13.8803 165.679 13.8803C166.479 13.8803 167.088 14.1697 167.497 14.7463C167.829 15.2049 167.993 15.7715 167.993 16.4448ZM166.813 16.1343C166.83 15.8108 166.746 15.4897 166.573 15.2127C166.359 14.8787 166.032 14.7118 165.59 14.7118C165.185 14.7118 164.857 14.8743 164.606 15.2015C164.396 15.4731 164.269 15.7962 164.239 16.1343H166.813Z" fill="white"/>
</g>
</g>
</svg>
