<svg width="142" height="34" viewBox="0 0 142 34" fill="none" xmlns="http://www.w3.org/2000/svg">
<g clip-path="url(#clip0_460_73)">
<path d="M5.77778 0.5H136.222C139.146 0.5 141.5 2.8223 141.5 5.66667V28.3333C141.5 31.1777 139.146 33.5 136.222 33.5H5.77778C2.85374 33.5 0.5 31.1777 0.5 28.3333V5.66667C0.5 2.8223 2.85374 0.5 5.77778 0.5Z" fill="#121025" stroke="#575787"/>
<path d="M20.6146 16.4744C20.5929 14.1256 22.5754 12.9823 22.6664 12.9292C21.5433 11.3234 19.8028 11.1038 19.1911 11.0868C17.7293 10.936 16.3116 11.9439 15.5669 11.9439C14.8072 11.9439 13.6603 11.101 12.4246 11.1258C10.8342 11.1499 9.34644 12.0537 8.53033 13.4555C6.84611 16.3151 8.10206 20.5176 9.7155 22.8282C10.5229 23.9601 11.4654 25.2245 12.7004 25.1798C13.908 25.131 14.3587 24.4248 15.8161 24.4248C17.2606 24.4248 17.6838 25.1798 18.9433 25.1515C20.239 25.131 21.0551 24.0146 21.8337 22.8721C22.7668 21.5744 23.1409 20.2966 23.1561 20.2314C23.1257 20.2208 20.6398 19.2901 20.6146 16.4744ZM18.2363 9.56605C18.8863 8.76918 19.3304 7.68543 19.2069 6.58539C18.2666 6.62647 17.0908 7.22289 16.4141 8.00205C15.8147 8.68914 15.2802 9.81468 15.4174 10.8729C16.4741 10.9508 17.5581 10.3502 18.2363 9.56605ZM38.0916 25.0169H36.4038L35.4793 22.168H32.2654L31.3851 25.0169H29.742L32.9256 15.317H34.8922L38.0916 25.0169ZM35.2006 20.9723L34.3649 18.4393C34.2761 18.1808 34.1107 17.5716 33.8666 16.6118H33.8363C33.6881 17.223 33.5316 17.8323 33.3668 18.4393L32.5442 20.9723H35.2006ZM46.2794 21.4342C46.2794 22.6242 45.9516 23.5641 45.2958 24.2541C44.7086 24.8689 43.9799 25.1749 43.1096 25.1749C42.17 25.1749 41.4954 24.8448 41.0845 24.1832H41.0549V27.8673H39.4703V20.3256C39.4703 19.5776 39.4501 18.8098 39.4111 18.0228H40.805L40.8931 19.1314H40.9227C41.4514 18.2956 42.2531 17.8791 43.3292 17.8791C44.1706 17.8791 44.8733 18.2049 45.4352 18.8573C45.9985 19.5103 46.2794 20.3688 46.2794 21.4342ZM44.6646 21.4908C44.6646 20.8101 44.5086 20.2491 44.1951 19.8071C43.8528 19.3467 43.3927 19.1158 42.8157 19.1158C42.4249 19.1158 42.0696 19.2447 41.7526 19.4976C41.4348 19.7526 41.2261 20.0855 41.1286 20.4985C41.0851 20.6528 41.0604 20.8116 41.0549 20.9716V22.1383C41.0549 22.6468 41.2138 23.0761 41.5323 23.4274C41.8501 23.7773 42.2639 23.9523 42.7716 23.9523C43.3689 23.9523 43.8333 23.7263 44.1655 23.2758C44.4984 22.8246 44.6646 22.2303 44.6646 21.4908ZM54.4817 21.4342C54.4817 22.6242 54.1546 23.5641 53.4981 24.2541C52.9116 24.8689 52.1822 25.1749 51.3126 25.1749C50.373 25.1749 49.6977 24.8448 49.2875 24.1832H49.2586V27.8673H47.6733V20.3256C47.6728 19.5577 47.6533 18.7899 47.6148 18.0228H49.0087L49.0968 19.1314H49.1264C49.6537 18.2956 50.4561 17.8791 51.5329 17.8791C52.3736 17.8791 53.0756 18.2049 53.6389 18.8573C54.2001 19.5103 54.4817 20.3688 54.4817 21.4342ZM52.8675 21.4908C52.8675 20.8101 52.7108 20.2491 52.3974 19.8071C52.0551 19.3467 51.5957 19.1158 51.0187 19.1158C50.6272 19.1158 50.2726 19.2447 49.9541 19.4976C49.6363 19.7526 49.4291 20.0855 49.3316 20.4985C49.2885 20.6529 49.2638 20.8117 49.2579 20.9716V22.1383C49.2579 22.6468 49.4168 23.0761 49.7338 23.4274C50.0516 23.7766 50.4647 23.9523 50.9746 23.9523C51.5719 23.9523 52.0363 23.7263 52.3685 23.2758C52.7007 22.8246 52.8675 22.2303 52.8675 21.4908ZM63.6532 22.2969C63.6532 23.1221 63.3607 23.7936 62.7743 24.3114C62.1301 24.8781 61.233 25.1614 60.0804 25.1614C59.0166 25.1614 58.1629 24.9596 57.5172 24.5565L57.8841 23.261C58.5803 23.6739 59.343 23.8808 60.175 23.8808C60.7716 23.8808 61.2359 23.7483 61.5696 23.4841C61.9018 23.2206 62.0679 22.8664 62.0679 22.4244C62.0679 22.0306 61.9314 21.6991 61.657 21.4299C61.384 21.1608 60.9283 20.9114 60.2927 20.6805C58.5608 20.0466 57.6956 19.1186 57.6956 17.8989C57.6956 17.1013 57.9989 16.4475 58.6063 15.9389C59.2108 15.4289 60.0183 15.1746 61.0272 15.1746C61.9271 15.1746 62.6753 15.3291 63.2719 15.6351L62.8754 16.903C62.3186 16.6055 61.6881 16.4567 60.9824 16.4567C60.4256 16.4567 59.9901 16.5913 59.6781 16.8591C59.5514 16.9688 59.4503 17.1041 59.3819 17.2557C59.3135 17.4073 59.2793 17.5716 59.2816 17.7374C59.2816 18.1213 59.4326 18.4386 59.7359 18.6873C59.9995 18.9175 60.479 19.1668 61.1745 19.436C62.0253 19.7717 62.6508 20.1656 63.0523 20.6153C63.4532 21.0644 63.6532 21.6261 63.6532 22.2969ZM68.8915 19.1888H67.1452V22.5845C67.1452 23.4487 67.4528 23.8808 68.0696 23.8808C68.3527 23.8808 68.5874 23.856 68.7731 23.8078L68.8171 24.9879C68.5051 25.1026 68.0942 25.16 67.585 25.16C66.9595 25.16 66.4706 24.973 66.1174 24.599C65.7657 24.2236 65.5888 23.596 65.5888 22.7134V19.1873H64.5481V18.0214H65.5888V16.7408L67.1452 16.2803V18.0214H68.8915V19.1888ZM76.7717 21.4625C76.7717 22.5378 76.4582 23.4203 75.8321 24.1103C75.1763 24.8214 74.3053 25.1756 73.219 25.1756C72.1725 25.1756 71.3398 24.8356 70.7187 24.1542C70.0969 23.4735 69.7863 22.6143 69.7863 21.578C69.7863 20.4942 70.1063 19.6067 70.7476 18.9161C71.3875 18.2254 72.2506 17.8798 73.3368 17.8798C74.3833 17.8798 75.2254 18.2198 75.8602 18.9019C76.4683 19.5628 76.7717 20.4163 76.7717 21.4625ZM75.1279 21.5121C75.1279 20.8675 74.987 20.315 74.7025 19.8532C74.3703 19.295 73.8958 19.0159 73.2804 19.0159C72.6434 19.0159 72.1595 19.2957 71.8273 19.8532C71.5428 20.315 71.4019 20.8774 71.4019 21.5418C71.4019 22.1864 71.5428 22.7403 71.8273 23.2008C72.1697 23.7589 72.6485 24.0373 73.266 24.0373C73.8712 24.0373 74.3457 23.754 74.6888 23.1859C74.9806 22.7163 75.1279 22.1567 75.1279 21.5121ZM81.9218 19.3892C81.7571 19.3602 81.5901 19.3459 81.4228 19.3467C80.8652 19.3467 80.434 19.5521 80.1307 19.9658C79.8671 20.3306 79.7349 20.791 79.7349 21.3471V25.0169H78.1511L78.1656 20.2258C78.1677 19.4913 78.1479 18.7569 78.1063 18.0236H79.4865L79.5443 19.3623H79.5883C79.7552 18.9019 80.0195 18.5314 80.3806 18.2538C80.7113 18.0111 81.1131 17.8797 81.5261 17.8791C81.6719 17.8791 81.8041 17.8897 81.9218 17.9074V19.3892ZM89.0083 21.1891C89.0083 21.4675 88.9895 21.7019 88.9505 21.8939H84.1968C84.2156 22.5852 84.4453 23.1136 84.8866 23.4777C85.2874 23.8036 85.8052 23.9665 86.4415 23.9665C87.1449 23.9665 87.787 23.8567 88.3648 23.6357L88.6132 24.7145C87.9379 25.0035 87.1413 25.1466 86.2219 25.1466C85.1162 25.1466 84.2481 24.8278 83.6162 24.1903C82.9864 23.5528 82.6701 22.6957 82.6701 21.6212C82.6701 20.5665 82.964 19.6881 83.5519 18.9876C84.1672 18.2396 84.9985 17.8663 86.045 17.8663C87.0727 17.8663 87.8513 18.2396 88.3792 18.9876C88.7981 19.5819 89.0083 20.3164 89.0083 21.1891ZM87.4974 20.7861C87.5075 20.3256 87.4042 19.9276 87.1897 19.5911C86.9153 19.159 86.4942 18.9437 85.9273 18.9437C85.4087 18.9437 84.9877 19.1541 84.6656 19.5769C84.4019 19.9127 84.2452 20.3157 84.1968 20.7853L87.4974 20.7861ZM34.6769 9.35001C34.6769 10.2071 34.4148 10.8538 33.8912 11.2873C33.4058 11.6875 32.7161 11.888 31.8227 11.888C31.442 11.8911 31.0615 11.8722 30.6831 11.8313V7.14355C31.0969 7.07768 31.5425 7.04439 32.0249 7.04439C32.8757 7.04439 33.5171 7.22572 33.9497 7.58839C34.4336 7.99922 34.6769 8.58572 34.6769 9.35001ZM33.8558 9.37126C33.8558 8.81451 33.7056 8.3881 33.4058 8.0906C33.1054 7.79451 32.667 7.64576 32.0892 7.64576C31.8437 7.64576 31.6349 7.66135 31.4623 7.69535V11.2583C31.5577 11.2731 31.7332 11.2795 31.9881 11.2795C32.5847 11.2795 33.044 11.1173 33.3683 10.7922C33.6926 10.4671 33.8558 9.99389 33.8558 9.37126ZM39.0312 10.0994C39.0312 10.6278 38.8774 11.0606 38.5697 11.3999C38.2476 11.7491 37.8201 11.9241 37.2863 11.9241C36.7721 11.9241 36.3626 11.7569 36.0571 11.4212C35.7523 11.0868 35.5999 10.6647 35.5999 10.1561C35.5999 9.62414 35.7574 9.1871 36.0723 8.84851C36.3872 8.50922 36.8111 8.33922 37.3448 8.33922C37.8591 8.33922 38.2722 8.50639 38.5849 8.84072C38.8824 9.16655 39.0312 9.58589 39.0312 10.0994ZM38.2238 10.1242C38.2238 9.80689 38.1537 9.53489 38.0143 9.30822C37.8511 9.0341 37.6186 8.89739 37.3159 8.89739C37.0032 8.89739 36.7656 9.0341 36.6024 9.30822C36.4623 9.53489 36.3929 9.81114 36.3929 10.1377C36.3929 10.455 36.463 10.727 36.6024 10.9537C36.7707 11.2271 37.0054 11.3645 37.3087 11.3645C37.6063 11.3645 37.8396 11.225 38.0078 10.9466C38.1523 10.715 38.2238 10.4416 38.2238 10.1242ZM44.8697 8.40935L43.7741 11.8448H43.0605L42.6062 10.353C42.4931 9.98798 42.3991 9.61751 42.3246 9.24305H42.3101C42.2429 9.6193 42.1488 9.99044 42.0284 10.3537L41.5467 11.8455H40.8245L39.7939 8.41005H40.5941L40.9906 10.0428C41.0867 10.4288 41.1654 10.7971 41.2289 11.1456H41.2427C41.3004 10.8588 41.3965 10.4926 41.5316 10.0498L42.0292 8.41005H42.6633L43.1399 10.0151C43.2555 10.4068 43.3487 10.7837 43.4209 11.1463H43.4426C43.4953 10.7929 43.5747 10.4161 43.6802 10.0151L44.1056 8.41005L44.8697 8.40935ZM48.9076 11.8455H48.1283V9.87772C48.1283 9.27139 47.8936 8.96822 47.4227 8.96822C47.3157 8.96512 47.2094 8.98603 47.1119 9.02937C47.0144 9.0727 46.9283 9.13731 46.8601 9.21826C46.7164 9.38472 46.6434 9.58164 46.6434 9.80689V11.8448H45.8649V9.3911C45.8649 9.09006 45.8555 8.7621 45.8367 8.40793H46.5214L46.5575 8.94555H46.5792C46.6702 8.77839 46.8052 8.64097 46.9829 8.53047C47.1938 8.40297 47.4307 8.3378 47.6885 8.3378C48.0157 8.3378 48.2879 8.44122 48.5046 8.64876C48.7733 8.90305 48.9076 9.28272 48.9076 9.78706V11.8455ZM51.0555 11.8455H50.2777V6.8326H51.0555V11.8455ZM55.6409 10.0994C55.6409 10.6278 55.4871 11.0606 55.1794 11.3999C54.8566 11.7491 54.4283 11.9241 53.896 11.9241C53.3811 11.9241 52.9716 11.7569 52.6668 11.4212C52.362 11.0868 52.2096 10.6647 52.2096 10.1561C52.2096 9.62414 52.3663 9.1871 52.6812 8.84851C52.9968 8.50922 53.42 8.33922 53.953 8.33922C54.468 8.33922 54.8804 8.50639 55.1945 8.84072C55.4914 9.16655 55.6409 9.58589 55.6409 10.0994ZM54.832 10.1242C54.832 9.80689 54.7627 9.53489 54.6233 9.30822C54.4608 9.0341 54.2275 8.89739 53.9256 8.89739C53.6122 8.89739 53.3746 9.0341 53.2113 9.30822C53.0719 9.53489 53.0026 9.81114 53.0026 10.1377C53.0026 10.455 53.0727 10.727 53.2121 10.9537C53.3803 11.2271 53.6151 11.3645 53.9184 11.3645C54.2152 11.3645 54.4478 11.225 54.6161 10.9466C54.7605 10.715 54.8327 10.4408 54.8327 10.1235L54.832 10.1242ZM59.4102 11.8455H58.7111L58.6533 11.4495H58.6316C58.3918 11.7654 58.0509 11.9241 57.6082 11.9241C57.2774 11.9241 57.0095 11.8193 56.8087 11.6124C56.7181 11.5194 56.6471 11.4096 56.6 11.2895C56.5529 11.1693 56.5306 11.0413 56.5343 10.9126C56.5343 10.4926 56.7127 10.1724 57.0716 9.95139C57.4298 9.72968 57.9339 9.6213 58.5825 9.62555V9.5618C58.5825 9.10918 58.3398 8.88322 57.8545 8.88322C57.5093 8.88322 57.2045 8.96822 56.9416 9.13822L56.7834 8.63601C57.1084 8.43839 57.5107 8.33922 57.9852 8.33922C58.9003 8.33922 59.3596 8.8138 59.3596 9.76085V11.0259C59.3596 11.3695 59.3769 11.6429 59.4102 11.8455ZM58.602 10.6647V10.1348C57.7426 10.1207 57.3128 10.3516 57.3128 10.8276C57.3128 11.0068 57.3619 11.1407 57.4623 11.2306C57.5671 11.3213 57.7033 11.3692 57.8429 11.3645C58.0141 11.3645 58.1737 11.3114 58.3196 11.2058C58.408 11.1449 58.4799 11.0638 58.5291 10.9695C58.5783 10.8752 58.6033 10.7706 58.602 10.6647ZM63.8359 11.8455H63.1448L63.1079 11.2937H63.087C62.866 11.7137 62.4897 11.9241 61.9618 11.9241C61.5393 11.9241 61.1876 11.7612 60.9088 11.4353C60.6307 11.1109 60.4913 10.6888 60.4913 10.1703C60.4913 9.61422 60.6423 9.16443 60.9456 8.82018C61.2388 8.4993 61.5985 8.33851 62.0268 8.33851C62.4969 8.33851 62.8263 8.49435 63.0141 8.8053H63.0285V6.8326H63.8085V10.9197C63.8085 11.2547 63.8172 11.5628 63.8359 11.8455ZM63.0285 10.3962V9.82389C63.0362 9.6917 63.0129 9.55953 62.9603 9.43759C62.9077 9.31564 62.8272 9.20716 62.7252 9.12051C62.5817 8.99617 62.3959 8.92918 62.2044 8.9328C61.9141 8.9328 61.6866 9.04614 61.5191 9.2728C61.3537 9.49947 61.2699 9.78847 61.2699 10.1419C61.2699 10.4819 61.3493 10.7575 61.5089 10.9693C61.6772 11.1959 61.9047 11.3086 62.1893 11.3086C62.4449 11.3086 62.6493 11.2143 62.8053 11.0252C62.9553 10.8492 63.0347 10.6255 63.0285 10.3962ZM70.497 10.0994C70.497 10.6278 70.3432 11.0606 70.0355 11.3999C69.7134 11.7491 69.2866 11.9241 68.7521 11.9241C68.2386 11.9241 67.8291 11.7569 67.5229 11.4212C67.2181 11.0868 67.0657 10.6647 67.0657 10.1561C67.0657 9.62414 67.2232 9.1871 67.5381 8.84851C67.8529 8.50922 68.2769 8.33922 68.8113 8.33922C69.3248 8.33922 69.7387 8.50639 70.0507 8.84072C70.3482 9.16655 70.497 9.58589 70.497 10.0994ZM69.6903 10.1242C69.6903 9.80689 69.6202 9.53489 69.4816 9.30822C69.3169 9.0341 69.0851 8.89739 68.7817 8.89739C68.4697 8.89739 68.2321 9.0341 68.0682 9.30822C67.9281 9.53489 67.8587 9.81114 67.8587 10.1377C67.8587 10.455 67.9288 10.727 68.0682 10.9537C68.2364 11.2271 68.4712 11.3645 68.7745 11.3645C69.072 11.3645 69.3061 11.225 69.4736 10.9466C69.6173 10.715 69.6903 10.4416 69.6903 10.1242ZM74.6852 11.8455H73.9073V9.87772C73.9073 9.27139 73.6719 8.96822 73.2003 8.96822C73.0934 8.96507 72.9871 8.98596 72.8897 9.0293C72.7924 9.07265 72.7064 9.13728 72.6384 9.21826C72.4939 9.38472 72.4224 9.58164 72.4224 9.80689V11.8448H71.6424V9.3911C71.6424 9.09006 71.6338 8.7621 71.615 8.40793H72.2989L72.3351 8.94555H72.3567C72.4522 8.77514 72.5914 8.63208 72.7604 8.53047C72.972 8.40297 73.2075 8.3378 73.4668 8.3378C73.7932 8.3378 74.0655 8.44122 74.2814 8.64876C74.5516 8.90305 74.6852 9.28272 74.6852 9.78706V11.8455ZM79.9263 8.98168H79.069V10.6505C79.069 11.0755 79.2214 11.2873 79.5233 11.2873C79.6627 11.2873 79.779 11.2753 79.87 11.2519L79.8902 11.8306C79.7364 11.8873 79.5342 11.9156 79.285 11.9156C78.9773 11.9156 78.7383 11.8242 78.5649 11.6408C78.3909 11.4566 78.3049 11.1478 78.3049 10.7143V8.98168H77.7929V8.40935H78.3049V7.77964L79.0683 7.55368V8.40864H79.9256L79.9263 8.98168ZM84.0502 11.8455H83.2702V9.89189C83.2702 9.27564 83.0355 8.96822 82.5653 8.96822C82.2042 8.96822 81.9572 9.14672 81.8222 9.50372C81.7963 9.59309 81.7839 9.68568 81.7853 9.77855V11.8448H81.0075V6.8326H81.7853V8.90376H81.8005C82.046 8.52693 82.397 8.33922 82.8528 8.33922C83.1756 8.33922 83.4421 8.44264 83.6537 8.65018C83.9181 8.90872 84.0502 9.29405 84.0502 9.80264V11.8455ZM88.3034 9.96485C88.3034 10.1023 88.2933 10.217 88.2745 10.3112H85.9388C85.9489 10.6512 86.0602 10.9098 86.2768 11.089C86.4747 11.2491 86.7297 11.3298 87.0417 11.3298C87.3869 11.3298 87.7025 11.2753 87.9863 11.1669L88.1077 11.6981C87.7762 11.8391 87.3847 11.9099 86.9326 11.9099C86.3895 11.9099 85.9627 11.7527 85.6535 11.4396C85.3423 11.1258 85.1884 10.7058 85.1884 10.1781C85.1884 9.65956 85.3322 9.22818 85.6211 8.88393C85.9229 8.51701 86.331 8.33285 86.8459 8.33285C87.3501 8.33285 87.7328 8.51701 87.9914 8.88393C88.2001 9.17576 88.3034 9.5363 88.3034 9.96485ZM87.5602 9.76722C87.5708 9.56131 87.5183 9.35701 87.4093 9.18072C87.2742 8.96822 87.0684 8.86197 86.7896 8.86197C86.5354 8.86197 86.3281 8.96539 86.1699 9.17364C86.0379 9.34646 85.9579 9.55208 85.9388 9.76722H87.5602Z" fill="white"/>
<path d="M107.92 11.2188H106.676C106.653 11.0578 106.607 10.9148 106.537 10.7898C106.467 10.6629 106.377 10.5549 106.267 10.4659C106.157 10.3769 106.03 10.3087 105.886 10.2614C105.744 10.214 105.59 10.1903 105.423 10.1903C105.122 10.1903 104.86 10.2652 104.636 10.4148C104.413 10.5625 104.24 10.7784 104.116 11.0625C103.993 11.3447 103.932 11.6875 103.932 12.0909C103.932 12.5057 103.993 12.8542 104.116 13.1364C104.241 13.4186 104.416 13.6316 104.639 13.7756C104.863 13.9195 105.121 13.9915 105.415 13.9915C105.58 13.9915 105.732 13.9697 105.872 13.9261C106.014 13.8826 106.14 13.8191 106.25 13.7358C106.36 13.6506 106.451 13.5473 106.523 13.4261C106.597 13.3049 106.648 13.1667 106.676 13.0114L107.92 13.017C107.888 13.2841 107.808 13.5417 107.679 13.7898C107.552 14.036 107.381 14.2566 107.165 14.4517C106.951 14.6449 106.695 14.7983 106.398 14.9119C106.102 15.0237 105.768 15.0795 105.395 15.0795C104.876 15.0795 104.412 14.9621 104.003 14.7273C103.596 14.4924 103.274 14.1525 103.037 13.7074C102.802 13.2623 102.685 12.7235 102.685 12.0909C102.685 11.4564 102.804 10.9167 103.043 10.4716C103.281 10.0265 103.605 9.6875 104.014 9.45455C104.423 9.2197 104.884 9.10227 105.395 9.10227C105.732 9.10227 106.045 9.14962 106.332 9.24432C106.622 9.33902 106.879 9.47727 107.102 9.65909C107.326 9.83901 107.508 10.0597 107.648 10.321C107.79 10.5824 107.881 10.8816 107.92 11.2188ZM110.751 15.0852C110.31 15.0852 109.929 14.9915 109.607 14.804C109.286 14.6146 109.039 14.3513 108.865 14.0142C108.691 13.6752 108.604 13.2822 108.604 12.8352C108.604 12.3845 108.691 11.9905 108.865 11.6534C109.039 11.3144 109.286 11.0511 109.607 10.8636C109.929 10.6742 110.31 10.5795 110.751 10.5795C111.193 10.5795 111.573 10.6742 111.893 10.8636C112.215 11.0511 112.464 11.3144 112.638 11.6534C112.812 11.9905 112.899 12.3845 112.899 12.8352C112.899 13.2822 112.812 13.6752 112.638 14.0142C112.464 14.3513 112.215 14.6146 111.893 14.804C111.573 14.9915 111.193 15.0852 110.751 15.0852ZM110.757 14.1477C110.958 14.1477 111.125 14.0909 111.26 13.9773C111.394 13.8617 111.496 13.7045 111.564 13.5057C111.634 13.3068 111.669 13.0805 111.669 12.8267C111.669 12.5729 111.634 12.3466 111.564 12.1477C111.496 11.9489 111.394 11.7917 111.26 11.6761C111.125 11.5606 110.958 11.5028 110.757 11.5028C110.554 11.5028 110.384 11.5606 110.246 11.6761C110.109 11.7917 110.006 11.9489 109.936 12.1477C109.868 12.3466 109.834 12.5729 109.834 12.8267C109.834 13.0805 109.868 13.3068 109.936 13.5057C110.006 13.7045 110.109 13.8617 110.246 13.9773C110.384 14.0909 110.554 14.1477 110.757 14.1477ZM113.686 15V10.6364H114.839V11.4062H114.891C114.982 11.1506 115.133 10.9489 115.345 10.8011C115.557 10.6534 115.811 10.5795 116.107 10.5795C116.406 10.5795 116.661 10.6544 116.871 10.804C117.081 10.9517 117.221 11.1525 117.291 11.4062H117.337C117.426 11.1562 117.587 10.9564 117.82 10.8068C118.054 10.6553 118.332 10.5795 118.652 10.5795C119.059 10.5795 119.39 10.7093 119.643 10.9688C119.899 11.2263 120.027 11.5919 120.027 12.0653V15H118.82V12.304C118.82 12.0616 118.755 11.8797 118.626 11.7585C118.498 11.6373 118.337 11.5767 118.143 11.5767C117.924 11.5767 117.752 11.6468 117.629 11.7869C117.506 11.9252 117.445 12.108 117.445 12.3352V15H116.271V12.2784C116.271 12.0644 116.21 11.8939 116.087 11.767C115.965 11.6402 115.805 11.5767 115.607 11.5767C115.472 11.5767 115.351 11.6108 115.243 11.679C115.137 11.7453 115.053 11.839 114.99 11.9602C114.928 12.0795 114.896 12.2197 114.896 12.3807V15H113.686ZM120.983 15V10.6364H122.193V15H120.983ZM121.591 10.0739C121.411 10.0739 121.257 10.0142 121.128 9.89489C121.001 9.77367 120.938 9.62879 120.938 9.46023C120.938 9.29356 121.001 9.15057 121.128 9.03125C121.257 8.91004 121.411 8.84943 121.591 8.84943C121.771 8.84943 121.924 8.91004 122.051 9.03125C122.18 9.15057 122.244 9.29356 122.244 9.46023C122.244 9.62879 122.18 9.77367 122.051 9.89489C121.924 10.0142 121.771 10.0739 121.591 10.0739ZM124.373 12.4773V15H123.163V10.6364H124.316V11.4062H124.367C124.464 11.1525 124.626 10.9517 124.853 10.804C125.08 10.6544 125.356 10.5795 125.68 10.5795C125.983 10.5795 126.247 10.6458 126.472 10.7784C126.698 10.911 126.873 11.1004 126.998 11.3466C127.123 11.5909 127.185 11.8826 127.185 12.2216V15H125.975V12.4375C125.977 12.1705 125.909 11.9621 125.771 11.8125C125.632 11.661 125.442 11.5852 125.2 11.5852C125.037 11.5852 124.893 11.6203 124.768 11.6903C124.645 11.7604 124.548 11.8627 124.478 11.9972C124.41 12.1297 124.375 12.2898 124.373 12.4773ZM130.105 16.7273C129.713 16.7273 129.377 16.6733 129.097 16.5653C128.818 16.4593 128.597 16.3144 128.432 16.1307C128.267 15.947 128.16 15.7405 128.111 15.5114L129.23 15.3608C129.264 15.4479 129.318 15.5294 129.392 15.6051C129.466 15.6809 129.563 15.7415 129.685 15.7869C129.808 15.8343 129.957 15.858 130.134 15.858C130.397 15.858 130.614 15.7936 130.784 15.6648C130.956 15.5379 131.043 15.3248 131.043 15.0256V14.2273H130.991C130.938 14.3485 130.859 14.4631 130.753 14.571C130.647 14.679 130.51 14.767 130.344 14.8352C130.177 14.9034 129.978 14.9375 129.747 14.9375C129.42 14.9375 129.121 14.8617 128.852 14.7102C128.585 14.5568 128.372 14.3229 128.213 14.0085C128.056 13.6922 127.977 13.2926 127.977 12.8097C127.977 12.3153 128.058 11.9025 128.219 11.571C128.38 11.2396 128.594 10.9915 128.861 10.8267C129.13 10.6619 129.424 10.5795 129.744 10.5795C129.989 10.5795 130.193 10.6212 130.358 10.7045C130.523 10.786 130.655 10.8883 130.756 11.0114C130.858 11.1326 130.937 11.2519 130.991 11.3693H131.037V10.6364H132.239V15.0426C132.239 15.4138 132.148 15.7244 131.966 15.9744C131.784 16.2244 131.532 16.4119 131.21 16.5369C130.89 16.6638 130.522 16.7273 130.105 16.7273ZM130.131 14.0284C130.326 14.0284 130.491 13.9801 130.625 13.8835C130.761 13.785 130.866 13.6449 130.938 13.4631C131.011 13.2794 131.048 13.0597 131.048 12.804C131.048 12.5483 131.012 12.3267 130.94 12.1392C130.868 11.9498 130.764 11.803 130.628 11.6989C130.491 11.5947 130.326 11.5426 130.131 11.5426C129.932 11.5426 129.764 11.5966 129.628 11.7045C129.491 11.8106 129.388 11.9583 129.318 12.1477C129.248 12.3371 129.213 12.5559 129.213 12.804C129.213 13.0559 129.248 13.2737 129.318 13.4574C129.39 13.6392 129.493 13.7803 129.628 13.8807C129.764 13.9792 129.932 14.0284 130.131 14.0284ZM112.072 20.8551C112.049 20.6259 111.952 20.4479 111.779 20.321C111.607 20.1941 111.373 20.1307 111.078 20.1307C110.877 20.1307 110.708 20.1591 110.569 20.2159C110.431 20.2708 110.325 20.3475 110.251 20.446C110.179 20.5445 110.143 20.6562 110.143 20.7812C110.139 20.8854 110.161 20.9763 110.208 21.054C110.258 21.1316 110.325 21.1989 110.41 21.2557C110.495 21.3106 110.594 21.3589 110.706 21.4006C110.817 21.4403 110.937 21.4744 111.064 21.5028L111.586 21.6278C111.84 21.6847 112.073 21.7604 112.285 21.8551C112.497 21.9498 112.681 22.0663 112.836 22.2045C112.992 22.3428 113.112 22.5057 113.197 22.6932C113.284 22.8807 113.329 23.0956 113.331 23.3381C113.329 23.6941 113.238 24.0028 113.058 24.2642C112.88 24.5237 112.622 24.7254 112.285 24.8693C111.95 25.0114 111.546 25.0824 111.072 25.0824C110.602 25.0824 110.193 25.0104 109.845 24.8665C109.498 24.7225 109.227 24.5095 109.032 24.2273C108.839 23.9432 108.738 23.5919 108.728 23.1733H109.919C109.932 23.3684 109.988 23.5312 110.086 23.6619C110.187 23.7907 110.32 23.8883 110.487 23.9545C110.655 24.0189 110.846 24.0511 111.058 24.0511C111.266 24.0511 111.447 24.0208 111.6 23.9602C111.756 23.8996 111.876 23.8153 111.961 23.7074C112.047 23.5994 112.089 23.4754 112.089 23.3352C112.089 23.2045 112.05 23.0947 111.973 23.0057C111.897 22.9167 111.785 22.8409 111.637 22.7784C111.492 22.7159 111.313 22.6591 111.1 22.608L110.467 22.4489C109.976 22.3295 109.589 22.143 109.305 21.8892C109.021 21.6354 108.88 21.2936 108.882 20.8636C108.88 20.5114 108.974 20.2036 109.163 19.9403C109.354 19.6771 109.617 19.4716 109.95 19.3239C110.283 19.1761 110.662 19.1023 111.086 19.1023C111.518 19.1023 111.895 19.1761 112.217 19.3239C112.541 19.4716 112.793 19.6771 112.973 19.9403C113.153 20.2036 113.245 20.5085 113.251 20.8551H112.072ZM116.107 25.0852C115.666 25.0852 115.284 24.9915 114.962 24.804C114.642 24.6146 114.395 24.3513 114.221 24.0142C114.046 23.6752 113.959 23.2822 113.959 22.8352C113.959 22.3845 114.046 21.9905 114.221 21.6534C114.395 21.3144 114.642 21.0511 114.962 20.8636C115.284 20.6742 115.666 20.5795 116.107 20.5795C116.548 20.5795 116.929 20.6742 117.249 20.8636C117.571 21.0511 117.819 21.3144 117.993 21.6534C118.167 21.9905 118.255 22.3845 118.255 22.8352C118.255 23.2822 118.167 23.6752 117.993 24.0142C117.819 24.3513 117.571 24.6146 117.249 24.804C116.929 24.9915 116.548 25.0852 116.107 25.0852ZM116.113 24.1477C116.313 24.1477 116.481 24.0909 116.615 23.9773C116.75 23.8617 116.851 23.7045 116.919 23.5057C116.989 23.3068 117.025 23.0805 117.025 22.8267C117.025 22.5729 116.989 22.3466 116.919 22.1477C116.851 21.9489 116.75 21.7917 116.615 21.6761C116.481 21.5606 116.313 21.5028 116.113 21.5028C115.91 21.5028 115.739 21.5606 115.601 21.6761C115.465 21.7917 115.362 21.9489 115.292 22.1477C115.223 22.3466 115.189 22.5729 115.189 22.8267C115.189 23.0805 115.223 23.3068 115.292 23.5057C115.362 23.7045 115.465 23.8617 115.601 23.9773C115.739 24.0909 115.91 24.1477 116.113 24.1477ZM121.013 25.0852C120.572 25.0852 120.19 24.9915 119.868 24.804C119.548 24.6146 119.301 24.3513 119.127 24.0142C118.953 23.6752 118.865 23.2822 118.865 22.8352C118.865 22.3845 118.953 21.9905 119.127 21.6534C119.301 21.3144 119.548 21.0511 119.868 20.8636C120.19 20.6742 120.572 20.5795 121.013 20.5795C121.454 20.5795 121.835 20.6742 122.155 20.8636C122.477 21.0511 122.725 21.3144 122.9 21.6534C123.074 21.9905 123.161 22.3845 123.161 22.8352C123.161 23.2822 123.074 23.6752 122.9 24.0142C122.725 24.3513 122.477 24.6146 122.155 24.804C121.835 24.9915 121.454 25.0852 121.013 25.0852ZM121.019 24.1477C121.22 24.1477 121.387 24.0909 121.522 23.9773C121.656 23.8617 121.757 23.7045 121.826 23.5057C121.896 23.3068 121.931 23.0805 121.931 22.8267C121.931 22.5729 121.896 22.3466 121.826 22.1477C121.757 21.9489 121.656 21.7917 121.522 21.6761C121.387 21.5606 121.22 21.5028 121.019 21.5028C120.816 21.5028 120.646 21.5606 120.507 21.6761C120.371 21.7917 120.268 21.9489 120.198 22.1477C120.13 22.3466 120.096 22.5729 120.096 22.8267C120.096 23.0805 120.13 23.3068 120.198 23.5057C120.268 23.7045 120.371 23.8617 120.507 23.9773C120.646 24.0909 120.816 24.1477 121.019 24.1477ZM125.158 22.4773V25H123.948V20.6364H125.101V21.4062H125.152C125.249 21.1525 125.411 20.9517 125.638 20.804C125.865 20.6544 126.141 20.5795 126.465 20.5795C126.768 20.5795 127.032 20.6458 127.257 20.7784C127.483 20.911 127.658 21.1004 127.783 21.3466C127.908 21.5909 127.971 21.8826 127.971 22.2216V25H126.76V22.4375C126.762 22.1705 126.694 21.9621 126.556 21.8125C126.417 21.661 126.227 21.5852 125.985 21.5852C125.822 21.5852 125.678 21.6203 125.553 21.6903C125.43 21.7604 125.333 21.8627 125.263 21.9972C125.195 22.1297 125.16 22.2898 125.158 22.4773Z" fill="#F2FCB4"/>
<line x1="96.5" y1="9" x2="96.5" y2="27" stroke="#FFF1F0"/>
</g>
<defs>
<clipPath id="clip0_460_73">
<rect width="142" height="34" fill="white"/>
</clipPath>
</defs>
</svg>
