<svg width="55" height="55" viewBox="0 0 55 55" fill="none" xmlns="http://www.w3.org/2000/svg">
<path d="M30.66 34.51C30.27 34.12 29.64 34.12 29.25 34.51L25.17 38.59C24.66 39.1 22.05 38.39 19.34 35.68C16.63 32.97 15.91 30.36 16.43 29.85L20.51 25.77C20.7 25.58 20.8 25.33 20.8 25.06C20.8 24.79 20.69 24.54 20.51 24.35L8.71997 12.58C8.32997 12.19 7.69997 12.19 7.30997 12.58L4.26997 15.62C2.04997 17.84 1.91997 21.79 3.89997 26.73C5.77997 31.39 9.33997 36.49 13.93 41.08C21.14 48.29 29.06 52.49 34.53 52.49C36.53 52.49 38.21 51.93 39.4 50.74L42.44 47.7C42.63 47.51 42.73 47.26 42.73 46.99C42.73 46.72 42.62 46.47 42.44 46.28L30.66 34.51ZM37.98 49.32C34.85 52.45 25 49.32 15.34 39.66C10.93 35.25 7.52997 30.39 5.74997 25.98C4.10997 21.89 4.08997 18.62 5.67997 17.03L8.00997 14.7L18.37 25.06L15 28.43C13.13 30.3 15.11 34.29 17.91 37.09C20.72 39.9 24.7 41.87 26.57 40L29.94 36.63L40.3 46.99L37.98 49.32ZM26.95 2.51001C26.4 2.51001 25.95 2.96001 25.95 3.51001C25.95 4.06001 26.4 4.51001 26.95 4.51001C39.93 4.51001 50.5 15.07 50.5 28.06C50.5 28.61 50.95 29.06 51.5 29.06C52.05 29.06 52.5 28.61 52.5 28.06C52.5 13.97 41.04 2.51001 26.95 2.51001Z" fill="#39EF9E"/>
<path d="M26.95 9.51999C26.4 9.51999 25.95 9.96999 25.95 10.52C25.95 11.07 26.4 11.52 26.95 11.52C36.07 11.52 43.4799 18.94 43.4799 28.05C43.4799 28.6 43.93 29.05 44.4799 29.05C45.0299 29.05 45.4799 28.6 45.4799 28.05C45.49 17.84 37.17 9.51999 26.95 9.51999Z" fill="#39EF9E"/>
<path d="M36.47 28.05C36.47 28.6 36.92 29.05 37.47 29.05C38.02 29.05 38.47 28.6 38.47 28.05C38.47 21.7 33.3 16.53 26.95 16.53C26.4 16.53 25.95 16.98 25.95 17.53C25.95 18.08 26.4 18.53 26.95 18.53C32.2 18.54 36.47 22.81 36.47 28.05Z" fill="#39EF9E"/>
</svg>
