<svg width="57" height="57" viewBox="0 0 57 57" fill="none" xmlns="http://www.w3.org/2000/svg">
<path d="M47.5772 47.0428H9.42285C7.53318 47.0428 5.72091 46.2921 4.38472 44.9559C3.04852 43.6197 2.29785 41.8075 2.29785 39.9178V17.0822C2.29785 15.1925 3.04852 13.3802 4.38472 12.044C5.72091 10.7079 7.53318 9.95718 9.42285 9.95718H47.5772C49.4669 9.95718 51.2792 10.7079 52.6154 12.044C53.9516 13.3802 54.7022 15.1925 54.7022 17.0822V39.9178C54.7022 41.8075 53.9516 43.6197 52.6154 44.9559C51.2792 46.2921 49.4669 47.0428 47.5772 47.0428ZM9.42285 11.7384C8.0056 11.7384 6.6464 12.3014 5.64425 13.3036C4.6421 14.3057 4.0791 15.6649 4.0791 17.0822V39.9178C4.0791 41.3351 4.6421 42.6943 5.64425 43.6964C6.6464 44.6986 8.0056 45.2616 9.42285 45.2616H47.5772C48.9945 45.2616 50.3537 44.6986 51.3558 43.6964C52.358 42.6943 52.921 41.3351 52.921 39.9178V17.0822C52.921 15.6649 52.358 14.3057 51.3558 13.3036C50.3537 12.3014 48.9945 11.7384 47.5772 11.7384H9.42285Z" fill="#39EF9E"/>
<path d="M28.5001 33.4697C26.9544 33.4787 25.4477 32.9848 24.2073 32.0625L3.40226 16.3073C3.29013 16.2465 3.19237 16.1623 3.1156 16.0604C3.03883 15.9586 2.98484 15.8414 2.9573 15.7168C2.92975 15.5923 2.92928 15.4632 2.95592 15.3385C2.98256 15.2137 3.03569 15.0961 3.11171 14.9937C3.18774 14.8913 3.28488 14.8064 3.39657 14.7447C3.50826 14.6831 3.63189 14.6462 3.75908 14.6364C3.88628 14.6267 4.01408 14.6444 4.13384 14.6884C4.25359 14.7324 4.3625 14.8015 4.4532 14.8913L25.276 30.6108C26.2042 31.313 27.3362 31.693 28.5001 31.693C29.6639 31.693 30.796 31.313 31.7241 30.6108L52.5469 14.8913C52.6393 14.8143 52.7464 14.7568 52.8616 14.7223C52.9768 14.6878 53.0978 14.677 53.2173 14.6905C53.3368 14.7041 53.4524 14.7417 53.5569 14.8011C53.6615 14.8605 53.753 14.9404 53.8258 15.0361C53.8986 15.1318 53.9513 15.2413 53.9807 15.3579C54.0101 15.4746 54.0155 15.5959 53.9967 15.7147C53.9779 15.8335 53.9353 15.9473 53.8713 16.0491C53.8074 16.151 53.7234 16.2388 53.6246 16.3073L32.7929 32.0625C31.5525 32.9848 30.0458 33.4787 28.5001 33.4697Z" fill="#39EF9E"/>
<path d="M3.71395 43.32C3.53514 43.3178 3.36114 43.2618 3.21461 43.1593C3.06807 43.0568 2.95579 42.9125 2.89237 42.7453C2.82894 42.5781 2.81732 42.3957 2.85902 42.2218C2.90071 42.0479 2.99379 41.8906 3.12613 41.7703L19.5047 27.1552C19.6831 26.9981 19.9165 26.9183 20.1537 26.9333C20.3908 26.9483 20.6123 27.057 20.7694 27.2353C20.9265 27.4137 21.0063 27.6471 20.9913 27.8843C20.9762 28.1214 20.8676 28.3429 20.6893 28.5L4.31067 43.0973C4.146 43.2426 3.9335 43.3219 3.71395 43.32ZM53.2861 43.32C53.0666 43.3219 52.8541 43.2426 52.6894 43.0973L36.3108 28.5C36.2165 28.4243 36.1386 28.3303 36.0819 28.2235C36.0251 28.1168 35.9907 27.9996 35.9807 27.8791C35.9707 27.7587 35.9853 27.6374 36.0236 27.5228C36.062 27.4081 36.1233 27.3025 36.2038 27.2123C36.2843 27.1221 36.3823 27.0493 36.4919 26.9982C36.6015 26.9471 36.7203 26.9189 36.8411 26.9152C36.962 26.9115 37.0823 26.9325 37.1948 26.9768C37.3072 27.0211 37.4095 27.0879 37.4953 27.173L53.8739 41.7703C54.0496 41.9276 54.1558 42.1481 54.1691 42.3835C54.1825 42.6189 54.102 42.85 53.9452 43.0261C53.8619 43.1184 53.7603 43.1922 53.6468 43.2428C53.5333 43.2934 53.4104 43.3197 53.2861 43.32Z" fill="#39EF9E"/>
</svg>
