<svg width="56" height="56" viewBox="0 0 56 56" fill="none" xmlns="http://www.w3.org/2000/svg">
<path d="M49 24.5H31.5C29.5671 24.5 28 26.0671 28 28V50.75C28 52.6829 29.5671 54.25 31.5 54.25H49C50.9329 54.25 52.5 52.6829 52.5 50.75V28C52.5 26.0671 50.9329 24.5 49 24.5ZM49 35H31.5V28H49V35Z" fill="#FFF1F0"/>
<path d="M30.625 28V35C30.625 35.4839 31.017 35.875 31.5 35.875H49C49.483 35.875 49.875 35.4839 49.875 35V28C49.875 27.517 49.483 27.125 49 27.125H31.5C31.017 27.125 30.625 27.517 30.625 28ZM32.375 28.875H48.125V34.125H32.375V28.875Z" fill="#1A1A1A"/>
<path d="M33.25 38.5V40.25H31.5V42H33.25V43.75H35V42H36.75V40.25H35V38.5H33.25Z" fill="#1A1A1A"/>
<path d="M36.75 49H31.5V50.75H36.75V49Z" fill="#1A1A1A"/>
<path d="M44.3686 43.4936L45.9375 41.9247L47.5063 43.4936L48.7436 42.2563L47.1747 40.6875L48.7436 39.1195L47.5063 37.8822L45.9375 39.4502L44.3686 37.8813L43.1313 39.1186L44.7002 40.6875L43.1313 42.2563L44.3686 43.4936Z" fill="#1A1A1A"/>
<path d="M49 47.25H43.75V49H49V47.25Z" fill="#1A1A1A"/>
<path d="M49 49.875H43.75V51.625H49V49.875Z" fill="#1A1A1A"/>
<path d="M41.125 37.625H39.375V44.625H31.5V46.375H39.375V51.625H41.125V46.375H49V44.625H41.125V37.625Z" fill="#1A1A1A"/>
<path d="M3.0739 41.6614C4.04515 46.7337 10.2953 55.125 15.5864 55.125H31.5H49C51.4124 55.125 53.375 53.1624 53.375 50.75V28C53.375 25.5876 51.4124 23.625 49 23.625H46.8484C45.5875 21.6239 44.1753 19.9273 42.5277 18.4774L37.6425 14.1794C38.1649 13.699 38.5 13.0156 38.5 12.25C38.5 11.046 37.681 10.0397 36.5742 9.73175L39.8615 4.85887C40.3612 4.04862 40.3821 3.06862 39.9184 2.23737C39.4485 1.39737 38.5508 0.875 37.5752 0.875H15.7999C14.8523 0.875 13.9957 1.35187 13.5083 2.15075C13.034 2.92775 12.999 3.8745 13.4199 4.69437L16.0755 9.68538C14.8917 9.93825 14 10.9909 14 12.25C14 13.2283 14.5443 14.0735 15.3405 14.525L10.8483 18.4774C4.40128 24.15 1.4219 33.033 3.0739 41.6614ZM51.625 28V50.75C51.625 52.1973 50.4473 53.375 49 53.375H31.5C30.0528 53.375 28.875 52.1973 28.875 50.75V28C28.875 26.5527 30.0528 25.375 31.5 25.375H49C50.4473 25.375 51.625 26.5527 51.625 28ZM15.0019 3.0625C15.1682 2.78863 15.4665 2.625 15.7999 2.625H37.5752C37.9225 2.625 38.227 2.79913 38.3907 3.09137C38.4633 3.22087 38.605 3.56212 38.3907 3.91125L34.5345 9.625H18.0259L14.9713 3.88325C14.777 3.50525 14.9275 3.18325 15.0019 3.0625ZM16.625 11.375H35.875C36.3572 11.375 36.75 11.7679 36.75 12.25C36.75 12.7321 36.3572 13.125 35.875 13.125H16.625C16.1429 13.125 15.75 12.7321 15.75 12.25C15.75 11.7679 16.1429 11.375 16.625 11.375ZM12.0042 19.7916L17.5928 14.875H35.7832L41.3709 19.7916C42.6318 20.9011 43.7474 22.1672 44.7598 23.625H31.5C29.0877 23.625 27.125 25.5876 27.125 28V50.75C27.125 51.7387 27.4672 52.6418 28.0228 53.375H15.5864C11.2928 53.375 5.63853 45.7555 4.7924 41.3315C3.25678 33.3095 6.02003 25.0565 12.0042 19.7916Z" fill="#1A1A1A"/>
<path d="M22.75 39.375C21.7849 39.375 21 38.5901 21 37.625H19.25C19.25 39.2516 20.37 40.6096 21.875 41.0008V42H23.625V41.0008C25.13 40.6096 26.25 39.2516 26.25 37.625C26.25 35.6947 24.6803 34.125 22.75 34.125C21.7849 34.125 21 33.3401 21 32.375C21 31.4099 21.7849 30.625 22.75 30.625C23.7151 30.625 24.5 31.4099 24.5 32.375H26.25C26.25 30.7484 25.13 29.3904 23.625 28.9992V28H21.875V28.9992C20.37 29.3904 19.25 30.7484 19.25 32.375C19.25 34.3053 20.8197 35.875 22.75 35.875C23.7151 35.875 24.5 36.6599 24.5 37.625C24.5 38.5901 23.7151 39.375 22.75 39.375ZM14.875 39.375C13.9099 39.375 13.125 38.5901 13.125 37.625H11.375C11.375 39.2516 12.495 40.6096 14 41.0008V42H15.75V41.0008C17.255 40.6096 18.375 39.2516 18.375 37.625C18.375 35.6947 16.8053 34.125 14.875 34.125C13.9099 34.125 13.125 33.3401 13.125 32.375C13.125 31.4099 13.9099 30.625 14.875 30.625C15.8401 30.625 16.625 31.4099 16.625 32.375H18.375C18.375 30.7484 17.255 29.3904 15.75 28.9992V28H14V28.9992C12.495 29.3904 11.375 30.7484 11.375 32.375C11.375 34.3053 12.9447 35.875 14.875 35.875C15.8401 35.875 16.625 36.6599 16.625 37.625C16.625 38.5901 15.8401 39.375 14.875 39.375Z" fill="#1A1A1A"/>
</svg>
