<svg width="55" height="55" viewBox="0 0 55 55" fill="none" xmlns="http://www.w3.org/2000/svg">
<path d="M42.9688 22.3266C48.6642 22.3266 53.2812 17.7095 53.2812 12.0141C53.2812 6.31863 48.6642 1.70157 42.9688 1.70157C37.2733 1.70157 32.6562 6.31863 32.6562 12.0141C32.6562 17.7095 37.2733 22.3266 42.9688 22.3266Z" fill="#FFF1F0"/>
<path d="M25.7812 33.4984H22.3438V46.3891H25.7812V33.4984Z" fill="#FFF1F0"/>
<path d="M32.6562 30.9203H29.2188V46.3891H32.6562V30.9203Z" fill="#FFF1F0"/>
<path d="M49.5215 45.7351L48.4482 47.0774L50.8312 48.9844H6.01565V4.16883L7.92261 6.55273L9.26495 5.47852L5.82745 1.18164C5.50175 0.773437 4.81081 0.773437 4.48511 1.18164L1.04761 5.47852L2.38995 6.55273L4.2969 4.16883V49.8438C4.2969 50.319 4.6819 50.7031 5.15628 50.7031H50.8312L48.4473 52.6101L49.5207 53.9524L53.8175 50.5149C54.0221 50.3516 54.1407 50.105 54.1407 49.8438C54.1407 49.5825 54.0221 49.3359 53.8184 49.1726L49.5215 45.7351Z" fill="#1A1A1A"/>
<path d="M8.59375 38.6719C8.11938 38.6719 7.73438 39.056 7.73438 39.5312V46.4062C7.73438 46.8815 8.11938 47.2656 8.59375 47.2656H12.0312C12.5056 47.2656 12.8906 46.8815 12.8906 46.4062V39.5312C12.8906 39.056 12.5056 38.6719 12.0312 38.6719H8.59375ZM11.1719 45.5469H9.45312V40.3906H11.1719V45.5469ZM15.4688 35.2344C14.9944 35.2344 14.6094 35.6185 14.6094 36.0938V46.4062C14.6094 46.8815 14.9944 47.2656 15.4688 47.2656H18.9062C19.3806 47.2656 19.7656 46.8815 19.7656 46.4062V36.0938C19.7656 35.6185 19.3806 35.2344 18.9062 35.2344H15.4688ZM18.0469 45.5469H16.3281V36.9531H18.0469V45.5469ZM22.3438 32.6562C21.8694 32.6562 21.4844 33.0404 21.4844 33.5156V46.4062C21.4844 46.8815 21.8694 47.2656 22.3438 47.2656H25.7812C26.2556 47.2656 26.6406 46.8815 26.6406 46.4062V33.5156C26.6406 33.0404 26.2556 32.6562 25.7812 32.6562H22.3438ZM24.9219 45.5469H23.2031V34.375H24.9219V45.5469ZM28.3594 30.9375V46.4062C28.3594 46.8815 28.7444 47.2656 29.2188 47.2656H32.6562C33.1306 47.2656 33.5156 46.8815 33.5156 46.4062V30.9375C33.5156 30.4623 33.1306 30.0781 32.6562 30.0781H29.2188C28.7444 30.0781 28.3594 30.4623 28.3594 30.9375ZM30.0781 31.7969H31.7969V45.5469H30.0781V31.7969ZM39.5312 47.2656C40.0056 47.2656 40.3906 46.8815 40.3906 46.4062V27.5C40.3906 27.0248 40.0056 26.6406 39.5312 26.6406H36.0938C35.6194 26.6406 35.2344 27.0248 35.2344 27.5V46.4062C35.2344 46.8815 35.6194 47.2656 36.0938 47.2656H39.5312ZM36.9531 28.3594H38.6719V45.5469H36.9531V28.3594ZM46.4062 47.2656C46.8806 47.2656 47.2656 46.8815 47.2656 46.4062V25.7812C47.2656 25.306 46.8806 24.9219 46.4062 24.9219H42.9688C42.4944 24.9219 42.1094 25.306 42.1094 25.7812V46.4062C42.1094 46.8815 42.4944 47.2656 42.9688 47.2656H46.4062ZM43.8281 26.6406H45.5469V45.5469H43.8281V26.6406ZM42.9688 7.73438C43.9166 7.73438 44.6875 8.50523 44.6875 9.45312H46.4062C46.4062 7.85555 45.3063 6.5218 43.8281 6.13766V5.15625H42.1094V6.13766C40.6312 6.5218 39.5312 7.85555 39.5312 9.45312C39.5312 11.3489 41.073 12.8906 42.9688 12.8906C43.9166 12.8906 44.6875 13.6615 44.6875 14.6094C44.6875 15.5573 43.9166 16.3281 42.9688 16.3281C42.0209 16.3281 41.25 15.5573 41.25 14.6094H39.5312C39.5312 16.207 40.6312 17.5407 42.1094 17.9248V18.9062H43.8281V17.9248C45.3063 17.5407 46.4062 16.207 46.4062 14.6094C46.4062 12.7136 44.8645 11.1719 42.9688 11.1719C42.0209 11.1719 41.25 10.401 41.25 9.45312C41.25 8.50523 42.0209 7.73438 42.9688 7.73438Z" fill="#1A1A1A"/>
<path d="M42.9688 0.859375C36.8088 0.859375 31.7969 5.87125 31.7969 12.0312C31.7969 18.1912 36.8088 23.2031 42.9688 23.2031C49.1288 23.2031 54.1406 18.1912 54.1406 12.0312C54.1406 5.87125 49.1288 0.859375 42.9688 0.859375ZM42.9688 21.4844C37.7567 21.4844 33.5156 17.2434 33.5156 12.0312C33.5156 6.81914 37.7567 2.57812 42.9688 2.57812C48.1809 2.57812 52.4219 6.81914 52.4219 12.0312C52.4219 17.2434 48.1809 21.4844 42.9688 21.4844ZM31.7823 20.4695C31.717 20.1137 31.436 19.837 31.0785 19.7768L25.9222 18.9174L25.6395 20.613L28.4488 21.0813L9.87939 31.9137L10.7456 33.3996L29.7885 22.2913L29.2299 25.6412L30.9255 25.923L31.7849 20.7668L31.7806 20.7659C31.7969 20.6688 31.8012 20.57 31.7823 20.4695Z" fill="#1A1A1A"/>
</svg>
