<svg width="24" height="24" viewBox="0 0 24 24" fill="none" xmlns="http://www.w3.org/2000/svg">
<path fill-rule="evenodd" clip-rule="evenodd" d="M22.4614 8.14258C22.9521 8.67584 23.3367 9.29468 23.6019 9.96619C23.8671 10.6443 23.9998 11.3553 23.9998 12.0795C24.0064 12.8036 23.8738 13.5147 23.6085 14.1927C23.3499 14.8643 22.9654 15.4831 22.4747 16.0164C21.5994 16.9775 20.6579 17.8663 19.65 18.6826C18.6421 19.5056 17.5746 20.2495 16.4606 20.9078C15.34 21.5728 14.173 22.1521 12.9728 22.6459C11.766 23.133 10.5327 23.5346 9.26624 23.8441C8.62306 24.0086 7.95335 24.0416 7.29027 23.9494C6.63383 23.8572 6.00391 23.64 5.42703 23.3108C4.85016 22.975 4.34622 22.5405 3.94175 22.0204C3.53064 21.5004 3.23226 20.9013 3.05323 20.2693C1.51489 15.0683 1.74034 9.18934 3.21899 3.9621C4.00142 1.2234 6.60068 -0.501463 9.2795 0.130546C14.2459 1.30898 18.9007 4.32419 22.4614 8.14258ZM15.4726 13.5476C16.4076 12.8102 16.4076 11.3816 15.4726 10.6245C15.1411 10.3524 14.8007 10.0891 14.4515 9.83452C14.1023 9.57996 13.7464 9.33857 13.3839 9.11034C13.0215 8.87773 12.6523 8.65609 12.2766 8.44542C11.9009 8.23475 11.5185 8.03724 11.1295 7.85291C10.0553 7.3394 8.85513 8.05041 8.68273 9.26176C8.4175 11.1183 8.37109 12.988 8.54349 14.7655C8.65621 15.9966 9.84311 16.7274 10.9306 16.2599C11.3372 16.0844 11.7373 15.8979 12.1307 15.7004C12.5286 15.4985 12.9176 15.2834 13.2977 15.0552C13.6735 14.8313 14.0448 14.5943 14.4117 14.3442C14.7742 14.0896 15.1278 13.8263 15.4726 13.5542V13.5476Z" fill="#FFAF32"/>
</svg>
