<svg width="57" height="57" viewBox="0 0 57 57" fill="none" xmlns="http://www.w3.org/2000/svg">
<path fill-rule="evenodd" clip-rule="evenodd" d="M28.4286 53.4489L30.3821 51.2455C32.5978 48.7101 34.592 46.2982 36.3645 44.0097L37.8296 42.0784C43.9432 33.8404 47 27.3056 47 22.4738C47 12.1599 38.6853 3.79886 28.4286 3.79886C18.1719 3.79886 9.85718 12.1599 9.85718 22.4738C9.85718 27.3056 12.914 33.8404 19.0276 42.0784L20.4927 44.0097C22.7717 46.952 25.417 50.0984 28.4286 53.4489Z" stroke="#39EF9E" stroke-width="2" stroke-linecap="round" stroke-linejoin="round"/>
<path d="M28.4285 30.1084C32.7022 30.1084 36.1666 26.6439 36.1666 22.3703C36.1666 18.0967 32.7022 14.6322 28.4285 14.6322C24.1549 14.6322 20.6904 18.0967 20.6904 22.3703C20.6904 26.6439 24.1549 30.1084 28.4285 30.1084Z" stroke="#39EF9E" stroke-width="2" stroke-linecap="round" stroke-linejoin="round"/>
</svg>
