<svg width="209" height="57" viewBox="0 0 209 57" fill="none" xmlns="http://www.w3.org/2000/svg">
<mask id="mask0_9_56" style="mask-type:luminance" maskUnits="userSpaceOnUse" x="0" y="0" width="209" height="57">
<path d="M208.208 0.791687H0.791672V56.2084H208.208V0.791687Z" fill="white"/>
</mask>
<g mask="url(#mask0_9_56)">
<mask id="mask1_9_56" style="mask-type:luminance" maskUnits="userSpaceOnUse" x="0" y="0" width="209" height="57">
<path d="M208.208 0.791687H0.791672V56.2084H208.208V0.791687Z" fill="white"/>
</mask>
<g mask="url(#mask1_9_56)">
<path d="M10.0102 1.58337H198.99C203.642 1.58337 207.417 5.36266 207.417 10.0278V46.9723C207.417 51.6374 203.642 55.4167 198.99 55.4167H10.0102C5.3576 55.4167 1.58334 51.6374 1.58334 46.9723V10.0278C1.58334 5.36266 5.3576 1.58337 10.0102 1.58337Z" fill="#181818" stroke="#177A4E"/>
<path d="M104.298 30.682C103.253 30.687 102.233 31.0019 101.366 31.5872C100.5 32.1724 99.8255 33.0018 99.4291 33.9705C99.0326 34.9393 98.9314 36.0039 99.1384 37.0303C99.3452 38.0566 99.8509 38.9985 100.592 39.7371C101.332 40.4756 102.275 40.978 103.3 41.1803C104.325 41.3828 105.387 41.2764 106.353 40.8746C107.318 40.4729 108.142 39.7937 108.722 38.9227C109.302 38.0518 109.612 37.0282 109.612 35.9813C109.622 35.2805 109.491 34.5848 109.228 33.9356C108.964 33.2863 108.572 32.697 108.077 32.2027C107.581 31.7082 106.991 31.3187 106.341 31.0575C105.692 30.7962 104.997 30.6686 104.298 30.682ZM104.298 39.1982C103.655 39.2433 103.014 39.0935 102.457 38.7684C101.901 38.4435 101.454 37.9583 101.177 37.3757C100.899 36.7934 100.803 36.1407 100.9 35.5027C100.997 34.8646 101.284 34.2707 101.723 33.798C102.162 33.3254 102.732 32.9961 103.36 32.8525C103.989 32.7092 104.645 32.7583 105.245 32.9939C105.845 33.2293 106.36 33.6402 106.724 34.173C107.088 34.7056 107.283 35.3358 107.285 35.9813C107.305 36.3903 107.243 36.7991 107.103 37.1838C106.962 37.5684 106.747 37.921 106.468 38.2209C106.19 38.5207 105.855 38.7616 105.482 38.9295C105.109 39.0973 104.706 39.1887 104.298 39.1982ZM92.7116 30.682C91.666 30.6844 90.6446 30.9973 89.7764 31.5812C88.9083 32.1648 88.2324 32.9936 87.834 33.9619C87.4356 34.9304 87.3326 35.9956 87.5381 37.0227C87.7434 38.0498 88.2484 38.993 88.9884 39.7327C89.7286 40.4726 90.671 40.9761 91.6967 41.1795C92.7224 41.383 93.7851 41.2774 94.751 40.8759C95.7166 40.4743 96.542 39.7952 97.1226 38.9239C97.7032 38.0529 98.0131 37.0288 98.0131 35.9813C98.0232 35.2805 97.8926 34.5848 97.6288 33.9356C97.365 33.2863 96.9736 32.697 96.4777 32.2027C95.982 31.7082 95.3919 31.3187 94.7427 31.0575C94.0936 30.7962 93.3986 30.6686 92.6991 30.682H92.7116ZM92.7116 39.1982C92.0686 39.2458 91.4261 39.0983 90.868 38.7749C90.3099 38.4516 89.8618 37.9674 89.5822 37.3854C89.3024 36.8032 89.2042 36.1504 89.3 35.5115C89.396 34.8728 89.6816 34.2778 90.1197 33.8039C90.5578 33.3299 91.1283 32.9991 91.7567 32.8545C92.385 32.71 93.0422 32.7584 93.6429 32.9934C94.2435 33.2284 94.7595 33.6389 95.124 34.1719C95.4885 34.7048 95.6842 35.3353 95.6859 35.9813C95.706 36.3903 95.6441 36.7991 95.5038 37.1838C95.3637 37.5684 95.1481 37.921 94.8697 38.2209C94.5914 38.5207 94.2559 38.7616 93.8831 38.9295C93.5103 39.0973 93.1078 39.1887 92.6991 39.1982H92.7116ZM78.91 32.3154V34.5598H84.2862C84.202 35.6168 83.7634 36.6143 83.0417 37.3902C82.5039 37.9393 81.8574 38.3691 81.1436 38.6525C80.4299 38.9361 79.6648 39.0667 78.8977 39.036C77.3132 39.036 75.794 38.4055 74.6737 37.2831C73.5535 36.1609 72.9241 34.6385 72.9241 33.051C72.9241 31.4637 73.5535 29.9414 74.6737 28.8191C75.794 27.6967 77.3132 27.066 78.8977 27.066C80.4131 27.0413 81.8767 27.6197 82.9672 28.6745L84.5476 27.091C83.8115 26.3442 82.9333 25.753 81.9649 25.3524C80.9964 24.952 79.9576 24.7502 78.91 24.7594C77.8037 24.7162 76.7 24.8973 75.6651 25.2917C74.6304 25.6862 73.6855 26.2859 72.8877 27.0549C72.0897 27.824 71.4547 28.7464 71.0212 29.767C70.5875 30.7878 70.364 31.8855 70.364 32.995C70.364 34.1043 70.5875 35.2021 71.0212 36.2229C71.4547 37.2435 72.0897 38.166 72.8877 38.935C73.6855 39.704 74.6304 40.3038 75.6651 40.6982C76.7 41.0926 77.8037 41.2738 78.91 41.2305C79.9753 41.2788 81.0385 41.098 82.0281 40.7C83.0177 40.3021 83.9108 39.6964 84.6472 38.9239C85.9511 37.4886 86.6471 35.6019 86.5886 33.662C86.5927 33.1896 86.5509 32.7177 86.4641 32.253L78.91 32.3154ZM135.299 34.061C134.974 33.1044 134.366 32.269 133.558 31.6656C132.749 31.0622 131.776 30.7193 130.769 30.682C130.088 30.6806 129.414 30.8193 128.788 31.0893C128.164 31.3591 127.6 31.7546 127.133 32.2513C126.667 32.748 126.307 33.3352 126.076 33.9768C125.845 34.6184 125.748 35.3006 125.791 35.9813C125.775 36.6781 125.9 37.371 126.159 38.0183C126.417 38.6657 126.803 39.2542 127.292 39.7488C127.783 40.2433 128.368 40.6339 129.012 40.8972C129.656 41.1602 130.346 41.2907 131.042 41.2804C131.913 41.2852 132.771 41.0735 133.539 40.6645C134.309 40.2552 134.964 39.6616 135.447 38.9363L133.643 37.6894C133.374 38.1392 132.993 38.5113 132.537 38.7692C132.08 39.0272 131.565 39.1621 131.042 39.1608C130.503 39.1814 129.97 39.039 129.513 38.7521C129.055 38.4652 128.696 38.0471 128.478 37.5523L135.56 34.6222L135.299 34.061ZM128.081 35.8317C128.055 35.446 128.107 35.0592 128.233 34.6937C128.358 34.3285 128.557 33.9918 128.814 33.704C129.071 33.416 129.383 33.1823 129.731 33.0167C130.08 32.8511 130.458 32.7568 130.843 32.7394C131.245 32.7128 131.645 32.8051 131.994 33.0046C132.344 33.2041 132.628 33.5021 132.81 33.8615L128.081 35.8317ZM122.331 40.9688H124.658V25.3828H122.331V40.9688ZM118.522 31.8665H118.436C118.084 31.4737 117.655 31.1594 117.175 30.9446C116.695 30.7297 116.174 30.619 115.648 30.6197C114.288 30.6857 113.005 31.2736 112.066 32.2613C111.127 33.2489 110.603 34.5609 110.603 35.9251C110.603 37.2893 111.127 38.6012 112.066 39.5889C113.005 40.5766 114.288 41.1645 115.648 41.2305C116.175 41.2396 116.698 41.1325 117.18 40.917C117.661 40.7015 118.09 40.3831 118.436 39.9837H118.511V40.7443C118.511 42.7767 117.427 43.8616 115.685 43.8616C115.105 43.8479 114.542 43.6616 114.067 43.3262C113.593 42.991 113.229 42.5219 113.022 41.9787L110.993 42.8265C111.375 43.7572 112.026 44.5524 112.862 45.1099C113.698 45.6675 114.681 45.9623 115.685 45.9563C118.41 45.9563 120.663 44.3478 120.663 40.4325V30.9938H118.522V31.8665ZM115.859 39.1982C115.057 39.1272 114.309 38.7577 113.765 38.1622C113.221 37.5667 112.919 36.7886 112.919 35.9813C112.919 35.1738 113.221 34.3958 113.765 33.8003C114.309 33.2048 115.057 32.8352 115.859 32.7643C116.258 32.7847 116.647 32.8848 117.006 33.0586C117.365 33.2323 117.686 33.4763 117.948 33.7762C118.212 34.0759 118.413 34.4254 118.539 34.8043C118.665 35.1828 118.715 35.5831 118.685 35.9813C118.718 36.3811 118.671 36.7837 118.545 37.1647C118.42 37.5458 118.218 37.8971 117.953 38.198C117.687 38.4986 117.364 38.7423 117.002 38.9143C116.64 39.0862 116.248 39.1826 115.847 39.1982H115.859ZM146.201 25.3828H140.637V40.9688H142.965V35.0585H146.212C146.876 35.1062 147.542 35.0166 148.169 34.7951C148.796 34.5737 149.371 34.2251 149.858 33.7711C150.344 33.3172 150.733 32.7678 150.998 32.1569C151.264 31.5461 151.401 30.8869 151.401 30.2207C151.401 29.5544 151.264 28.8953 150.998 28.2844C150.733 27.6736 150.344 27.1241 149.858 26.6702C149.371 26.2163 148.796 25.8678 148.169 25.6463C147.542 25.4247 146.876 25.335 146.212 25.3828H146.201ZM146.201 32.864H142.952V27.5524H146.25C146.958 27.5524 147.637 27.8343 148.138 28.3357C148.638 28.8373 148.919 29.5177 148.919 30.227C148.919 30.9363 148.638 31.6165 148.138 32.1181C147.637 32.6197 146.958 32.9014 146.25 32.9014L146.201 32.864ZM160.55 30.6197C159.703 30.5688 158.859 30.7674 158.123 31.1903C157.386 31.6135 156.789 32.2429 156.406 33.0012L158.471 33.8615C158.675 33.4855 158.984 33.1767 159.359 32.9731C159.735 32.7694 160.161 32.6796 160.586 32.7144C160.883 32.6799 161.18 32.7046 161.467 32.7872C161.752 32.8697 162.019 33.0084 162.252 33.1954C162.483 33.3823 162.675 33.6134 162.817 33.8755C162.958 34.1377 163.047 34.4254 163.075 34.7219V34.8841C162.328 34.4876 161.494 34.2819 160.648 34.2856C158.42 34.2856 156.168 35.5324 156.168 37.7892C156.19 38.2705 156.309 38.7423 156.516 39.1771C156.722 39.6117 157.015 40.0004 157.375 40.3201C157.734 40.6398 158.155 40.8839 158.61 41.0383C159.065 41.1925 159.546 41.2536 160.026 41.2182C160.613 41.2603 161.199 41.1436 161.725 40.8803C162.251 40.6171 162.695 40.2169 163.014 39.7219H163.088V40.9688H165.329V34.9713C165.329 32.2407 163.262 30.657 160.612 30.657L160.55 30.6197ZM160.263 39.1608C159.503 39.1608 158.446 38.7743 158.446 37.839C158.446 36.5922 159.766 36.1808 160.935 36.1808C161.674 36.1624 162.404 36.3433 163.052 36.7044C162.973 37.3795 162.654 38.0035 162.154 38.4619C161.652 38.9201 161.003 39.1817 160.325 39.1982L160.263 39.1608ZM173.492 30.9938L170.829 37.7518H170.755L167.992 30.9938H165.503L169.646 40.445L167.282 45.6944H169.71L176.081 30.9938H173.492ZM152.572 40.9688H154.9V25.3828H152.572V40.9688Z" fill="white"/>
<path d="M78.4334 16.4084C78.4546 16.8658 78.3828 17.3226 78.2224 17.7512C78.062 18.18 77.8161 18.5716 77.5 18.9022C77.1471 19.2695 76.7209 19.5581 76.2491 19.7494C75.7774 19.9405 75.2707 20.0301 74.7622 20.0119C73.9906 20.0057 73.2379 19.7717 72.5985 19.339C71.959 18.9063 71.4614 18.294 71.1677 17.5791C70.874 16.8641 70.7975 16.0784 70.9477 15.32C71.0978 14.5617 71.4679 13.8646 72.0119 13.3162C72.3693 12.9506 72.7979 12.6623 73.2708 12.4693C73.7439 12.2763 74.2515 12.1826 74.7622 12.194C75.2883 12.1923 75.8092 12.2984 76.2929 12.5058C76.7432 12.6877 77.1441 12.974 77.4627 13.3412L76.8032 14.002C76.5546 13.706 76.241 13.4719 75.8868 13.3182C75.5326 13.1645 75.1477 13.0956 74.7622 13.1167C74.3734 13.1148 73.9884 13.1916 73.6299 13.3423C73.2716 13.4932 72.9473 13.715 72.6764 13.9944C72.4057 14.2739 72.194 14.6053 72.0542 14.9686C71.9142 15.332 71.8491 15.7199 71.8624 16.1092C71.8544 16.6904 72.0182 17.2609 72.3333 17.749C72.6486 18.2372 73.1009 18.6206 73.6334 18.8513C74.1659 19.082 74.7546 19.1496 75.3255 19.0456C75.8961 18.9414 76.4234 18.6702 76.8404 18.2663C77.2234 17.8505 77.4443 17.3104 77.4627 16.7452H74.7622V15.8474H78.3837C78.4168 16.0325 78.4336 16.2203 78.4334 16.4084ZM84.1333 13.2913H80.7731V15.6604H83.8347V16.558H80.7731V18.9272H84.1333V19.8498H79.7775V12.3686H84.1333V13.2913ZM88.2153 19.8498H87.257V13.2913H85.1662V12.3686H90.3558V13.2913H88.2153V19.8498ZM94.0145 19.8498V12.3686H94.9729V19.8498H94.0145ZM99.2291 19.8498H98.2708V13.2913H96.1801V12.3686H101.307V13.2913H99.2291V19.8498ZM111.027 18.8773C110.299 19.6022 109.315 20.0089 108.289 20.0089C107.263 20.0089 106.279 19.6022 105.551 18.8773C104.844 18.1273 104.45 17.1347 104.45 16.103C104.45 15.0712 104.844 14.0787 105.551 13.3287C105.91 12.9668 106.336 12.6795 106.806 12.4835C107.276 12.2875 107.78 12.1866 108.289 12.1866C108.798 12.1866 109.302 12.2875 109.772 12.4835C110.242 12.6795 110.668 12.9668 111.027 13.3287C111.737 14.0772 112.133 15.0704 112.133 16.103C112.133 17.1356 111.737 18.1287 111.027 18.8773ZM106.261 18.2538C106.799 18.7913 107.529 19.0931 108.289 19.0931C109.049 19.0931 109.779 18.7913 110.317 18.2538C110.849 17.6665 111.144 16.9019 111.144 16.1092C111.144 15.3163 110.849 14.5518 110.317 13.9646C109.779 13.4271 109.049 13.1252 108.289 13.1252C107.529 13.1252 106.799 13.4271 106.261 13.9646C105.729 14.5518 105.434 15.3163 105.434 16.1092C105.434 16.9019 105.729 17.6665 106.261 18.2538ZM113.479 19.8498V12.3686H114.648L118.282 18.1916V12.3686H119.241V19.8498H118.245L114.449 13.7527V19.8498H113.479Z" fill="white"/>
<path fill-rule="evenodd" clip-rule="evenodd" d="M108.288 12.3111C107.796 12.3111 107.308 12.4088 106.853 12.5985C106.399 12.7879 105.987 13.0656 105.64 13.4153C104.955 14.142 104.574 15.1035 104.574 16.1029C104.574 17.1021 104.955 18.0635 105.64 18.7901C106.344 19.4909 107.296 19.8842 108.288 19.8842C109.281 19.8842 110.233 19.4907 110.937 18.79C111.624 18.0648 112.008 17.1029 112.008 16.1029C112.008 15.1027 111.624 14.1407 110.937 13.4154C110.59 13.0657 110.178 12.788 109.723 12.5985C109.269 12.4088 108.781 12.3111 108.288 12.3111ZM106.758 12.3683C107.243 12.1659 107.763 12.0618 108.288 12.0618C108.814 12.0618 109.334 12.1659 109.819 12.3683C110.304 12.5707 110.744 12.8671 111.115 13.2407L111.116 13.2426C111.848 14.0144 112.256 15.0383 112.256 16.1029C112.256 17.1675 111.848 18.1913 111.116 18.963L111.114 18.9655C110.363 19.7137 109.347 20.1336 108.288 20.1336C107.229 20.1336 106.214 19.7137 105.463 18.9655L105.46 18.9629C104.731 18.1897 104.325 17.1664 104.325 16.1029C104.325 15.0392 104.731 14.016 105.46 13.2429L105.462 13.2407C105.832 12.8671 106.273 12.5707 106.758 12.3683ZM74.7587 12.3186C74.265 12.3075 73.7743 12.3982 73.3171 12.5847C72.8598 12.7713 72.4456 13.0499 72.1001 13.4033C71.5735 13.9344 71.2144 14.61 71.069 15.3441C70.9235 16.0783 70.9976 16.8393 71.282 17.5317C71.5664 18.2239 72.0483 18.8166 72.6674 19.2355C73.2865 19.6546 74.0153 19.8813 74.7625 19.8872H74.7658C75.257 19.9048 75.7462 19.8183 76.2017 19.6337C76.6573 19.4491 77.0688 19.1703 77.4095 18.8158C77.714 18.4974 77.9505 18.1204 78.1051 17.7074C78.2596 17.2947 78.3288 16.8546 78.3084 16.4142L78.4326 16.4083H78.3082C78.3084 16.2622 78.2979 16.1163 78.277 15.9719H74.8858V16.6203H77.5906L77.5864 16.749C77.567 17.3445 77.3344 17.9129 76.9312 18.3507L76.9264 18.356C76.4916 18.7771 75.9419 19.0596 75.3469 19.1681C74.752 19.2767 74.1383 19.2062 73.5832 18.9657C73.0281 18.7252 72.5566 18.3254 72.228 17.8167C71.9001 17.3087 71.7293 16.7152 71.7374 16.1103C71.7237 15.7054 71.7917 15.3018 71.9372 14.9237C72.0832 14.5445 72.304 14.199 72.5865 13.9075C72.8688 13.616 73.2072 13.3846 73.581 13.2273C73.9537 13.0704 74.3541 12.9904 74.7584 12.9919C75.1618 12.9703 75.5648 13.0428 75.9356 13.2037C76.266 13.3471 76.5629 13.5571 76.8078 13.8201L77.2903 13.3367C76.9981 13.0257 76.6417 12.7813 76.2456 12.6212L76.2432 12.6203C75.7752 12.4195 75.271 12.3169 74.7618 12.3186L74.7587 12.3186ZM78.5571 16.4055C78.5788 16.8787 78.5042 17.3513 78.3381 17.795C78.1717 18.2396 77.917 18.6456 77.5892 18.9883C77.2241 19.3683 76.7831 19.6671 76.295 19.8649C75.8076 20.0625 75.2842 20.1549 74.7588 20.1364C73.9632 20.1298 73.1874 19.8885 72.5281 19.4421C71.8683 18.9958 71.3548 18.3642 71.0519 17.6265C70.7489 16.8888 70.6699 16.078 70.8247 15.2956C70.9797 14.5134 71.3615 13.7943 71.9225 13.2285C72.2918 12.8509 72.7345 12.5531 73.2232 12.3537C73.7116 12.1545 74.2355 12.0577 74.7626 12.0692C75.3048 12.0676 75.8415 12.1769 76.34 12.3904C76.808 12.5799 77.2247 12.8775 77.556 13.2592L77.6321 13.3469L76.7945 14.1862L76.7071 14.0821C76.4712 13.8009 76.1731 13.5785 75.8366 13.4325C75.5002 13.2866 75.1344 13.221 74.7682 13.2411L74.7609 13.2415C74.389 13.2397 74.0204 13.3129 73.6773 13.4572C73.3345 13.6015 73.0241 13.8137 72.7651 14.0811C72.5059 14.3486 72.3032 14.6656 72.1696 15.0134C72.0357 15.3611 71.9733 15.7323 71.9861 16.1048L71.9863 16.1108C71.9785 16.6675 72.1353 17.2139 72.437 17.6813C72.7388 18.1485 73.172 18.5159 73.682 18.7368C74.192 18.9578 74.7558 19.0225 75.3024 18.9228C75.8477 18.8232 76.3517 18.5645 76.7507 18.1791C77.0829 17.8173 77.2855 17.3569 77.3297 16.8697H74.6369V15.7226H78.487L78.5055 15.8252C78.5398 16.0167 78.5571 16.211 78.5571 16.4055ZM79.6523 12.2438H84.2569V13.4159H80.8968V15.5356H83.9583V16.6827H80.8968V18.8023H84.2569V19.9744H79.6523V12.2438ZM79.9012 12.4932V19.7251H84.008V19.0517H80.6479V16.4333H83.7094V15.7849H80.6479V13.1665H84.008V12.4932H79.9012ZM85.041 12.2438H90.4794V13.4159H88.3389V19.9744H87.1318V13.4159H85.041V12.2438ZM85.2899 12.4932V13.1665H87.3807V19.7251H88.09V13.1665H90.2305V12.4932H85.2899ZM93.8895 12.2438H95.0966V19.9744H93.8895V12.2438ZM94.1384 12.4932V19.7251H94.8477V12.4932H94.1384ZM96.0548 12.2438H101.431V13.4159H99.3528V19.9744H98.1456V13.4159H96.0548V12.2438ZM96.3037 12.4932V13.1665H98.3945V19.7251H99.1039V13.1665H101.182V12.4932H96.3037ZM113.353 12.2438H114.717L118.157 17.7567V12.2438H119.365V19.9744H118.175L114.573 14.188V19.9744H113.353V12.2438ZM113.602 12.4932V19.7251H114.324V13.3169L118.314 19.7251H119.116V12.4932H118.406V18.6259L114.579 12.4932H113.602ZM106.172 13.8761C106.734 13.3153 107.495 13.0004 108.288 13.0004C109.082 13.0004 109.842 13.3153 110.405 13.8761L110.409 13.8806C110.962 14.4907 111.267 15.2853 111.267 16.1091C111.267 16.9329 110.961 17.7272 110.409 18.3374L110.405 18.3422C109.843 18.903 109.082 19.2178 108.288 19.2178C107.495 19.2178 106.734 18.903 106.172 18.342L106.26 18.2537L106.168 18.3374C105.615 17.7272 105.309 16.9329 105.309 16.1091C105.309 15.2853 105.615 14.4908 106.168 13.8807L106.172 13.8761ZM106.35 18.1675C106.865 18.6804 107.562 18.9684 108.288 18.9684C109.015 18.9684 109.712 18.6804 110.227 18.1675C110.736 17.6037 111.019 16.87 111.019 16.1091C111.019 15.3482 110.736 14.6146 110.227 14.0505C109.712 13.5377 109.015 13.2497 108.288 13.2497C107.562 13.2497 106.865 13.5377 106.35 14.0505C105.84 14.6146 105.558 15.3482 105.558 16.1091C105.558 16.87 105.84 17.6037 106.35 18.1675Z" fill="white"/>
<path d="M32.4895 12.9643C32.0839 13.452 31.879 14.0762 31.917 14.7099V42.2909C31.879 42.9244 32.0839 43.5489 32.4895 44.0365L32.5766 44.1238L47.9959 28.6875V28.3259L32.5766 12.877L32.4895 12.9643Z" fill="url(#paint0_linear_9_56)"/>
<path d="M53.0972 33.8365L47.9948 28.687V28.3254L53.0972 23.1633L53.2092 23.2257L59.3197 26.7044C61.062 27.6895 61.062 29.3104 59.3197 30.3079L53.2342 33.7743L53.0972 33.8365Z" fill="url(#paint1_linear_9_56)"/>
<path d="M53.2475 33.762L47.9958 28.5001L32.4892 44.0362C32.8444 44.3489 33.2975 44.5277 33.7701 44.5413C34.2428 44.5549 34.7053 44.4027 35.0778 44.1109L53.26 33.762" fill="url(#paint2_linear_9_56)"/>
<path d="M53.2477 23.2381L35.0655 12.8891C34.6929 12.5973 34.2304 12.4452 33.7576 12.4588C33.285 12.4724 32.832 12.6511 32.4769 12.9639L47.9958 28.4999L53.2477 23.2381Z" fill="url(#paint3_linear_9_56)"/>
<path opacity="0.2" d="M53.0982 33.6497L35.0655 43.9364C34.7061 44.2056 34.2695 44.3509 33.821 44.3509C33.3723 44.3509 32.9357 44.2056 32.5765 43.9364L32.4892 44.0237L32.5765 44.1109C32.9349 44.382 33.3718 44.5287 33.821 44.5287C34.27 44.5287 34.7068 44.382 35.0655 44.1109L53.2475 33.7619L53.0982 33.6497Z" fill="black"/>
<path opacity="0.12" d="M32.4895 43.8616C32.0839 43.3739 31.879 42.7496 31.917 42.1159V42.3029C31.879 42.9367 32.0839 43.5609 32.4895 44.0486L32.5766 43.9613L32.4895 43.8616ZM59.3209 30.1209L53.0984 33.6497L53.2105 33.762L59.3209 30.2956C59.6676 30.1325 59.9653 29.8804 60.1838 29.5652C60.4023 29.2499 60.5339 28.8826 60.5654 28.5001C60.4954 28.8476 60.3469 29.1744 60.1311 29.4554C59.9154 29.7365 59.6382 29.9642 59.3209 30.1209Z" fill="black"/>
<path opacity="0.25" d="M35.0658 13.0636L59.3212 26.879C59.6385 27.0359 59.9156 27.2636 60.1314 27.5447C60.347 27.8257 60.4957 28.1523 60.5657 28.4999C60.5342 28.1173 60.4024 27.75 60.1839 27.4348C59.9654 27.1195 59.6679 26.8676 59.3212 26.7044L35.0658 12.889C33.3235 11.904 31.9048 12.7269 31.9048 14.7219V14.909C31.9422 12.9015 33.336 12.0786 35.0658 13.0636Z" fill="white"/>
</g>
</g>
<defs>
<linearGradient id="paint0_linear_9_56" x1="46.627" y1="14.4231" x2="25.7045" y2="35.3059" gradientUnits="userSpaceOnUse">
<stop stop-color="#00A0FF"/>
<stop offset="0.01" stop-color="#00A1FF"/>
<stop offset="0.26" stop-color="#00BEFF"/>
<stop offset="0.51" stop-color="#00D2FF"/>
<stop offset="0.76" stop-color="#00DFFF"/>
<stop offset="1" stop-color="#00E3FF"/>
</linearGradient>
<linearGradient id="paint1_linear_9_56" x1="61.5972" y1="28.4999" x2="31.4927" y2="28.4999" gradientUnits="userSpaceOnUse">
<stop stop-color="#FFE000"/>
<stop offset="0.41" stop-color="#FFBD00"/>
<stop offset="0.78" stop-color="#FFA500"/>
<stop offset="1" stop-color="#FF9C00"/>
</linearGradient>
<linearGradient id="paint2_linear_9_56" x1="50.3977" y1="31.368" x2="22.0188" y2="59.6802" gradientUnits="userSpaceOnUse">
<stop stop-color="#FF3A44"/>
<stop offset="1" stop-color="#C31162"/>
</linearGradient>
<linearGradient id="paint3_linear_9_56" x1="28.5816" y1="3.78689" x2="41.2498" y2="16.4309" gradientUnits="userSpaceOnUse">
<stop stop-color="#32A071"/>
<stop offset="0.07" stop-color="#2DA771"/>
<stop offset="0.48" stop-color="#15CF74"/>
<stop offset="0.8" stop-color="#06E775"/>
<stop offset="1" stop-color="#00F076"/>
</linearGradient>
</defs>
</svg>
