<svg width="77" height="81" viewBox="0 0 77 81" fill="none" xmlns="http://www.w3.org/2000/svg">
<path d="M71.0243 60.6247C72.6729 60.6247 74.0103 62.2624 74.0103 64.264C74.0025 63.4152 74.2567 62.5847 74.7382 61.8857C75.2841 61.1124 76.0956 60.6211 77 60.6211C75.3514 60.6211 74.014 58.9834 74.014 56.9818C74.0103 58.9943 72.6729 60.6247 71.0243 60.6247Z" fill="#177A4E"/>
<path d="M60.676 41.02C60.676 40.0591 60.2943 39.1376 59.6149 38.4582C58.9355 37.7788 58.014 37.3971 57.0531 37.3971C56.0923 37.3971 55.1708 37.7788 54.4914 38.4582C53.8119 39.1376 53.4302 40.0591 53.4302 41.02V45.6546C53.4304 47.3356 53.0279 48.9922 52.2566 50.4857C51.4498 52.0471 51.0469 53.7857 51.0848 55.5427C51.1226 57.2998 51.5999 59.0195 52.4731 60.5447L53.594 62.5044V80.0639H67.8836L65.5854 63.1067L70.7532 47.6162C71.4148 45.3378 71.3634 42.9116 70.6058 40.6633L64.0369 21.5426C63.6757 20.5757 62.9551 19.7857 62.0254 19.3375C61.0957 18.8892 60.0288 18.8173 59.0474 19.1369C58.066 19.4564 57.2459 20.1427 56.7583 21.0524C56.2708 21.9621 56.1535 23.025 56.4308 24.0192L60.5214 36.8694C60.6302 37.2187 60.6854 37.5826 60.6851 37.9484L60.676 41.02Z" fill="#F5F5F5"/>
<path d="M67.3431 80.1366L65.0286 63.0539L70.2327 47.4542C70.8631 45.2853 70.8123 42.9752 70.0871 40.8361L63.5201 21.73C63.2028 20.9039 62.5809 20.2309 61.7823 19.8496C60.9838 19.4684 60.0694 19.4078 59.2275 19.6804C58.3857 19.953 57.6804 20.5381 57.2569 21.3151C56.8334 22.0921 56.724 23.0019 56.9512 23.8571L61.0326 36.7129C61.1555 37.1162 61.2168 37.5358 61.2146 37.9575V49.4812H60.1228V41.0199C60.1228 40.2039 59.7986 39.4212 59.2216 38.8442C58.6445 38.2671 57.8619 37.9429 57.0458 37.9429C56.2297 37.9429 55.4471 38.2671 54.8701 38.8442C54.293 39.4212 53.9688 40.2039 53.9688 41.0199V45.6545C53.9666 47.4225 53.5437 49.1645 52.7351 50.7368C51.9668 52.216 51.5828 53.8647 51.6184 55.5312C51.654 57.1976 52.1081 58.8284 52.9389 60.2735L54.1326 62.3606V80.0638H53.0408V62.6499L51.9909 60.8157C51.0695 59.2123 50.5657 57.4031 50.526 55.5542C50.4863 53.7053 50.9118 51.8761 51.7634 50.2346C52.4946 48.8185 52.877 47.2482 52.8789 45.6545V41.0199C52.8777 40.1783 53.1314 39.356 53.6067 38.6613C54.0819 37.9667 54.7563 37.4322 55.5412 37.1283C56.3261 36.8244 57.1846 36.7653 58.0037 36.9588C58.8228 37.1523 59.5642 37.5893 60.1301 38.2122C60.153 37.8141 60.1062 37.4151 59.9918 37.0331L55.9104 24.1774C55.597 23.0478 55.7319 21.8408 56.2868 20.8081C56.8417 19.7755 57.7738 18.9969 58.8888 18.6348C60.0037 18.2727 61.2154 18.355 62.2712 18.8645C63.327 19.3741 64.1453 20.2715 64.5555 21.3697L71.1207 40.4868C71.9705 43.0033 71.9322 45.6909 71.2717 47.7908L66.144 63.1594L68.4258 79.991L67.3431 80.1366Z" fill="#5E6175"/>
<path d="M11.9681 41.02C11.9681 40.0592 12.3498 39.1377 13.0292 38.4583C13.7087 37.7788 14.6302 37.3972 15.591 37.3972C16.5519 37.3972 17.4734 37.7788 18.1528 38.4583C18.8322 39.1377 19.2139 40.0592 19.2139 41.02V45.6546C19.2144 47.3358 19.6175 48.9923 20.3894 50.4858C21.1957 52.0473 21.5983 53.7858 21.5604 55.5428C21.5226 57.2998 21.0456 59.0193 20.1728 60.5447L19.0501 62.5045V80.0639H4.76054L7.05874 63.1068L1.89098 47.6162C1.22989 45.3377 1.28196 42.9114 2.04019 40.6634L8.60725 21.5427C8.96439 20.5703 9.68454 19.7743 10.6164 19.3218C11.5482 18.8693 12.6191 18.7956 13.6041 19.1163C14.5891 19.4369 15.4115 20.1269 15.8984 21.0412C16.3853 21.9555 16.4988 23.0229 16.2151 24.0192L12.1319 36.8767C12.023 37.2261 11.9678 37.5899 11.9681 37.9558V41.02Z" fill="#F5F5F5"/>
<path d="M5.30091 80.1368L4.22005 79.9913L6.50187 63.1597L1.36686 47.7692C0.671227 45.3844 0.725859 42.8433 1.52335 40.4907L8.09223 21.3681C8.50591 20.2748 9.32462 19.3826 10.3785 18.8768C11.4324 18.3709 12.6406 18.2902 13.7524 18.6514C14.8642 19.0125 15.7943 19.7879 16.3498 20.8165C16.9052 21.8451 17.0433 23.0481 16.7355 24.1758L12.6522 37.037C12.5391 37.418 12.4923 37.8156 12.5139 38.2125C13.0801 37.5908 13.8212 37.155 14.6397 36.9623C15.4581 36.7696 16.3158 36.8291 17.0998 37.1328C17.8839 37.4366 18.5578 37.9704 19.0328 38.6642C19.5079 39.358 19.7619 40.1793 19.7615 41.0202V45.6548C19.7634 47.2483 20.1451 48.8184 20.8752 50.2348C21.7271 51.8762 22.1528 53.7055 22.1131 55.5544C22.0733 57.4034 21.5694 59.2127 20.6477 60.816L19.5978 62.6502V80.0641H18.506V62.3608L19.6997 60.2737C20.5308 58.8288 20.9852 57.1981 21.0211 55.5316C21.057 53.8652 20.6733 52.2164 19.9053 50.737C19.0954 49.1652 18.6718 47.423 18.6698 45.6548V41.0202C18.6698 40.6161 18.5902 40.216 18.4355 39.8426C18.2809 39.4693 18.0543 39.1301 17.7685 38.8444C17.4828 38.5587 17.1436 38.332 16.7703 38.1774C16.397 38.0228 15.9968 37.9432 15.5928 37.9432C15.1887 37.9432 14.7886 38.0228 14.4152 38.1774C14.0419 38.332 13.7027 38.5587 13.417 38.8444C13.1313 39.1301 12.9046 39.4693 12.75 39.8426C12.5953 40.216 12.5158 40.6161 12.5158 41.0202V49.4724H11.424V37.9486C11.4215 37.5281 11.4829 37.1097 11.6059 36.7076L15.6892 23.8465C15.9181 22.9907 15.8099 22.0798 15.3868 21.3015C14.9637 20.5233 14.258 19.9371 13.4153 19.664C12.5726 19.3909 11.6573 19.4517 10.8581 19.8338C10.0589 20.2159 9.43686 20.8901 9.12032 21.7175L2.5569 40.84C1.83229 42.978 1.78211 45.287 2.41315 47.4544L7.6173 63.0541L5.30091 80.1368Z" fill="#5E6175"/>
<path d="M36.322 51.0481C43.5547 51.0481 49.4179 45.1849 49.4179 37.9522C49.4179 30.7196 43.5547 24.8563 36.322 24.8563C29.0893 24.8563 23.2261 30.7196 23.2261 37.9522C23.2261 45.1849 29.0893 51.0481 36.322 51.0481Z" fill="#177A4E"/>
<path d="M36.3202 51.5921C33.621 51.5921 30.9825 50.7917 28.7382 49.2921C26.4939 47.7926 24.7447 45.6612 23.7118 43.1674C22.6788 40.6737 22.4086 37.9297 22.9352 35.2824C23.4617 32.6351 24.7615 30.2034 26.6701 28.2948C28.5787 26.3862 31.0104 25.0864 33.6577 24.5598C36.3051 24.0333 39.0491 24.3035 41.5428 25.3364C44.0365 26.3694 46.1679 28.1186 47.6675 30.3629C49.167 32.6071 49.9674 35.2457 49.9674 37.9449C49.9674 41.5643 48.5296 45.0356 45.9703 47.5949C43.4109 50.1543 39.9397 51.5921 36.3202 51.5921ZM36.3202 25.4021C33.837 25.4021 31.4095 26.1385 29.3447 27.5181C27.28 28.8977 25.6707 30.8586 24.7204 33.1528C23.7702 35.447 23.5215 37.9715 24.006 40.4071C24.4904 42.8426 25.6862 45.0798 27.4421 46.8357C29.198 48.5916 31.4352 49.7874 33.8707 50.2718C36.3063 50.7563 38.8307 50.5076 41.125 49.5574C43.4192 48.6071 45.3801 46.9978 46.7597 44.9331C48.1393 42.8683 48.8757 40.4408 48.8757 37.9576C48.8757 34.6277 47.5529 31.4342 45.1983 29.0795C42.8436 26.7249 39.6501 25.4021 36.3202 25.4021Z" fill="#5E6175"/>
<path d="M36.3202 45.4999C35.1338 45.4979 33.9965 45.0256 33.1577 44.1865C32.319 43.3474 31.8471 42.21 31.8457 41.0236H34.6498C34.6498 41.3539 34.7477 41.6769 34.9313 41.9516C35.1148 42.2263 35.3757 42.4404 35.6809 42.5668C35.9862 42.6933 36.322 42.7263 36.6461 42.6619C36.9701 42.5974 37.2677 42.4383 37.5014 42.2047C37.735 41.9711 37.8941 41.6735 37.9585 41.3494C38.023 41.0254 37.9899 40.6896 37.8635 40.3843C37.737 40.0791 37.5229 39.8182 37.2482 39.6347C36.9735 39.4511 36.6506 39.3531 36.3202 39.3531C35.4352 39.3531 34.5701 39.0907 33.8343 38.5991C33.0985 38.1074 32.525 37.4086 32.1863 36.591C31.8476 35.7734 31.759 34.8737 31.9317 34.0057C32.1043 33.1378 32.5305 32.3405 33.1562 31.7147C33.782 31.089 34.5793 30.6628 35.4473 30.4902C36.3152 30.3175 37.2149 30.4061 38.0325 30.7448C38.8501 31.0834 39.5489 31.6569 40.0406 32.3928C40.5322 33.1286 40.7947 33.9937 40.7947 34.8787H37.9924C37.9924 34.5483 37.8945 34.2253 37.7109 33.9506C37.5274 33.6759 37.2665 33.4618 36.9612 33.3354C36.656 33.209 36.3202 33.1759 35.9961 33.2403C35.6721 33.3048 35.3744 33.4639 35.1408 33.6975C34.9072 33.9311 34.7481 34.2287 34.6837 34.5528C34.6192 34.8768 34.6523 35.2127 34.7787 35.5179C34.9052 35.8231 35.1193 36.084 35.394 36.2676C35.6687 36.4511 35.9916 36.5491 36.322 36.5491C37.4933 36.5727 38.6087 37.0546 39.4287 37.8913C40.2488 38.728 40.7081 39.8529 40.7081 41.0245C40.7081 42.196 40.2488 43.3209 39.4287 44.1576C38.6087 44.9944 37.4933 45.4762 36.322 45.4999H36.3202Z" fill="#F5F5F5"/>
<path d="M34.9209 29.0085H37.725V31.8053H34.9209V29.0085ZM34.9209 44.0969H37.725V46.8937H34.9209V44.0969Z" fill="#F5F5F5"/>
<path d="M65.1603 17.2367L67.651 14.7462L68.4229 15.518L65.9322 18.0086L65.1603 17.2367ZM62.1099 12.2571H63.2016V15.7799H62.1099V12.2571ZM67.5014 19.7722H71.0242V20.8639H67.5014V19.7722Z" fill="#5E6175"/>
<path d="M10.9745 11.3183C10.7407 11.0646 10.5732 10.7572 10.4866 10.4233C10.4 10.0894 10.397 9.73925 10.4781 9.40393C10.5591 9.06862 10.7215 8.75845 10.951 8.5009C11.1805 8.24334 11.4699 8.04635 11.7937 7.92736C12.1175 7.80836 12.4656 7.77104 12.8073 7.81871C13.1489 7.86637 13.4736 7.99753 13.7524 8.2006C14.0313 8.40366 14.2558 8.67235 14.406 8.98288C14.5563 9.2934 14.6276 9.63618 14.6138 9.98086C14.5954 10.3948 14.4551 10.794 14.2105 11.1284C13.966 11.4628 13.628 11.7175 13.2391 11.8604C12.8502 12.0033 12.4278 12.0281 12.0249 11.9317C11.6219 11.8352 11.2565 11.6218 10.9745 11.3183ZM12.5175 8.8909C12.3201 8.89069 12.127 8.94856 11.9622 9.05732C11.7974 9.16607 11.6682 9.3209 11.5908 9.50252C11.5134 9.68414 11.4911 9.88452 11.5267 10.0787C11.5623 10.2729 11.6543 10.4523 11.7912 10.5947C11.928 10.737 12.1037 10.8359 12.2964 10.8791C12.489 10.9222 12.6901 10.9078 12.8746 10.8375C13.0591 10.7672 13.2189 10.6442 13.334 10.4838C13.4491 10.3234 13.5145 10.1327 13.522 9.93537C13.5271 9.8002 13.505 9.66538 13.4568 9.53898C13.4087 9.41257 13.3355 9.29716 13.2417 9.19967C13.148 9.10217 13.0355 9.02457 12.9111 8.97152C12.7867 8.91847 12.6528 8.89105 12.5175 8.8909ZM2.83891 20.3273C2.65892 20.1309 2.53002 19.8933 2.4636 19.6353C2.39717 19.3774 2.39526 19.107 2.45802 18.8481C2.52079 18.5893 2.6463 18.3498 2.82349 18.1509C3.00069 17.952 3.22411 17.7998 3.47404 17.7076C3.72398 17.6155 3.99276 17.5863 4.25665 17.6226C4.52054 17.6589 4.77145 17.7596 4.98722 17.9158C5.20299 18.072 5.37701 18.2789 5.49391 18.5183C5.61081 18.7576 5.667 19.0221 5.65752 19.2883C5.63943 19.6069 5.52866 19.9132 5.33881 20.1697C5.14897 20.4262 4.88832 20.6217 4.58891 20.732C4.2895 20.8424 3.96437 20.8629 3.65347 20.791C3.34258 20.7191 3.05946 20.5579 2.83891 20.3273ZM4.03259 18.6896C3.92813 18.6897 3.826 18.7205 3.73897 18.7783C3.65193 18.836 3.58386 18.9182 3.54325 19.0144C3.50264 19.1107 3.4913 19.2167 3.51065 19.3194C3.53 19.422 3.57918 19.5167 3.65204 19.5916C3.7249 19.6664 3.8182 19.7181 3.9203 19.7403C4.02239 19.7624 4.12873 19.7539 4.22604 19.7159C4.32334 19.6779 4.40729 19.6121 4.46739 19.5266C4.52748 19.4412 4.56106 19.3399 4.56392 19.2355C4.56513 19.1651 4.55234 19.0952 4.52629 19.0298C4.50024 18.9644 4.46146 18.9048 4.41219 18.8546C4.36293 18.8043 4.30416 18.7643 4.23931 18.7369C4.17445 18.7095 4.1048 18.6953 4.03441 18.6951L4.03259 18.6896Z" fill="#5E6175"/>
<path d="M37.8378 17.5504V0.767886H34.8063V17.5504H33.0103L36.3748 21.67L39.7393 17.5504H37.8378ZM34.9118 58.9762V75.7586H37.9433V58.9762H39.7393L36.3748 54.8565L33.0103 58.9762H34.9118ZM27.1657 17.5504C27.0472 11.7885 24.699 6.29703 20.615 2.23087L18.3768 0L16.2333 2.14353L18.4642 4.36712C21.9809 7.8672 24.0102 12.5901 24.1287 17.5504H22.2799L25.6463 21.67L29.0108 17.5504H27.1657ZM56.5182 2.14353L54.3728 0L52.1511 2.23087C48.067 6.29703 45.7188 11.7885 45.6004 17.5504H43.7807L47.1452 21.67L50.5134 17.5504H48.621C48.7394 12.5901 50.7687 7.8672 54.2855 4.36712L56.5182 2.14353Z" fill="#177A4E"/>
</svg>
