<svg width="82" height="77" viewBox="0 0 82 77" fill="none" xmlns="http://www.w3.org/2000/svg">
<path d="M31.2738 70.9274C32.2981 70.9274 33.2805 71.3343 34.0048 72.0586C34.7291 72.7829 35.136 73.7652 35.136 74.7895C35.1357 74.2823 35.2354 73.78 35.4295 73.3113C35.6235 72.8426 35.9079 72.4167 36.2666 72.0581C36.6253 71.6994 37.0511 71.4149 37.5198 71.2209C37.9885 71.0269 38.4908 70.9272 38.9981 70.9274C37.9738 70.9274 36.9914 70.5205 36.2671 69.7962C35.5429 69.0719 35.136 68.0896 35.136 67.0653C35.136 68.0896 34.7291 69.0719 34.0048 69.7962C33.2805 70.5205 32.2981 70.9274 31.2738 70.9274Z" fill="#177A4E"/>
<path d="M26.1765 55.0993L19.5241 61.7445C5.59072 47.8056 5.57255 25.2089 19.5241 11.2428L26.1765 17.8934C23.7317 20.3354 21.7923 23.2353 20.469 26.4273C19.1458 29.6194 18.4647 33.0409 18.4647 36.4964C18.4647 39.9518 19.1458 43.3734 20.469 46.5654C21.7923 49.7574 23.7317 52.6573 26.1765 55.0993Z" fill="#DEE1EC"/>
<path d="M71.0665 36.5044C71.0669 32.1796 70.0006 27.9214 67.9621 24.1072C65.9236 20.2929 62.9759 17.0403 59.38 14.6375C55.7841 12.2346 51.6512 10.7557 47.3472 10.3317C43.0432 9.90779 38.7011 10.5519 34.7055 12.207C30.71 13.862 27.1842 16.477 24.4407 19.8202C21.6972 23.1635 19.8206 27.1317 18.9771 31.3735C18.1337 35.6152 18.3494 39.9995 19.6051 44.138C20.8609 48.2765 23.118 52.0414 26.1764 55.0992C26.1618 55.1173 63.3841 55.1173 63.3641 55.0992C65.8098 52.66 67.7492 49.7616 69.0711 46.5705C70.3929 43.3793 71.0711 39.9584 71.0665 36.5044Z" fill="#F5F5F5"/>
<path d="M63.366 55.099C63.366 55.1172 26.1765 55.1172 26.1765 55.099C22.4987 51.4213 19.9941 46.7356 18.9794 41.6345C17.9646 36.5333 18.4854 31.2458 20.4758 26.4406C22.4661 21.6354 25.8367 17.5283 30.1613 14.6387C34.4858 11.7491 39.5701 10.2068 44.7712 10.2068C49.9723 10.2068 55.0566 11.7491 59.3812 14.6387C63.7058 17.5283 67.0763 21.6354 69.0667 26.4406C71.0571 31.2458 71.5778 36.5333 70.5631 41.6345C69.5484 46.7356 67.0438 51.4213 63.366 55.099Z" fill="#F5F5F5"/>
<path d="M31.3629 48.4395L29.1521 54.7413C29.2138 54.8612 29.2774 54.9811 29.3337 55.1047H26.1765L19.524 61.7443C15.2031 57.4276 12.0625 52.074 10.4029 46.196C14.372 45.2758 18.5398 45.8175 22.1418 47.722L28.4436 45.5093C28.8518 45.3662 29.2921 45.3414 29.7138 45.4379C30.1354 45.5344 30.5212 45.7482 30.8265 46.0546C31.1318 46.3611 31.3441 46.7476 31.439 47.1696C31.534 47.5916 31.5076 48.0319 31.3629 48.4395Z" fill="url(#paint0_linear_25_309)"/>
<path d="M19.524 62.5217L19.1389 62.1366C15.771 58.7717 13.0993 54.7761 11.2765 50.3781C9.4536 45.9801 8.51537 41.266 8.51537 36.5052C8.51537 31.7444 9.4536 27.0303 11.2765 22.6323C13.0993 18.2343 15.771 14.2387 19.1389 10.8738L19.524 10.4886L26.9467 17.9095L26.5616 18.2946C24.1685 20.685 22.27 23.5236 20.9748 26.6481C19.6795 29.7727 19.0128 33.1219 19.0128 36.5043C19.0128 39.8867 19.6795 43.2359 20.9748 46.3604C22.27 49.485 24.1685 52.3236 26.5616 54.7139L26.9467 55.0991L19.524 62.5217ZM19.524 12.0328C13.1611 18.5902 9.60238 27.3681 9.60238 36.5052C9.60238 45.6423 13.1611 54.4201 19.524 60.9776L25.4062 55.0954C20.6028 50.0982 17.92 43.4357 17.92 36.5043C17.92 29.5728 20.6028 22.9104 25.4062 17.9131L19.524 12.0328Z" fill="#5E6175"/>
<path d="M63.3642 17.9114L70.0166 11.259C56.0832 -2.67438 33.481 -2.69618 19.5258 11.259L26.1764 17.9114C28.6178 15.4689 31.5165 13.5314 34.7069 12.2095C37.8973 10.8876 41.3169 10.2072 44.7703 10.2072C48.2237 10.2072 51.6433 10.8876 54.8337 12.2095C58.0241 13.5314 60.9228 15.4689 63.3642 17.9114Z" fill="#A9AFC4"/>
<path d="M26.1765 18.6907L18.7556 11.268L19.1408 10.8829C22.5054 7.51488 26.5008 4.84301 30.8987 3.02005C35.2965 1.19709 40.0105 0.258789 44.7712 0.258789C49.532 0.258789 54.246 1.19709 58.6438 3.02005C63.0417 4.84301 67.0371 7.51488 70.4017 10.8829L70.7869 11.268L63.366 18.6907L62.9791 18.3056C60.5889 15.9126 57.7505 14.0141 54.6261 12.7189C51.5017 11.4236 48.1526 10.757 44.7703 10.757C41.3881 10.757 38.039 11.4236 34.9146 12.7189C31.7902 14.0141 28.9518 15.9126 26.5616 18.3056L26.1765 18.6907ZM63.3606 17.152L69.2427 11.2717C62.6861 4.90803 53.9083 1.34877 44.7712 1.34877C35.6342 1.34877 26.8564 4.90803 20.2997 11.2717L26.1801 17.152C31.1763 12.3484 37.8376 9.66456 44.7685 9.66287C51.6994 9.66118 58.362 12.3417 63.3606 17.1429V17.152Z" fill="#5E6175"/>
<path d="M71.0667 36.5045C71.0712 39.9584 70.3933 43.3791 69.0718 46.5702C67.7502 49.7613 65.8112 52.6598 63.3661 55.0992H59.1879L61.2752 53.0102C64.5398 49.7452 66.763 45.5854 67.6636 41.057C68.5641 36.5285 68.1017 31.8347 66.3347 27.5691C64.5676 23.3034 61.5754 19.6575 57.7364 17.0924C53.8973 14.5274 49.3839 13.1582 44.7667 13.1582C40.1496 13.1582 35.6361 14.5274 31.7971 17.0924C27.958 19.6575 24.9658 23.3034 23.1988 27.5691C21.4318 31.8347 20.9693 36.5285 21.8699 41.057C22.7705 45.5854 24.9937 49.7452 28.2583 53.0102L30.3456 55.0992H26.1674C23.1121 52.0406 20.8581 48.2758 19.6049 44.1382C18.3517 40.0006 18.138 35.6179 18.9827 31.378C19.8274 27.1381 21.7045 23.1719 24.4477 19.8305C27.1909 16.4892 30.7157 13.8757 34.7099 12.2215C38.7041 10.5673 43.0446 9.92345 47.347 10.3469C51.6494 10.7704 55.7811 12.2481 59.3761 14.6493C62.9712 17.0505 65.9188 20.301 67.9579 24.1131C69.997 27.9252 71.0648 32.1813 71.0667 36.5045Z" fill="url(#paint1_linear_25_309)"/>
<path d="M70.0166 61.7446L63.366 55.0922C65.8081 52.6504 67.7453 49.7515 69.067 46.561C70.3887 43.3705 71.0689 39.9509 71.0689 36.4974C71.0689 33.044 70.3887 29.6244 69.067 26.4339C67.7453 23.2434 65.8081 20.3445 63.366 17.9027L70.0166 11.2521C83.95 25.1963 83.97 47.7949 70.0166 61.7446Z" fill="#177A4E"/>
<path d="M70.0166 62.5217L62.5958 55.0991L62.9809 54.7139C65.3737 52.3235 67.272 49.4848 68.5671 46.3603C69.8623 43.2358 70.5289 39.8866 70.5289 36.5043C70.5289 33.1219 69.8623 29.7728 68.5671 26.6482C67.272 23.5237 65.3737 20.6851 62.9809 18.2946L62.5958 17.9095L70.0166 10.4886L70.4017 10.8738C73.7696 14.2387 76.4413 18.2343 78.2642 22.6323C80.087 27.0303 81.0253 31.7444 81.0253 36.5052C81.0253 41.266 80.087 45.9801 78.2642 50.3781C76.4413 54.7761 73.7696 58.7717 70.4017 62.1366L70.0166 62.5217ZM64.1326 55.0954L70.0148 60.9776C76.3777 54.4201 79.9364 45.6423 79.9364 36.5052C79.9364 27.3681 76.3777 18.5902 70.0148 12.0328L64.1326 17.9131C68.936 22.9104 71.6188 29.5728 71.6188 36.5043C71.6188 43.4357 68.936 50.0982 64.1326 55.0954Z" fill="#5E6175"/>
<path d="M24.9629 55.6443L25.4316 55.1175C15.3985 44.7029 15.3312 27.9865 25.7949 17.5246C30.7932 12.5361 37.5561 9.71825 44.6178 9.68176C51.6795 9.64526 58.4711 12.3931 63.5207 17.3297C68.5704 22.2663 71.4712 28.994 71.5946 36.0547C71.7179 43.1154 69.0539 49.9403 64.1798 55.0503L64.9228 55.6443H24.9629ZM26.4053 54.5543H63.1371C66.6941 50.9354 69.1027 46.3462 70.0605 41.363C71.0183 36.3798 70.4825 31.2248 68.5204 26.545C66.5583 21.8653 63.2574 17.8696 59.0321 15.0595C54.8069 12.2494 49.8456 10.7503 44.7712 10.7503C39.6968 10.7503 34.7355 12.2494 30.5102 15.0595C26.2849 17.8696 22.984 21.8653 21.0219 26.545C19.0599 31.2248 18.5241 36.3798 19.4818 41.363C20.4396 46.3462 22.8482 50.9354 26.4053 54.5543Z" fill="#5E6175"/>
<path d="M40.2514 49.5568C38.8424 48.1445 38.0511 46.231 38.0511 44.236C38.0511 42.241 38.8424 40.3275 40.2514 38.9152L41.0925 38.0741C43.1719 35.995 45.5256 34.2097 48.0883 32.7678L56.7916 27.8629C57.5112 27.4553 58.3446 27.2949 59.164 27.4063C59.9835 27.5176 60.7438 27.8947 61.3285 28.4795C61.9132 29.0644 62.2899 29.8249 62.401 30.6444C62.5121 31.4639 62.3514 32.2972 61.9435 33.0166L57.0932 41.6346C55.9142 44.1561 54.1485 46.485 51.7015 48.7521L50.8968 49.5568C50.1982 50.2566 49.3685 50.8118 48.4552 51.1905C47.5419 51.5693 46.5629 51.7643 45.5741 51.7643C44.5853 51.7643 43.6063 51.5693 42.693 51.1905C41.7796 50.8118 40.95 50.2566 40.2514 49.5568Z" fill="url(#paint2_linear_25_309)"/>
<path d="M48.8531 47.5601L49.8268 46.5864C52.1539 44.4392 54.1667 41.9995 55.4964 39.1147L61.1751 29.0235C61.3302 28.7506 61.3914 28.4342 61.349 28.1232C61.3067 27.8121 61.1633 27.5236 60.9409 27.302C60.7186 27.0805 60.4295 26.9382 60.1183 26.897C59.8071 26.8558 59.491 26.9181 59.2186 27.0743L49.1274 32.753C46.3902 34.2937 43.8764 36.2012 41.6557 38.4226L40.6893 39.3999C39.6295 40.4872 39.0408 41.9482 39.0505 43.4665C39.0603 44.9848 39.6678 46.4381 40.7414 47.5117C41.815 48.5853 43.2683 49.1927 44.7865 49.2025C46.3048 49.2122 47.7658 48.6235 48.8531 47.5638V47.5601Z" fill="#5E6175"/>
<path d="M40.3042 47.9472C39.1204 46.7616 38.4556 45.1547 38.4556 43.4793C38.4556 41.8039 39.1204 40.1969 40.3042 39.0113L41.2779 38.0376C43.5327 35.7817 46.085 33.8443 48.864 32.279L58.9553 26.5985C59.3312 26.3866 59.7662 26.3036 60.1938 26.3622C60.6214 26.4207 61.018 26.6176 61.3232 26.9228C61.6283 27.2279 61.8252 27.6246 61.8838 28.0521C61.9423 28.4797 61.8593 28.9147 61.6475 29.2907L55.9815 39.3637C54.7444 42.0414 52.8533 44.5338 50.2047 46.979L49.2382 47.9472C48.0525 49.13 46.446 49.7942 44.7712 49.7942C43.0964 49.7942 41.49 49.13 40.3042 47.9472ZM59.9235 27.4359C59.7715 27.4355 59.622 27.4743 59.4893 27.5485L49.409 33.2236C46.715 34.7393 44.2408 36.6163 42.0554 38.8024L41.0817 39.7761C40.1081 40.7554 39.5615 42.08 39.5612 43.4608C39.5608 44.8417 40.1068 46.1666 41.0798 47.1463C42.0528 48.1261 43.3739 48.6811 44.7548 48.6902C46.1356 48.6994 47.4639 48.1619 48.4498 47.1951L49.4653 46.1815C52.0176 43.8199 53.8252 41.4365 55.0078 38.8823C55.0368 38.8242 54.7589 39.3201 60.7083 28.7511C60.7831 28.6158 60.8212 28.4632 60.8188 28.3086C60.8163 28.154 60.7735 28.0027 60.6946 27.8697C60.6156 27.7367 60.5032 27.6268 60.3686 27.5507C60.234 27.4746 60.0818 27.435 59.9272 27.4359H59.9235Z" fill="#5E6175"/>
<path d="M26.1364 54.925L28.3454 48.6305L22.0509 50.8449C19.1658 48.9688 15.6882 48.2275 12.2889 48.7641C8.88951 49.3007 5.8093 51.0771 3.6424 53.7507C1.47551 56.4242 0.375458 59.8056 0.554461 63.2423C0.733463 66.6791 2.17883 69.9278 4.61175 72.3618C7.04467 74.7958 10.2928 76.2427 13.7295 76.4232C17.1662 76.6037 20.548 75.5052 23.2225 73.3395C25.897 71.1738 27.6748 68.0943 28.2129 64.6952C28.751 61.2961 28.0113 57.8182 26.1364 54.9323V54.925Z" fill="#F5F5F5"/>
<path d="M4.23359 72.7402C1.72324 70.228 0.224658 66.8802 0.0232892 63.3344C-0.17808 59.7886 0.931833 56.2926 3.14162 53.5123C5.35141 50.732 8.50667 48.8616 12.0064 48.2575C15.5062 47.6533 19.1059 48.3576 22.1199 50.2361L29.2446 47.7401L26.7486 54.8558C28.6361 57.8708 29.3467 61.4756 28.7446 64.9815C28.1424 68.4873 26.2698 71.6484 23.4844 73.8609C20.6991 76.0734 17.1962 77.1822 13.6451 76.9755C10.0939 76.7688 6.74341 75.261 4.23359 72.7402ZM5.00565 53.0519C2.49695 55.5603 1.08748 58.9626 1.08731 62.5103C1.08714 66.058 2.49628 69.4604 5.00474 71.9691C7.5132 74.4778 10.9155 75.8873 14.4632 75.8874C18.0108 75.8876 21.4133 74.4785 23.922 71.97C28.122 67.77 29.3445 60.8487 25.5333 54.9975L27.4553 49.5186L21.9782 51.4405L21.7548 51.2952C19.1812 49.6341 16.1171 48.9026 13.0707 49.2221C10.0242 49.5416 7.17858 50.8929 5.00565 53.0519Z" fill="#5E6175"/>
<path d="M17.5585 62.4219H21.6386L14.552 53.8929L7.46544 62.4219H11.2458V69.3541H17.5585V62.4219Z" fill="#177A4E"/>
<path d="M44.7713 46.1577C46.2511 46.1577 47.4508 44.958 47.4508 43.4782C47.4508 41.9984 46.2511 40.7987 44.7713 40.7987C43.2914 40.7987 42.0918 41.9984 42.0918 43.4782C42.0918 44.958 43.2914 46.1577 44.7713 46.1577Z" fill="#F5F5F5"/>
<path d="M44.7712 46.7029C44.1335 46.7029 43.51 46.5137 42.9798 46.1594C42.4495 45.8051 42.0362 45.3015 41.7922 44.7123C41.5481 44.1231 41.4843 43.4748 41.6087 42.8493C41.7331 42.2238 42.0402 41.6493 42.4912 41.1983C42.9421 40.7474 43.5166 40.4403 44.1421 40.3159C44.7676 40.1914 45.416 40.2553 46.0052 40.4994C46.5943 40.7434 47.0979 41.1567 47.4523 41.687C47.8066 42.2172 47.9957 42.8406 47.9957 43.4784C47.9947 44.3333 47.6547 45.1529 47.0502 45.7574C46.4457 46.3619 45.6261 46.7019 44.7712 46.7029ZM44.7712 41.3439C44.349 41.3439 43.9363 41.4691 43.5853 41.7036C43.2343 41.9381 42.9607 42.2715 42.7992 42.6615C42.6376 43.0516 42.5953 43.4808 42.6777 43.8948C42.7601 44.3089 42.9634 44.6892 43.2619 44.9877C43.5604 45.2862 43.9407 45.4895 44.3548 45.5719C44.7688 45.6542 45.198 45.612 45.588 45.4504C45.9781 45.2889 46.3114 45.0153 46.546 44.6643C46.7805 44.3132 46.9057 43.9006 46.9057 43.4784C46.9052 42.9124 46.6802 42.3698 46.28 41.9696C45.8798 41.5694 45.3372 41.3444 44.7712 41.3439Z" fill="#5E6175"/>
<path d="M65.3152 65.3432L64.545 64.573L65.3152 63.8027L66.0855 64.573L65.3152 65.3432ZM63.2607 63.2886L62.4886 62.5184L63.2607 61.7463L64.0309 62.5184L63.2607 63.2886ZM61.1788 61.4375C60.8947 61.2537 60.5985 61.0892 60.2923 60.9452L60.7556 59.9588C61.1067 60.1234 61.446 60.3122 61.771 60.5237L61.1788 61.4375ZM58.6919 60.4057C58.3607 60.3347 58.0251 60.2861 57.6873 60.2603L57.7691 59.1704C58.1562 59.2001 58.5409 59.2553 58.9208 59.3357L58.6919 60.4057ZM55.9107 60.2404H54.8207V59.1504H55.9107V60.2404ZM53.0041 60.2404H51.9141V59.1504H53.0041V60.2404ZM50.0975 60.2404H49.0076V59.1504H50.0975V60.2404ZM47.191 60.2404H46.101V59.1504H47.191V60.2404ZM44.2844 60.2404H43.1944V59.1504H44.2844V60.2404Z" fill="#A9AFC4"/>
<path d="M13.7603 6.3682L14.5309 5.59759L16.9815 8.04819L16.2109 8.8188L13.7603 6.3682ZM11.3166 10.7468H14.7827V11.8367H11.3166V10.7468ZM18.7029 3.05707H19.7929V6.52315H18.7029V3.05707ZM67.4443 2.53207C67.3683 2.19939 67.3757 1.85309 67.4658 1.52396C67.556 1.19483 67.726 0.893073 67.9609 0.645521C68.1958 0.39797 68.4882 0.212296 68.8122 0.105011C69.1361 -0.00227482 69.4815 -0.0278469 69.8177 0.030568C70.1539 0.0889828 70.4705 0.229574 70.7393 0.439841C71.0081 0.650107 71.2207 0.923532 71.3583 1.2358C71.4959 1.54807 71.5542 1.88951 71.5281 2.22975C71.5019 2.56999 71.3921 2.8985 71.2083 3.18605C70.9895 3.53161 70.6732 3.80452 70.2993 3.97023C69.9254 4.13595 69.5107 4.18704 69.1077 4.11703C68.7048 4.04702 68.3316 3.85906 68.0355 3.57692C67.7394 3.29479 67.5337 2.93117 67.4443 2.53207ZM68.507 2.29228C68.5494 2.48159 68.647 2.65409 68.7874 2.78794C68.9279 2.9218 69.1049 3.011 69.296 3.04428C69.4871 3.07756 69.6838 3.05341 69.8613 2.9749C70.0387 2.89638 70.1888 2.76702 70.2927 2.60318C70.3966 2.43933 70.4496 2.24836 70.4449 2.0544C70.4403 1.86045 70.3783 1.67223 70.2667 1.51353C70.155 1.35484 69.9989 1.2328 69.8179 1.16286C69.637 1.09291 69.4393 1.07819 69.25 1.12057C68.9966 1.17827 68.7763 1.33383 68.6371 1.55332C68.4979 1.77282 68.4511 2.03845 68.507 2.29228ZM78.6746 12.696C78.3719 12.6962 78.0754 12.6109 77.8191 12.4499C77.5629 12.289 77.3573 12.0589 77.2261 11.7861C77.095 11.5134 77.0435 11.2092 77.0778 10.9085C77.112 10.6078 77.2305 10.3229 77.4196 10.0866C77.6087 9.85036 77.8607 9.67233 78.1466 9.57307C78.4325 9.4738 78.7406 9.45734 79.0354 9.52557C79.3303 9.59381 79.5998 9.74397 79.813 9.95874C80.0262 10.1735 80.1744 10.4442 80.2405 10.7395C80.2926 10.9742 80.2915 11.2177 80.2371 11.4519C80.1827 11.6861 80.0765 11.9052 79.9262 12.0929C79.776 12.2806 79.5855 12.4323 79.3689 12.5366C79.1523 12.641 78.915 12.6955 78.6746 12.696ZM78.2386 10.8158C78.1931 10.8874 78.1661 10.9692 78.1598 11.0538C78.1535 11.1384 78.1682 11.2233 78.2025 11.3008C78.2369 11.3784 78.2898 11.4463 78.3567 11.4986C78.4235 11.5508 78.5022 11.5857 78.5858 11.6003C78.6694 11.6148 78.7553 11.6086 78.8359 11.582C78.9164 11.5554 78.9892 11.5094 79.0478 11.448C79.1063 11.3866 79.1488 11.3117 79.1715 11.2299C79.1941 11.1482 79.1963 11.0621 79.1778 10.9793C79.1555 10.8797 79.1041 10.789 79.0303 10.7186C78.9564 10.6482 78.8633 10.6013 78.7628 10.5837C78.6623 10.5662 78.5588 10.579 78.4655 10.6203C78.3722 10.6616 78.2932 10.7296 78.2386 10.8158Z" fill="#5E6175"/>
<path d="M23.7966 41.6128H31.4972V44.0107H23.7966V41.6128ZM58.739 41.6128H66.4396V44.0107H58.739V41.6128Z" fill="#177A4E"/>
<path d="M61.3932 38.962H63.7893V46.6626H61.3932V38.962Z" fill="#177A4E"/>
<defs>
<linearGradient id="paint0_linear_25_309" x1="20.9501" y1="47.6983" x2="20.9501" y2="62.6054" gradientUnits="userSpaceOnUse">
<stop stop-color="#CACFDD"/>
<stop offset="1" stop-color="#EEF0F1"/>
</linearGradient>
<linearGradient id="paint1_linear_25_309" x1="20.9501" y1="47.6984" x2="20.9501" y2="62.6055" gradientUnits="userSpaceOnUse">
<stop stop-color="#CACFDD"/>
<stop offset="1" stop-color="#EEF0F1"/>
</linearGradient>
<linearGradient id="paint2_linear_25_309" x1="20.95" y1="47.6984" x2="20.95" y2="62.6055" gradientUnits="userSpaceOnUse">
<stop stop-color="#CACFDD"/>
<stop offset="1" stop-color="#EEF0F1"/>
</linearGradient>
</defs>
</svg>
