<svg width="74" height="80" viewBox="0 0 74 80" fill="none" xmlns="http://www.w3.org/2000/svg">
<path d="M65.5412 46.7787V61.3208C65.5407 63.3914 64.7178 65.377 63.2535 66.841C61.7892 68.3049 59.8034 69.1273 57.7328 69.1273H28.4133C27.388 69.1276 26.3727 68.9258 25.4253 68.5336C24.478 68.1414 23.6172 67.5665 22.8921 66.8415C22.167 66.1166 21.5918 65.256 21.1993 64.3087C20.8069 63.3614 20.6049 62.3462 20.6049 61.3208V46.7787C20.6051 45.1831 21.1022 43.6272 22.0272 42.3271C22.9522 41.027 24.2591 40.0473 25.7665 39.5241C27.2766 39.0034 28.5865 38.0243 29.5135 36.7235C30.4405 35.4227 30.9384 33.8649 30.9378 32.2676V32.0013H55.2065V32.2676C55.2075 33.8623 55.7053 35.417 56.6307 36.7157C57.5561 38.0144 58.863 38.9926 60.37 39.5144C61.8804 40.037 63.1902 41.0176 64.1171 42.3197C65.044 43.6217 65.5418 45.1804 65.5412 46.7787Z" fill="#F5F5F5"/>
<path d="M55.9993 35.6685H30.1526C30.6767 34.6114 30.9487 33.4474 30.9474 32.2676V32.0013H55.2064V32.2676C55.2054 33.4471 55.4768 34.611 55.9993 35.6685Z" fill="url(#paint0_linear_27_442)"/>
<path d="M42.903 61.2333H60.5507V65.6097H42.903V61.2333ZM42.903 56.8568H60.5507V61.2333H42.903V56.8568Z" fill="white"/>
<path d="M61.1337 61.8165H42.3258V56.274H61.1395L61.1337 61.8165ZM43.486 60.6505H59.9677V57.4401H43.4919L43.486 60.6505Z" fill="#5E6175"/>
<path d="M42.903 52.4805H60.5507V56.857H42.903V52.4805ZM42.903 48.1022H60.5507V52.4786H42.903V48.1022ZM37.3722 43.7257H55.0199V48.1022H37.3722V43.7257ZM25.2573 56.857H42.905V61.2334H25.2573V56.857Z" fill="white"/>
<path d="M25.2573 52.4806H42.905V56.857H25.2573V52.4806ZM25.2573 48.1022H42.905V52.4786H25.2573V48.1022Z" fill="white"/>
<path d="M61.1337 66.1945H42.3259V60.6501H61.1395L61.1337 66.1945ZM43.486 65.0285H59.9677V61.8161H43.4919L43.486 65.0285ZM61.1337 57.4397H42.3259V51.8953H61.1395L61.1337 57.4397ZM43.486 56.2737H59.9677V53.0613H43.4919L43.486 56.2737Z" fill="#5E6175"/>
<path d="M61.1337 53.0615H42.3259V47.519H61.1395L61.1337 53.0615ZM43.486 51.8955H59.9677V48.6851H43.4919L43.486 51.8955Z" fill="#5E6175"/>
<path d="M55.6029 48.685H36.7892V43.1426H55.6029V48.685ZM37.9552 47.519H54.4369V44.3086H37.9552V47.519ZM43.4919 61.8163H24.6801V56.2739H43.4919V61.8163ZM25.8462 60.6503H42.3259V57.4399H25.8462V60.6503Z" fill="#5E6175"/>
<path d="M43.4919 57.4397H24.6801V51.8953H43.4919V57.4397ZM25.8461 56.2737H42.3258V53.0613H25.8461V56.2737Z" fill="#5E6175"/>
<path d="M43.4919 53.0615H24.6801V47.519H43.4919V53.0615ZM25.8461 51.8955H42.3258V48.6851H25.8461V51.8955Z" fill="#5E6175"/>
<path d="M42.903 26.8514C49.0046 26.8514 53.951 21.905 53.951 15.8034C53.951 9.70173 49.0046 4.75537 42.903 4.75537C36.8013 4.75537 31.855 9.70173 31.855 15.8034C31.855 21.905 36.8013 26.8514 42.903 26.8514Z" fill="#177A4E"/>
<path d="M43.3057 9.67993C44.1009 9.68079 44.8632 9.99337 45.4255 10.5491C45.9877 11.1048 46.304 11.8583 46.3049 12.6442L44.4242 12.6442C44.4242 12.4252 44.3585 12.211 44.2353 12.0289C44.1122 11.8468 43.9371 11.7049 43.7324 11.6212C43.5276 11.5374 43.3023 11.5156 43.0849 11.5584C42.8676 11.6013 42.668 11.7069 42.5114 11.8619C42.3548 12.0169 42.2482 12.2143 42.2052 12.4292C42.1621 12.6441 42.1846 12.8667 42.2696 13.069C42.3546 13.2713 42.4985 13.4441 42.6829 13.5656C42.8673 13.687 43.0841 13.7517 43.3057 13.7514C43.8988 13.7517 44.4785 13.9258 44.9715 14.2517C45.4645 14.5776 45.8487 15.0407 46.0754 15.5824C46.3022 16.1241 46.3613 16.72 46.2454 17.2949C46.1295 17.8699 45.8437 18.3979 45.4242 18.8123C45.0047 19.2267 44.4703 19.5088 43.8886 19.6231C43.3068 19.7373 42.7039 19.6785 42.1559 19.4541C41.608 19.2297 41.1397 18.8498 40.8102 18.3623C40.4807 17.8749 40.3049 17.3019 40.3049 16.7157L42.1855 16.7157C42.1855 16.9346 42.2512 17.1487 42.3743 17.3308C42.4974 17.5128 42.6723 17.6547 42.877 17.7385C43.0817 17.8223 43.3069 17.8443 43.5242 17.8015C43.7415 17.7588 43.9411 17.6534 44.0978 17.4985C44.2545 17.3437 44.3611 17.1464 44.4044 16.9316C44.4476 16.7169 44.4254 16.4943 44.3406 16.292C44.2558 16.0897 44.1123 15.9167 43.928 15.7951C43.7438 15.6734 43.5272 15.6085 43.3057 15.6085C42.5103 15.6085 41.7474 15.2962 41.1849 14.7403C40.6225 14.1844 40.3065 13.4304 40.3065 12.6442C40.3065 11.858 40.6225 11.1041 41.1849 10.5481C41.7474 9.99224 42.5103 9.67993 43.3057 9.67993Z" fill="#F5F5F5"/>
<path d="M42.3049 10.5555L42.3049 8.67993L44.3049 8.67993L44.3049 10.5555L42.3049 10.5555ZM42.3049 20.6799L42.3049 18.8043L44.3049 18.8043L44.3049 20.6799L42.3049 20.6799Z" fill="#F5F5F5"/>
<path d="M65.5412 56.779V61.3207C65.5407 63.3912 64.7178 65.3769 63.2535 66.8408C61.7892 68.3047 59.8034 69.1271 57.7328 69.1271H28.4133C27.388 69.1274 26.3727 68.9257 25.4253 68.5335C24.478 68.1413 23.6172 67.5663 22.8921 66.8414C22.167 66.1164 21.5918 65.2558 21.1993 64.3085C20.8069 63.3613 20.6049 62.346 20.6049 61.3207V50.3232C24.6922 49.2451 29.0341 49.7223 32.7898 51.6622C34.2861 52.429 35.9435 52.8287 37.6249 52.8282H43.7037C44.7807 52.8296 45.8464 53.0478 46.8372 53.4699C47.8281 53.8919 48.7238 54.5092 49.471 55.2848C50.2182 56.0605 50.8015 56.9787 51.1862 57.9846C51.571 58.9905 51.7492 60.0636 51.7103 61.1399C66.338 56.5031 65.1195 56.882 65.5412 56.779Z" fill="url(#paint1_linear_27_442)"/>
<path d="M57.5948 22.6034H29.2412C27.6087 22.6034 26.2854 23.9268 26.2854 25.5592V29.0437C26.2854 30.6762 27.6087 31.9995 29.2412 31.9995H57.5948C59.2273 31.9995 60.5507 30.6762 60.5507 29.0437V25.5592C60.5507 23.9268 59.2273 22.6034 57.5948 22.6034Z" fill="#DEE1EC"/>
<path d="M57.5948 22.6034H29.2412C27.6087 22.6034 26.2854 23.9268 26.2854 25.5592V29.0437C26.2854 30.6762 27.6087 31.9995 29.2412 31.9995H57.5948C59.2273 31.9995 60.5507 30.6762 60.5507 29.0437V25.5592C60.5507 23.9268 59.2273 22.6034 57.5948 22.6034Z" fill="url(#paint2_linear_27_442)"/>
<path d="M57.5948 32.5843H29.2412C28.303 32.5833 27.4034 32.2101 26.74 31.5467C26.0765 30.8832 25.7034 29.9837 25.7023 29.0455V25.5591C25.7044 24.6215 26.078 23.723 26.7414 23.0604C27.4047 22.3978 28.3036 22.0251 29.2412 22.0241H57.5948C58.5331 22.0251 59.4326 22.3983 60.0961 23.0618C60.7595 23.7252 61.1327 24.6247 61.1337 25.563V29.0494C61.1316 29.9869 60.758 30.8855 60.0947 31.5481C59.4314 32.2107 58.5324 32.5833 57.5948 32.5843ZM29.2412 23.1901C28.6122 23.1912 28.0093 23.4415 27.5645 23.8863C27.1197 24.331 26.8694 24.934 26.8684 25.563V29.0494C26.8694 29.6784 27.1197 30.2813 27.5645 30.7261C28.0093 31.1709 28.6122 31.4212 29.2412 31.4222H57.5948C58.224 31.4217 58.8272 31.1715 59.2721 30.7267C59.717 30.2818 59.9672 29.6785 59.9677 29.0494V25.5591C59.9661 24.9306 59.7155 24.3284 59.2708 23.8843C58.826 23.4403 58.2233 23.1906 57.5948 23.1901H29.2412ZM53.7736 5.25893L56.3569 2.67581L57.1813 3.50019L54.5984 6.0833L53.7736 5.25893ZM56.1082 8.0941H59.7617V9.26012H56.1082V8.0941ZM50.8203 0H51.9863V3.65352H50.8203V0Z" fill="#5E6175"/>
<path d="M57.7328 69.7102H28.4114C26.1872 69.7076 24.0548 68.8229 22.482 67.2501C20.9092 65.6774 20.0245 63.5449 20.0219 61.3207V46.7785C20.0232 45.0621 20.5585 43.3886 21.5538 41.9901C22.549 40.5916 23.9547 39.5375 25.576 38.974C26.9704 38.4914 28.1799 37.5865 29.0363 36.385C29.8927 35.1834 30.3535 33.7449 30.3548 32.2694V31.4182H55.7895V32.2694C55.7903 33.7437 56.2501 35.1812 57.105 36.3823C57.96 37.5834 59.1676 38.4886 60.5604 38.9721C62.1835 39.5344 63.5911 40.5882 64.5879 41.9872C65.5846 43.3862 66.1209 45.0608 66.1223 46.7785V61.3207C66.1198 63.5449 65.235 65.6774 63.6623 67.2501C62.0895 68.8229 59.9571 69.7076 57.7328 69.7102ZM31.515 32.592C31.4502 34.2538 30.886 35.8574 29.8958 37.1935C28.9057 38.5297 27.5357 39.5362 25.9647 40.0817C24.5705 40.5643 23.3614 41.4694 22.5053 42.6709C21.6492 43.8725 21.1887 45.311 21.1879 46.7863V61.3285C21.19 63.2436 21.9517 65.0798 23.3059 66.434C24.6601 67.7882 26.4962 68.5499 28.4114 68.552H57.7328C59.648 68.5499 61.4841 67.7882 62.8383 66.434C64.1926 65.0798 64.9543 63.2436 64.9563 61.3285V46.7785C64.9558 45.3042 64.4961 43.8665 63.6411 42.6654C62.7862 41.4642 61.5783 40.5591 60.1854 40.0759C58.6131 39.531 57.2418 38.5245 56.2506 37.1879C55.2594 35.8514 54.6943 34.247 54.6293 32.5842L31.515 32.592Z" fill="#5E6175"/>
<path d="M43.7037 65.6021C44.947 65.5769 46.1309 65.0654 47.0013 64.1772C47.8716 63.2891 48.3591 62.0951 48.3591 60.8516C48.3591 59.608 47.8716 58.414 47.0013 57.5259C46.1309 56.6377 44.947 56.1262 43.7037 56.101H37.6249C35.4211 56.1011 33.2494 55.5733 31.2915 54.5619C29.2443 53.5037 26.9647 52.975 24.6608 53.0243C22.3569 53.0735 20.1019 53.699 18.1019 54.8437L15.5327 56.3148V72.6759L35.0519 78.815C38.0405 79.6826 41.2231 79.6148 44.1721 78.6207L69.2414 70.0096C70.5125 69.5398 71.5525 68.5964 72.1437 67.377C72.7348 66.1576 72.8313 64.7568 72.4129 63.4679C71.9945 62.179 71.0936 61.1019 69.8989 60.4623C68.7043 59.8226 67.3085 59.67 66.0038 60.0363L49.1451 65.3883C48.687 65.5308 48.2101 65.6035 47.7304 65.604L43.7037 65.6021Z" fill="#DEE1EC"/>
<path d="M34.8906 79.3745L14.9497 73.1033V55.9765L17.8123 54.3382C19.895 53.1406 22.2453 52.4858 24.6472 52.4342C27.0492 52.3826 29.4255 52.9358 31.5577 54.0428C33.4343 55.0093 35.514 55.5149 37.6249 55.5178H43.7037C44.8092 55.518 45.8874 55.8617 46.7891 56.5015C47.6907 57.1412 48.3712 58.0454 48.7364 59.0889C49.1016 60.1324 49.1334 61.2636 48.8275 62.326C48.5216 63.3884 47.893 64.3295 47.0288 65.0189C47.7848 65.0189 48.2589 65.052 48.9721 64.8246L65.8269 59.4745C67.273 59.0771 68.8167 59.2522 70.137 59.9634C71.4574 60.6747 72.4528 61.8674 72.9165 63.2937C73.3802 64.72 73.2764 66.2701 72.6267 67.6218C71.977 68.9735 70.8314 70.0228 69.428 70.5517L44.3586 79.1627C41.2988 80.2015 37.9938 80.2755 34.8906 79.3745ZM16.1157 72.2482L35.2268 78.2571C38.0972 79.0921 41.1549 79.0242 43.9855 78.0628L69.0548 69.4517C70.181 69.0319 71.1015 68.1936 71.6246 67.1115C72.1477 66.0295 72.233 64.7873 71.8625 63.644C71.4921 62.5007 70.6947 61.5445 69.6364 60.9748C68.5782 60.4051 67.3409 60.2658 66.1826 60.5861L49.322 65.944C48.8067 66.1047 48.2701 66.1866 47.7303 66.1869H32.6207V65.0209H43.6979C44.7876 64.9973 45.8247 64.5479 46.5871 63.7689C47.3495 62.9899 47.7764 61.9433 47.7764 60.8533C47.7764 59.7634 47.3495 58.7168 46.5871 57.9378C45.8247 57.1587 44.7876 56.7093 43.6979 56.6858H37.6249C35.3261 56.6839 33.0609 56.1336 31.0174 55.0806C29.0578 54.0637 26.874 53.5557 24.6668 53.6032C22.4595 53.6508 20.2996 54.2523 18.3856 55.3527L16.1099 56.6547L16.1157 72.2482Z" fill="#5E6175"/>
<path d="M16.2013 52.4415V76.2671H0.514465V52.4415H16.2013Z" fill="#177A4E"/>
<path d="M8.3578 60.6832C9.47187 60.6832 10.375 59.7801 10.375 58.666C10.375 57.5519 9.47187 56.6488 8.3578 56.6488C7.24373 56.6488 6.34059 57.5519 6.34059 58.666C6.34059 59.7801 7.24373 60.6832 8.3578 60.6832Z" fill="#F5F5F5"/>
<defs>
<linearGradient id="paint0_linear_27_442" x1="30.1429" y1="33.8339" x2="55.9993" y2="33.8339" gradientUnits="userSpaceOnUse">
<stop stop-color="#CACFDD"/>
<stop offset="1" stop-color="#EEF0F1"/>
</linearGradient>
<linearGradient id="paint1_linear_27_442" x1="30.1429" y1="33.8338" x2="55.9993" y2="33.8338" gradientUnits="userSpaceOnUse">
<stop stop-color="#CACFDD"/>
<stop offset="1" stop-color="#EEF0F1"/>
</linearGradient>
<linearGradient id="paint2_linear_27_442" x1="26.2854" y1="27.3024" x2="60.5507" y2="27.3024" gradientUnits="userSpaceOnUse">
<stop stop-color="#CACFDD"/>
<stop offset="1" stop-color="#EEF0F1"/>
</linearGradient>
</defs>
</svg>
