<svg width="98" height="85" viewBox="0 0 98 85" fill="none" xmlns="http://www.w3.org/2000/svg">
<path d="M74.8226 68.1601L72.3433 50.7638C72.0463 48.6839 71.2264 46.7133 69.9604 45.0366C68.5763 43.2017 66.7094 41.7876 64.5683 40.9519L49.9841 35.2576H33.5756L18.9914 40.9519C16.9427 41.7522 15.1435 43.0824 13.7777 44.8064C12.412 46.5304 11.5288 48.5864 11.2186 50.7638L8.74153 68.1601C8.53269 69.6234 8.73798 71.1159 9.33412 72.4684C9.93026 73.8209 10.8934 74.9794 12.1144 75.8125L21.313 82.0872H62.2489L71.4476 75.8125C72.6689 74.9797 73.6325 73.8213 74.229 72.4688C74.8256 71.1162 75.0312 69.6236 74.8226 68.1601Z" fill="#F5F5F5"/>
<path d="M34.4297 35.2554L41.7798 40.7264L49.3468 35.2554H34.4297Z" fill="#DEE1EC"/>
<path d="M41.7799 35.2553C38.4109 35.2553 35.1798 33.917 32.7976 31.5348C30.4154 29.1525 29.077 25.9215 29.077 22.5525V16.1923C29.1991 12.9073 30.5899 9.79744 32.9572 7.51651C35.3244 5.23558 38.4838 3.96118 41.7711 3.96118C45.0584 3.96118 48.2178 5.23558 50.585 7.51651C52.9523 9.79744 54.3431 12.9073 54.4652 16.1923V22.5613C54.4629 25.9257 53.1259 29.1518 50.7477 31.5317C48.3695 33.9115 45.1443 35.2507 41.7799 35.2553Z" fill="#F5F5F5"/>
<path d="M0.638 83.6858H82.9217V84.9999H0.638V83.6858Z" fill="#5E6175"/>
<path d="M33.5777 35.2554H34.4297L41.7798 40.7263L34.7144 45.295L30.6035 36.4161L33.5777 35.2554Z" fill="#F5F5F5"/>
<path d="M49.9841 35.2554H49.3468L41.7798 40.7263L48.8452 45.295L52.9562 36.4161L49.9841 35.2554Z" fill="#F5F5F5"/>
<path d="M62.4504 82.7397H21.1092L11.7398 76.3554C10.412 75.4579 9.36446 74.2037 8.71781 72.7372C8.07116 71.2707 7.85162 69.6515 8.08446 68.0657L10.5637 50.6738C10.8913 48.3811 11.8218 46.2166 13.2603 44.4014C14.6987 42.5863 16.5933 41.1857 18.7505 40.3429L33.4507 34.5981H50.0958L64.8092 40.3429C66.9662 41.1862 68.8606 42.5873 70.2986 44.4028C71.7367 46.2183 72.6667 48.3832 72.9938 50.676L75.473 68.0657C75.7058 69.6515 75.4863 71.2707 74.8397 72.7372C74.193 74.2037 73.1455 75.4579 71.8177 76.3554L62.4504 82.7397ZM21.5144 81.4256H62.0452L71.0796 75.2647C72.2019 74.5055 73.0873 73.4452 73.6343 72.2055C74.1813 70.9658 74.3677 69.5971 74.1721 68.2563C74.1721 68.2782 74.1414 68.0373 71.6928 50.8643C71.3995 48.8009 70.5632 46.8524 69.2694 45.2184C67.9756 43.5844 66.2708 42.3236 64.3296 41.565L49.8593 35.91H33.7091L19.2301 41.565C17.2899 42.3232 15.5858 43.5831 14.2921 45.2159C12.9984 46.8486 12.1614 48.7956 11.8668 50.8578L9.39854 68.2519C9.20261 69.5929 9.38908 70.962 9.93652 72.2018C10.484 73.4416 11.3702 74.5017 12.4932 75.2604L21.5144 81.4256Z" fill="#5E6175"/>
<path d="M34.4363 46.2585L29.7144 36.059L33.4529 34.5981H34.6466L42.9319 40.7634L34.4363 46.2585ZM31.4928 36.7751L34.997 44.3333L40.6278 40.6889L34.2107 35.9122H33.7092L31.4928 36.7751Z" fill="#5E6175"/>
<path d="M49.1234 46.2585L40.6169 40.7568L49.1344 34.5981H50.1068L53.8454 36.059L49.1234 46.2585ZM42.9428 40.6889L48.5671 44.3268L52.0713 36.7686L49.8637 35.9057H49.5636L42.9428 40.6889Z" fill="#5E6175"/>
<path d="M43.9131 47.5506L46.2346 43.6083L41.7799 40.7283L37.3251 43.6083L39.6467 47.5506L36.1183 77.9498H47.4502C43.8539 47.0403 43.8912 47.5506 43.9131 47.5506Z" fill="#5E6175"/>
<path d="M16.6742 52.9537L19.9113 78.8762C19.9572 79.2434 20.1357 79.5812 20.4132 79.826C20.6907 80.0708 21.048 80.2058 21.4181 80.2057H62.1548C62.5248 80.2058 62.8822 80.0708 63.1597 79.826C63.4372 79.5812 63.6157 79.2434 63.6616 78.8762L66.8855 52.9537C66.9122 52.7404 66.8932 52.5238 66.8298 52.3183C66.7664 52.1129 66.66 51.9233 66.5177 51.7622C66.3754 51.601 66.2004 51.472 66.0044 51.3836C65.8084 51.2953 65.5958 51.2496 65.3808 51.2498H18.1789C17.9639 51.2496 17.7513 51.2953 17.5553 51.3836C17.3593 51.472 17.1843 51.601 17.042 51.7622C16.8997 51.9233 16.7933 52.1129 16.7299 52.3183C16.6665 52.5238 16.6475 52.7404 16.6742 52.9537Z" fill="url(#paint0_linear_30_728)"/>
<path d="M41.7799 71.213C44.1362 71.213 46.0463 69.3028 46.0463 66.9466C46.0463 64.5903 44.1362 62.6802 41.7799 62.6802C39.4236 62.6802 37.5135 64.5903 37.5135 66.9466C37.5135 69.3028 39.4236 71.213 41.7799 71.213Z" fill="#A9AFC4"/>
<path d="M62.8775 84.3427H20.6821C20.165 84.3422 19.6692 84.1363 19.3037 83.7704C18.9382 83.4045 18.7329 82.9085 18.7329 82.3913V80.2012H64.8267V82.3913C64.827 82.6475 64.7768 82.9012 64.6789 83.1379C64.5811 83.3747 64.4376 83.5898 64.2565 83.771C64.0755 83.9523 63.8605 84.0961 63.6239 84.1941C63.3873 84.2922 63.1336 84.3427 62.8775 84.3427Z" fill="#DEE1EC"/>
<path d="M62.1548 80.8625H21.4181C20.8887 80.8596 20.3782 80.665 19.9812 80.3147C19.5841 79.9644 19.3275 79.4821 19.2586 78.9571L16.0216 53.0389C15.9838 52.7332 16.0113 52.4229 16.1024 52.1286C16.1935 51.8343 16.3461 51.5627 16.55 51.3319C16.754 51.101 17.0047 50.9161 17.2855 50.7894C17.5663 50.6627 17.8708 50.5971 18.1789 50.5969H65.3809C65.6891 50.5967 65.9938 50.6621 66.2747 50.7887C66.5557 50.9153 66.8065 51.1002 67.0106 51.3311C67.2146 51.5621 67.3672 51.8338 67.4581 52.1283C67.5491 52.4227 67.5764 52.7331 67.5382 53.0389L64.3121 78.9571C64.246 79.4828 63.9904 79.9664 63.5933 80.3172C63.1961 80.668 62.6847 80.8619 62.1548 80.8625ZM20.553 78.7972C20.5787 79.0057 20.6797 79.1976 20.837 79.3368C20.9943 79.476 21.1971 79.5528 21.4072 79.5528H62.1438C62.3535 79.5523 62.5558 79.4752 62.7127 79.336C62.8695 79.1969 62.9702 79.0053 62.9958 78.7972L66.2241 52.8812C66.2393 52.7602 66.2286 52.6373 66.1926 52.5207C66.1566 52.4041 66.0962 52.2966 66.0154 52.2052C65.9346 52.1138 65.8352 52.0407 65.7239 51.9907C65.6126 51.9407 65.4919 51.9151 65.3699 51.9154H18.1789C18.057 51.9154 17.9365 51.9413 17.8254 51.9914C17.7142 52.0415 17.615 52.1146 17.5343 52.2059C17.4535 52.2972 17.3931 52.4047 17.3569 52.5211C17.3208 52.6375 17.3099 52.7603 17.3247 52.8812C17.3488 52.8769 17.2415 52.2001 20.553 78.7972Z" fill="#5E6175"/>
<path d="M62.8775 85.0001H20.6822C19.9909 84.9989 19.3284 84.7236 18.8398 84.2346C18.3512 83.7457 18.0765 83.0829 18.0759 82.3916V79.5444H65.4838V82.3916C65.4832 83.0829 65.2085 83.7457 64.7199 84.2346C64.2313 84.7236 63.5688 84.9989 62.8775 85.0001ZM19.39 80.8629V82.396C19.39 82.7389 19.5261 83.0678 19.7684 83.3105C20.0106 83.5532 20.3393 83.6898 20.6822 83.6904H62.8775C63.2204 83.6898 63.5491 83.5532 63.7914 83.3105C64.0336 83.0678 64.1697 82.7389 64.1697 82.396V80.8629H19.39ZM41.7799 35.9124C38.2366 35.9124 34.8385 34.5048 32.333 31.9993C29.8275 29.4939 28.42 26.0957 28.42 22.5525V16.1923C28.5452 12.7351 30.0067 9.46122 32.4968 7.05967C34.987 4.65813 38.3116 3.31616 41.7711 3.31616C45.2306 3.31616 48.5552 4.65813 51.0454 7.05967C53.5355 9.46122 54.997 12.7351 55.1222 16.1923V22.5612C55.1199 26.0999 53.7137 29.4932 51.2123 31.9963C48.7109 34.4993 45.3186 35.9077 41.7799 35.9124ZM41.7799 4.15527C38.5851 4.15527 35.5212 5.42438 33.2622 7.6834C31.0032 9.94242 29.7341 13.0063 29.7341 16.2011V22.57C29.8529 25.683 31.173 28.6288 33.4174 30.7892C35.6618 32.9496 38.6559 34.1565 41.7711 34.1565C44.8863 34.1565 47.8804 32.9496 50.1248 30.7892C52.3692 28.6288 53.6893 25.683 53.8081 22.57V16.1923C53.8058 13.0021 52.5381 9.94312 50.2831 7.68649C48.0281 5.42986 44.9701 4.15991 41.7799 4.15527ZM80.1359 69.093H84.3935V70.4071H80.1359V69.093ZM78.7493 65.2277L81.7594 62.2175L82.6885 63.1466L79.6783 66.1567L78.7493 65.2277ZM79.0121 74.1716L79.9412 73.2425L82.9513 76.2526L82.0222 77.1817L79.0121 74.1716Z" fill="#5E6175"/>
<path d="M57.2269 18.8706V20.66C57.2272 21.014 57.1574 21.3646 57.0217 21.6916C56.8861 22.0186 56.6871 22.3155 56.4363 22.5654L55.5778 23.4283C55.2628 23.7418 54.8754 23.9728 54.4498 24.1007C54.4893 23.4853 54.4761 23.6013 54.4761 16.1702C54.835 16.1632 55.1917 16.2279 55.5254 16.3605C55.859 16.4931 56.1628 16.6909 56.4189 16.9424C56.6751 17.1939 56.8785 17.494 57.0173 17.8251C57.156 18.1562 57.2273 18.5116 57.2269 18.8706ZM29.1099 24.0941C28.6927 23.9682 28.3123 23.7427 28.0017 23.4371L27.1387 22.5654C26.8882 22.3154 26.6896 22.0184 26.5543 21.6914C26.419 21.3644 26.3497 21.0139 26.3503 20.66V18.8706C26.35 18.5133 26.4206 18.1595 26.5581 17.8297C26.6957 17.5 26.8973 17.2008 27.1514 16.9495C27.4055 16.6983 27.7069 16.5001 28.0382 16.3663C28.3695 16.2325 28.7241 16.1658 29.0814 16.1702C29.0858 23.9058 29.0748 23.5356 29.1099 24.0941Z" fill="#F5F5F5"/>
<path d="M53.7337 24.9987C53.8454 23.2466 53.8191 24.7797 53.8191 15.5132H54.5287C55.4186 15.5143 56.2717 15.8685 56.9007 16.498C57.5298 17.1274 57.8834 17.9808 57.884 18.8707V20.66C57.8827 21.5496 57.5291 22.4024 56.9006 23.0319C55.4551 24.4818 55.6106 24.438 53.7337 24.9987ZM55.1332 16.9193V22.9487L55.972 22.1055C56.1615 21.9164 56.3118 21.6918 56.4144 21.4445C56.517 21.1972 56.5698 20.9321 56.5699 20.6644V18.875C56.5702 18.4385 56.4309 18.0132 56.1725 17.6614C55.914 17.3096 55.5499 17.0495 55.1332 16.9193ZM29.8282 24.9987C27.9601 24.4314 28.1287 24.484 26.6788 23.0276C26.0506 22.3989 25.6977 21.5466 25.6976 20.6578V18.8685C25.6982 17.9786 26.0518 17.1253 26.6809 16.4958C27.3099 15.8663 28.163 15.5121 29.0529 15.511H29.7428C29.7428 24.8125 29.7144 23.2378 29.8282 24.9987ZM28.4287 16.9258C28.0173 17.0587 27.6586 17.3184 27.404 17.6678C27.1494 18.0173 27.0121 18.4383 27.0117 18.8707V20.66C27.012 21.1992 27.2253 21.7164 27.6052 22.0989L28.4287 22.9246V16.9258Z" fill="#5E6175"/>
<path d="M27.6797 15.349C28.1026 15.459 28.5467 15.459 28.9697 15.349C30.3889 14.8475 32.7236 13.3166 34.1165 10.7497H34.5545C34.5545 10.7497 37.7587 15.349 44.7453 15.349H55.8844V14.8935C55.8844 13.0658 55.5243 11.256 54.8248 9.56748C54.1254 7.87894 53.1001 6.34474 51.8076 5.05247C50.5152 3.76021 48.9808 2.7352 47.2922 2.03597C45.6035 1.33675 43.7937 0.977007 41.966 0.977295H41.5937C37.9029 0.977295 34.3632 2.44346 31.7534 5.05325C29.1437 7.66304 27.6775 11.2027 27.6775 14.8935L27.6797 15.349Z" fill="#177A4E"/>
<path d="M28.3827 16.0913C27.9201 16.0796 27.4617 15.9991 27.0227 15.8526V14.8933C27.0273 11.03 28.5639 7.3263 31.2954 4.59436C34.0269 1.86242 37.7304 0.325285 41.5937 0.320068H41.9638C45.8275 0.324705 49.5315 1.86158 52.2635 4.59359C54.9955 7.32559 56.5324 11.0297 56.5371 14.8933V16.0059H44.7431C38.7684 16.0059 35.4438 12.8214 34.3837 11.5927C32.9842 13.8376 30.816 15.3926 29.1887 15.973C28.9287 16.0576 28.6561 16.0976 28.3827 16.0913ZM28.3368 14.7772C28.4765 14.785 28.6165 14.7687 28.7507 14.729C29.8808 14.3282 32.1607 12.9769 33.5383 10.4363L33.7267 10.0925H34.894C36.69 12.6659 40.2884 14.6918 44.7497 14.6918H55.2295C55.1727 11.2108 53.7505 7.89146 51.2696 5.44902C48.7887 3.00659 45.4475 1.63656 41.966 1.63415H41.5937C38.0988 1.6386 34.7466 3.02114 32.2647 5.48174C29.7828 7.94234 28.3713 11.2825 28.3368 14.7772ZM11.7858 33.4088C11.3689 33.4092 10.9613 33.2859 10.6145 33.0546C10.2677 32.8232 9.99726 32.4942 9.83752 32.1091C9.67779 31.7241 9.63588 31.3003 9.7171 30.8913C9.79833 30.4824 9.99904 30.1068 10.2938 29.812C10.5886 29.5172 10.9642 29.3165 11.3731 29.2353C11.782 29.1541 12.2059 29.196 12.5909 29.3557C12.976 29.5155 13.3051 29.7859 13.5364 30.1327C13.7677 30.4795 13.891 30.8871 13.8906 31.304C13.8894 31.8619 13.6673 32.3966 13.2728 32.791C12.8784 33.1855 12.3437 33.4076 11.7858 33.4088ZM11.7858 30.5112C11.6289 30.5108 11.4754 30.5569 11.3448 30.6438C11.2141 30.7306 11.1121 30.8543 11.0518 30.9991C10.9914 31.1439 10.9754 31.3034 11.0058 31.4574C11.0361 31.6113 11.1115 31.7528 11.2223 31.8639C11.333 31.975 11.4743 32.0507 11.6282 32.0815C11.782 32.1122 11.9415 32.0967 12.0865 32.0367C12.2315 31.9768 12.3555 31.8752 12.4427 31.7447C12.5299 31.6143 12.5765 31.4609 12.5765 31.304C12.5759 31.0943 12.4925 30.8933 12.3444 30.7448C12.1963 30.5963 11.9955 30.5124 11.7858 30.5112ZM3.60565 44.0704C3.03343 44.0704 2.47406 43.9007 1.99828 43.5828C1.5225 43.2649 1.15167 42.813 0.932695 42.2844C0.713717 41.7557 0.656422 41.174 0.768056 40.6128C0.87969 40.0516 1.15524 39.536 1.55986 39.1314C1.96448 38.7268 2.47999 38.4512 3.04121 38.3396C3.60244 38.228 4.18416 38.2853 4.71282 38.5043C5.24148 38.7232 5.69333 39.0941 6.01124 39.5698C6.32914 40.0456 6.49883 40.605 6.49883 41.1772C6.49825 41.9443 6.19324 42.6799 5.65079 43.2224C5.10834 43.7648 4.37279 44.0698 3.60565 44.0704ZM3.60565 39.5981C3.29333 39.5981 2.98803 39.6907 2.72835 39.8642C2.46867 40.0378 2.26627 40.2844 2.14675 40.5729C2.02723 40.8615 1.99596 41.179 2.05689 41.4853C2.11782 41.7916 2.26822 42.073 2.48906 42.2938C2.7099 42.5146 2.99127 42.665 3.29758 42.726C3.60389 42.7869 3.9214 42.7556 4.20994 42.6361C4.49848 42.5166 4.7451 42.3142 4.91861 42.0545C5.09213 41.7948 5.18474 41.4895 5.18474 41.1772C5.18503 40.9695 5.14441 40.7639 5.06521 40.5719C4.98601 40.3799 4.86977 40.2055 4.72314 40.0584C4.57651 39.9114 4.40235 39.7947 4.21061 39.7149C4.01887 39.6352 3.8133 39.594 3.60565 39.5937V39.5981Z" fill="#5E6175"/>
<path d="M94.4243 7.39429H71.419C69.9942 7.39429 68.8391 8.54939 68.8391 9.97428V23.9233C68.8391 25.3482 69.9942 26.5033 71.419 26.5033H94.4243C95.8492 26.5033 97.0043 25.3482 97.0043 23.9233V9.97428C97.0043 8.54939 95.8492 7.39429 94.4243 7.39429Z" fill="#F5F5F5"/>
<path d="M94.4243 27.1604H71.4278C70.5699 27.1598 69.7472 26.8189 69.1403 26.2124C68.5334 25.606 68.192 24.7835 68.1908 23.9256V9.97436C68.1931 9.11847 68.5338 8.29823 69.1386 7.69262C69.7434 7.087 70.5632 6.74517 71.4191 6.7417H94.4156C95.2745 6.74054 96.0988 7.08033 96.7073 7.68644C97.3159 8.29256 97.6591 9.11544 97.6614 9.97436V23.9256C97.6602 24.7835 97.3187 25.606 96.7119 26.2124C96.105 26.8189 95.2823 27.1598 94.4243 27.1604ZM71.4191 8.05579C70.9092 8.05637 70.4205 8.25915 70.06 8.61965C69.6995 8.98014 69.4967 9.46892 69.4961 9.97873V23.93C69.4967 24.4396 69.6996 24.9281 70.0601 25.2883C70.4207 25.6484 70.9094 25.8507 71.4191 25.8507H94.4156C94.9252 25.8507 95.414 25.6484 95.7745 25.2883C96.1351 24.9281 96.3379 24.4396 96.3385 23.93V9.97873C96.338 9.47043 96.1364 8.98298 95.7778 8.62273C95.4192 8.26248 94.9326 8.05868 94.4243 8.05579H71.4191Z" fill="#5E6175"/>
<path d="M76.728 18.4982C77.5832 18.4982 78.2764 17.805 78.2764 16.9498C78.2764 16.0946 77.5832 15.4014 76.728 15.4014C75.8728 15.4014 75.1796 16.0946 75.1796 16.9498C75.1796 17.805 75.8728 18.4982 76.728 18.4982Z" fill="#177A4E"/>
<path d="M82.9217 18.4982C83.7769 18.4982 84.4702 17.805 84.4702 16.9498C84.4702 16.0946 83.7769 15.4014 82.9217 15.4014C82.0665 15.4014 81.3733 16.0946 81.3733 16.9498C81.3733 17.805 82.0665 18.4982 82.9217 18.4982Z" fill="#177A4E"/>
<path d="M89.1155 18.4982C89.9706 18.4982 90.6639 17.805 90.6639 16.9498C90.6639 16.0946 89.9706 15.4014 89.1155 15.4014C88.2603 15.4014 87.567 16.0946 87.567 16.9498C87.567 17.805 88.2603 18.4982 89.1155 18.4982Z" fill="#177A4E"/>
<path d="M83.1056 57.2466H81.7915V55.9325H83.1056V57.2466ZM79.6014 57.2466H78.2873V55.9325H79.6014V57.2466ZM76.0972 57.2466H74.9035V55.9325H76.0972V57.2466ZM85.4381 57.0473L85.1228 55.7726C85.5012 55.6779 85.8683 55.5427 86.2178 55.3696L86.8026 56.5457C86.3675 56.7623 85.9099 56.9305 85.4381 57.0473ZM88.7387 55.1068L87.7794 54.2088C88.0463 53.923 88.282 53.6095 88.4824 53.2736L89.6104 53.946C89.362 54.3629 89.0697 54.752 88.7387 55.1068ZM90.4536 51.6836L89.1592 51.4536C89.2275 51.0596 89.2561 50.6597 89.2446 50.26H90.5587C90.5701 50.7368 90.5349 51.2136 90.4536 51.6836ZM90.5587 48.0699H89.2446V46.7558H90.5587V48.0699ZM90.5587 44.5656H89.2446V43.2515H90.5587V44.5656ZM90.5587 41.0614H89.2446V39.7473H90.5587V41.0614ZM90.5587 37.5572H89.2446V36.2431H90.5587V37.5572ZM90.5587 34.0529H89.2446V32.7388H90.5587V34.0529ZM90.5587 30.5487H89.2446V29.2346H90.5587V30.5487ZM69.2092 55.9325H70.5233V57.2466H69.2092V55.9325Z" fill="#A9AFC4"/>
<defs>
<linearGradient id="paint0_linear_30_728" x1="41.7798" y1="80.2057" x2="41.7798" y2="52.5989" gradientUnits="userSpaceOnUse">
<stop stop-color="#CACFDD"/>
<stop offset="1" stop-color="#EEF0F1"/>
</linearGradient>
</defs>
</svg>
