<svg width="81" height="85" viewBox="0 0 81 85" fill="none" xmlns="http://www.w3.org/2000/svg">
<path d="M37.4481 59.3C34.4136 69.0075 36.0518 63.763 29.7258 84.0131H22.7402C29.4046 62.6943 27.8263 67.7376 30.4625 59.3H37.4481Z" fill="url(#paint0_linear_30_612)"/>
<path d="M30.4625 59.3L22.7423 84.0131H19.4272L27.1474 59.3022L30.4625 59.3Z" fill="url(#paint1_linear_30_612)"/>
<path d="M30.4625 59.3L22.7423 84.0131H19.4272L27.1474 59.3022L30.4625 59.3Z" fill="url(#paint2_linear_30_612)"/>
<path d="M67.0738 84.0129H59.9811C50.0016 61.1587 52.141 66.0606 49.1879 59.2999H54.2847L55.8651 58.3276L67.0738 84.0129Z" fill="url(#paint3_linear_30_612)"/>
<path d="M59.981 84.0131H56.3405C52.6228 75.5027 49.3506 68.0096 45.5494 59.3H49.1899C52.1816 66.1529 49.6868 60.4372 59.981 84.0131Z" fill="url(#paint4_linear_30_612)"/>
<path d="M59.981 84.0131H56.3405C52.6228 75.5027 49.3506 68.0096 45.5494 59.3H49.1899C52.1816 66.1529 49.6868 60.4372 59.981 84.0131Z" fill="url(#paint5_linear_30_612)"/>
<path d="M21.7293 53.5115L2.14737 84.013H5.40675L24.9909 53.5115H21.7293Z" fill="url(#paint6_linear_30_612)"/>
<path d="M21.7294 53.5117L17.1187 60.6837C17.8668 61.2233 18.6299 61.7273 19.408 62.1956L24.9909 53.5032L21.7294 53.5117Z" fill="url(#paint7_linear_30_612)"/>
<path d="M37.4481 59.3L35.1545 66.6347C31.8215 66.6316 28.5121 66.0751 25.3614 64.9879L27.1367 59.3H37.4481Z" fill="url(#paint8_linear_30_612)"/>
<path d="M57.2742 61.5677C54.4907 63.3574 51.3986 64.6137 48.1556 65.2726L45.5473 59.2999H54.2868L55.8651 58.3276L57.2742 61.5677Z" fill="url(#paint9_linear_30_612)"/>
<path d="M30.2055 84.6556H18.5514L26.6741 58.6576H38.3304L30.2055 84.6556ZM20.301 83.3707H29.2611L36.5915 59.9426H27.6185L20.301 83.3707ZM5.75371 84.6556H0.97171L21.3867 52.8691H26.1752L5.75371 84.6556ZM3.31881 83.3707H5.05129L23.8109 54.154H22.0763L3.31881 83.3707ZM68.0546 84.6556H55.9143L44.5643 58.6576H54.1005L56.1499 57.3899L68.0546 84.6556ZM56.7559 83.3707H66.0908L55.5653 59.2637L54.4667 59.9426H46.5281L56.7559 83.3707Z" fill="#5E6175"/>
<path d="M74.1472 1.92041C74.1472 3.7379 73.4252 5.48094 72.14 6.7661C70.8549 8.05125 69.1118 8.77325 67.2943 8.77325C69.1118 8.77325 70.8549 9.49524 72.14 10.7804C73.4252 12.0656 74.1472 13.8086 74.1472 15.6261C74.1472 13.8086 74.8692 12.0656 76.1543 10.7804C77.4395 9.49524 79.1825 8.77325 81 8.77325C79.1825 8.77325 77.4395 8.05125 76.1543 6.7661C74.8692 5.48094 74.1472 3.7379 74.1472 1.92041ZM7.68108 53.5801C7.68108 54.2616 7.41033 54.9153 6.9284 55.3972C6.44647 55.8791 5.79282 56.1499 5.11127 56.1499C5.79282 56.1499 6.44647 56.4206 6.9284 56.9026C7.41033 57.3845 7.68108 58.0382 7.68108 58.7197C7.68108 58.0382 7.95183 57.3845 8.43376 56.9026C8.91569 56.4206 9.56934 56.1499 10.2509 56.1499C9.56934 56.1499 8.91569 55.8791 8.43376 55.3972C7.95183 54.9153 7.68108 54.2616 7.68108 53.5801Z" fill="#177A4E"/>
<path d="M67.8576 62.131C67.4692 62.132 67.0858 62.045 66.7359 61.8765C66.386 61.7081 66.0789 61.4625 65.8376 61.1583C65.5962 60.8541 65.427 60.4992 65.3425 60.1202C65.258 59.7412 65.2605 59.348 65.3498 58.9701C65.4281 58.6422 65.5706 58.3332 65.7691 58.0608C65.9676 57.7884 66.2181 57.5581 66.5063 57.3832C68.4336 56.2054 70.8749 57.9486 70.3374 60.1672C70.2023 60.7242 69.8848 61.22 69.4354 61.5758C68.9861 61.9317 68.4307 62.1271 67.8576 62.131ZM66.6091 59.2656C66.548 59.5128 66.5618 59.7726 66.6487 60.0119C66.7356 60.2513 66.8916 60.4594 67.097 60.6099C67.3024 60.7605 67.5478 60.8466 67.8022 60.8573C68.0566 60.8681 68.3085 60.803 68.5258 60.6704C68.7432 60.5377 68.9162 60.3435 69.023 60.1123C69.1298 59.8812 69.1655 59.6235 69.1255 59.372C69.0856 59.1205 68.9718 58.8866 68.7987 58.6999C68.6255 58.5132 68.4008 58.3821 68.1531 58.3233C67.8235 58.2452 67.4763 58.3003 67.1872 58.4768C66.898 58.6532 66.6902 58.9367 66.6091 59.2656ZM73.13 72.2282C73.2047 71.9113 73.3566 71.6179 73.5721 71.3739C73.7876 71.1299 74.06 70.9429 74.3652 70.8295C74.6703 70.7161 74.9988 70.6798 75.3213 70.7239C75.6439 70.7679 75.9505 70.891 76.2141 71.0821C76.4776 71.2732 76.6899 71.5265 76.832 71.8194C76.9741 72.1122 77.0417 72.4357 77.0287 72.761C77.0158 73.0863 76.9227 73.4033 76.7577 73.6839C76.5927 73.9646 76.361 74.2002 76.0831 74.3697C75.7502 74.5728 75.3647 74.6729 74.975 74.6573C74.5854 74.6418 74.209 74.5114 73.8933 74.2824C73.5776 74.0535 73.3367 73.7363 73.2009 73.3708C73.065 73.0053 73.0404 72.6077 73.13 72.2282ZM75.0573 72.0012C74.9511 72.0025 74.8466 72.0282 74.7519 72.0764C74.6573 72.1246 74.5749 72.1939 74.5114 72.279C74.4478 72.3642 74.4048 72.4628 74.3855 72.5672C74.3662 72.6717 74.3712 72.7792 74.4002 72.8814C74.4291 72.9836 74.4812 73.0778 74.5525 73.1566C74.6237 73.2354 74.7121 73.2968 74.8108 73.3359C74.9096 73.375 75.016 73.3909 75.1219 73.3823C75.2278 73.3736 75.3303 73.3407 75.4214 73.2861C75.554 73.2088 75.6571 73.0894 75.7142 72.9469C75.7713 72.8043 75.7792 72.6468 75.7367 72.4993C75.6941 72.3518 75.6036 72.2227 75.4793 72.1324C75.3551 72.0422 75.2043 71.996 75.0509 72.0012H75.0573Z" fill="#5E6175"/>
<path d="M59.0774 31.7433C58.1158 18.7978 50.3122 8.33225 40.337 5.18851L40.2278 3.68945L32.5462 4.26124C19.0868 5.26561 9.15658 19.1876 10.3558 35.3603C11.5551 51.533 23.4362 63.8424 36.8892 62.838L44.5708 62.2662L44.4594 60.78C53.8606 56.1865 60.0325 44.6908 59.0774 31.7433Z" fill="#A9AFC4"/>
<path d="M44.5703 62.27C58.7959 61.2129 69.3536 47.2442 68.1517 31.0701C66.9498 14.896 54.4433 2.64127 40.2176 3.69842C25.992 4.75556 15.4343 18.7242 16.6362 34.8983C17.8382 51.0724 30.3447 63.3271 44.5703 62.27Z" fill="#F5F5F5"/>
<path d="M6.39617 28.8928L5.11127 28.775C5.14981 28.3467 5.19907 27.9056 5.25261 27.4773L6.53751 27.6379C6.48184 28.0512 6.43472 28.4752 6.39617 28.8928ZM6.85446 25.5627L5.59097 25.3315C5.66806 24.9032 5.75372 24.4749 5.84795 24.0466L7.10287 24.3207C7.01293 24.7297 6.92941 25.1452 6.85446 25.5627ZM7.61041 22.282L6.37262 21.9222C6.48826 21.4939 6.61461 21.0806 6.74524 20.6694L7.97018 21.0656C7.84384 21.4639 7.72177 21.8708 7.61041 22.2755V22.282ZM8.66618 19.089L7.46693 18.62C7.62326 18.2152 7.78816 17.8062 7.95734 17.4079L9.13945 17.9133C8.97669 18.2966 8.81608 18.6906 8.66618 19.0825V19.089ZM10.0239 16.0138L8.87604 15.4355C9.07092 15.0479 9.27651 14.6582 9.48423 14.277L10.6107 14.898C10.4094 15.2578 10.2123 15.6326 10.0239 16.0073V16.0138ZM11.6836 13.0927L10.6 12.401C10.8355 12.0327 11.0797 11.6665 11.3281 11.311L12.3817 12.0477C12.144 12.3817 11.9084 12.733 11.6836 13.0863V13.0927ZM13.6409 10.358L12.6408 9.55067C12.9149 9.21017 13.1998 8.87395 13.4974 8.5463L14.4611 9.40291C14.1763 9.71557 13.9043 10.0389 13.6409 10.358ZM15.8895 7.87601L14.9901 6.9573C15.3049 6.65106 15.6325 6.34911 15.9495 6.06001L16.8061 7.01726C16.4977 7.29994 16.1893 7.58905 15.8895 7.88243V7.87601ZM18.4186 5.68738L17.6391 4.66588C17.9882 4.40033 18.3458 4.14121 18.7099 3.89494L19.438 4.96569C19.0911 5.19484 18.7484 5.43254 18.4186 5.69381V5.68738ZM21.2026 3.84782L20.5601 2.72996C20.9413 2.5158 21.3311 2.30165 21.7208 2.10892L22.2969 3.25891C21.9328 3.4495 21.5624 3.64866 21.2004 3.85425L21.2026 3.84782ZM24.2007 2.40659L23.7274 1.21162C24.1365 1.05101 24.5541 0.898964 24.9674 0.759766L25.3742 1.97829C24.9845 2.11534 24.599 2.26097 24.2028 2.41301L24.2007 2.40659Z" fill="#A9AFC4"/>
<path d="M40.7738 11.159C30.1669 11.947 22.3054 22.3505 23.2006 34.4072C24.0957 46.4639 33.4156 55.591 44.0139 54.8051C54.6123 54.0192 62.4845 43.6093 61.5915 31.559C60.6985 19.5087 51.3679 10.373 40.7738 11.159ZM43.4207 46.8151C36.7028 47.3141 30.7965 41.5256 30.229 33.8847C29.6615 26.2438 34.6491 19.6479 41.3649 19.1489C48.0807 18.65 53.9998 24.4385 54.5587 32.0794C55.1177 39.7203 50.1429 46.3161 43.4207 46.8151Z" fill="#177A4E"/>
<path d="M42.6703 41.9204C38.677 41.9204 35.4393 38.1776 35.4393 33.5708C35.4393 28.964 38.677 25.2336 42.6703 25.2336C46.6636 25.2336 49.9012 28.9765 49.9012 33.5801C49.9012 38.1838 46.6666 41.9204 42.6703 41.9204Z" fill="#177A4E"/>
<path d="M35.3686 63.536C22.2433 63.536 10.8933 51.2801 9.71548 35.4136C8.49054 18.9133 18.7098 4.65511 32.4926 3.63146L40.1742 3.06182C47.2412 2.53715 54.1112 5.16693 59.5206 10.4693C64.9301 15.7717 68.2023 23.0486 68.7955 31.0278C70.0204 47.5282 59.1737 61.8335 44.6178 62.9149C36.388 63.5188 36.4201 63.536 35.3686 63.536ZM41.9452 4.27392C40.8402 4.27392 40.9923 4.27392 32.5932 4.91637C19.5108 5.87791 9.82256 19.5172 10.9982 35.313C12.1268 50.5177 22.9029 62.2511 35.3665 62.2511C36.3687 62.2511 36.1246 62.251 44.5215 61.6257C58.3728 60.5978 68.6863 46.9114 67.5127 31.1156C66.9431 23.449 63.7865 16.4398 58.6212 11.3795C53.9099 6.76235 48.04 4.27392 41.9452 4.27392Z" fill="#5E6175"/>
<path d="M41.761 30.0278H43.046V36.401H41.761V30.0278Z" fill="white"/>
<path d="M39.2169 32.5718H45.5901V33.8567H39.2169V32.5718Z" fill="white"/>
<defs>
<linearGradient id="paint0_linear_30_612" x1="30.0984" y1="56.1113" x2="30.0984" y2="92.2793" gradientUnits="userSpaceOnUse">
<stop stop-color="#CACFDD"/>
<stop offset="1" stop-color="#EEF0F1"/>
</linearGradient>
<linearGradient id="paint1_linear_30_612" x1="30.0984" y1="56.1113" x2="30.0984" y2="92.2793" gradientUnits="userSpaceOnUse">
<stop stop-color="#CACFDD"/>
<stop offset="1" stop-color="#EEF0F1"/>
</linearGradient>
<linearGradient id="paint2_linear_30_612" x1="30.0984" y1="56.1113" x2="30.0984" y2="92.2793" gradientUnits="userSpaceOnUse">
<stop stop-color="#CACFDD"/>
<stop offset="1" stop-color="#EEF0F1"/>
</linearGradient>
<linearGradient id="paint3_linear_30_612" x1="30.0984" y1="56.1112" x2="30.0984" y2="92.2792" gradientUnits="userSpaceOnUse">
<stop stop-color="#CACFDD"/>
<stop offset="1" stop-color="#EEF0F1"/>
</linearGradient>
<linearGradient id="paint4_linear_30_612" x1="30.0984" y1="56.1113" x2="30.0984" y2="92.2793" gradientUnits="userSpaceOnUse">
<stop stop-color="#CACFDD"/>
<stop offset="1" stop-color="#EEF0F1"/>
</linearGradient>
<linearGradient id="paint5_linear_30_612" x1="30.0984" y1="56.1113" x2="30.0984" y2="92.2793" gradientUnits="userSpaceOnUse">
<stop stop-color="#CACFDD"/>
<stop offset="1" stop-color="#EEF0F1"/>
</linearGradient>
<linearGradient id="paint6_linear_30_612" x1="30.0984" y1="56.1113" x2="30.0984" y2="92.2793" gradientUnits="userSpaceOnUse">
<stop stop-color="#CACFDD"/>
<stop offset="1" stop-color="#EEF0F1"/>
</linearGradient>
<linearGradient id="paint7_linear_30_612" x1="30.0984" y1="56.1115" x2="30.0984" y2="92.2795" gradientUnits="userSpaceOnUse">
<stop stop-color="#CACFDD"/>
<stop offset="1" stop-color="#EEF0F1"/>
</linearGradient>
<linearGradient id="paint8_linear_30_612" x1="30.0984" y1="56.1113" x2="30.0984" y2="92.2793" gradientUnits="userSpaceOnUse">
<stop stop-color="#CACFDD"/>
<stop offset="1" stop-color="#EEF0F1"/>
</linearGradient>
<linearGradient id="paint9_linear_30_612" x1="30.0984" y1="56.1112" x2="30.0984" y2="92.2791" gradientUnits="userSpaceOnUse">
<stop stop-color="#CACFDD"/>
<stop offset="1" stop-color="#EEF0F1"/>
</linearGradient>
</defs>
</svg>
