<svg width="103" height="86" viewBox="0 0 103 86" fill="none" xmlns="http://www.w3.org/2000/svg">
<path d="M8.42371 10.6372H92.9395V72.4767H8.42371V10.6372Z" fill="#F5F5F5"/>
<path d="M84.3996 36.1337C83.9373 35.6706 83.6085 35.0915 83.4477 34.4573C83.2869 33.823 83.3 33.1572 83.4858 32.5298L80.6725 29.7165C78.5083 31.4389 75.9218 32.5495 73.1826 32.9328C70.4433 33.3161 67.6514 32.958 65.0976 31.8958C62.5437 30.8336 60.3213 29.1062 58.6618 26.8934C57.0023 24.6806 55.9664 22.0633 55.6619 19.3142C55.3244 22.3521 55.8943 25.4218 57.2997 28.1361C58.7051 30.8503 60.8831 33.0875 63.5587 34.5652C66.2342 36.0429 69.2876 36.6949 72.3334 36.439C75.3792 36.1831 78.281 35.0308 80.6725 33.1274L83.4695 35.9407C83.2827 36.5678 83.2688 37.2337 83.4292 37.8681C83.5896 38.5024 83.9185 39.0816 84.381 39.5445L92.9302 48.0914V44.6806L84.3996 36.1337Z" fill="url(#paint0_linear_30_799)"/>
<path d="M93.637 73.1742H7.7262V9.93262H93.637V73.1742ZM9.12123 71.7791H92.242V11.3277H9.12123V71.7791Z" fill="#5E6175"/>
<path d="M16.9962 17.8611H24.648V20.5396H16.9962V17.8611ZM28.3541 17.8611H44.5807V20.5396H28.3541V17.8611ZM16.9962 24.248H52.0395V26.9265H16.9962V24.248ZM16.9962 30.6349H52.0395V33.3134H16.9962V30.6349Z" fill="#DEE1EC"/>
<path d="M22.9971 52.3044H15.2477C15.2446 54.1183 15.6002 55.9149 16.2942 57.5908C16.9881 59.2668 18.0065 60.7889 19.291 62.0697L24.7688 56.5779C23.635 55.4447 22.9977 53.9075 22.9971 52.3044Z" fill="#A9AFC4"/>
<path d="M29.0469 38.5076V46.257C30.6502 46.257 32.1878 46.8939 33.3215 48.0276C34.4552 49.1612 35.0921 50.6989 35.0921 52.3021C35.0921 57.666 28.5633 60.3863 24.7688 56.5779L19.298 62.0604C20.9021 63.6645 22.8769 64.8482 25.0477 65.5069C27.2185 66.1656 29.5182 66.2789 31.7432 65.8367C33.9682 65.3945 36.0498 64.4105 37.8037 62.9718C39.5577 61.5331 40.9298 59.6841 41.7986 57.5886C42.6675 55.4931 43.0062 53.2156 42.7848 50.958C42.5634 48.7003 41.7887 46.532 40.5294 44.6452C39.27 42.7583 37.5649 41.2111 35.5649 40.1406C33.5648 39.07 31.3317 38.5091 29.0632 38.5076H29.0469Z" fill="#177A4E"/>
<path d="M29.0446 38.5076C28.2937 38.5092 27.5441 38.5714 26.8032 38.6936C23.9668 39.161 21.3471 40.5024 19.31 42.5308C17.273 44.5591 15.9202 47.173 15.4407 50.0073C15.3091 50.7676 15.243 51.5377 15.243 52.3092H22.9925C22.9925 51.5153 23.1488 50.7292 23.4526 49.9958C23.7564 49.2623 24.2017 48.5959 24.763 48.0346C25.3244 47.4732 25.9908 47.028 26.7242 46.7242C27.4577 46.4204 28.2437 46.264 29.0376 46.264C29.0469 38.4123 29.0632 38.5076 29.0446 38.5076Z" fill="#DEE1EC"/>
<path d="M53.1159 56.3687H48.3448V54.9737H52.5788L63.7576 44.8713H71.6187L76.0595 40.8606H81.4118V42.2556H76.5943L72.1558 46.2664H64.2947L53.1159 56.3687Z" fill="#5E6175"/>
<path d="M50.5095 60.8398H56.7058V66.1014H50.5095V60.8398Z" fill="#A9AFC4"/>
<path d="M61.7302 52.3928H68.1637V66.1014H61.7302V52.3928Z" fill="#5E6175"/>
<path d="M73.2811 48.5471H79.4774V66.1036H73.2811V48.5471Z" fill="#A9AFC4"/>
<path d="M53.6064 56.7478C54.5361 56.7478 55.2898 55.9941 55.2898 55.0644C55.2898 54.1348 54.5361 53.3811 53.6064 53.3811C52.6768 53.3811 51.9231 54.1348 51.9231 55.0644C51.9231 55.9941 52.6768 56.7478 53.6064 56.7478Z" fill="#177A4E"/>
<path d="M65.0644 47.1824C65.9941 47.1824 66.7478 46.4287 66.7478 45.499C66.7478 44.5693 65.9941 43.8157 65.0644 43.8157C64.1348 43.8157 63.3811 44.5693 63.3811 45.499C63.3811 46.4287 64.1348 47.1824 65.0644 47.1824Z" fill="#177A4E"/>
<path d="M76.378 43.2414C77.3077 43.2414 78.0614 42.4878 78.0614 41.5581C78.0614 40.6284 77.3077 39.8748 76.378 39.8748C75.4484 39.8748 74.6947 40.6284 74.6947 41.5581C74.6947 42.4878 75.4484 43.2414 76.378 43.2414Z" fill="#177A4E"/>
<path d="M81.9722 6.66591C79.8611 4.55474 77.1843 3.09942 74.2646 2.47547C71.3449 1.85151 68.307 2.08557 65.5174 3.14942C62.7277 4.21326 60.3054 6.06146 58.5426 8.47111C56.7798 10.8808 55.7518 13.7489 55.5825 16.7298C55.4132 19.7106 56.1099 22.6767 57.5886 25.2704C59.0673 27.8642 61.2648 29.9747 63.9161 31.3475C66.5673 32.7204 69.5592 33.2968 72.5307 33.0074C75.5023 32.718 78.3266 31.5751 80.6632 29.7165L83.8439 32.8972L86.2899 30.4536L83.1115 27.2822C85.4926 24.3081 86.6929 20.5603 86.4827 16.7563C86.2725 12.9523 84.6665 9.35951 81.9722 6.66591ZM63.2927 25.3454C61.7624 23.8152 60.7202 21.8656 60.2979 19.7431C59.8757 17.6206 60.0923 15.4205 60.9204 13.4211C61.7486 11.4217 63.151 9.71281 64.9504 8.51048C66.7497 7.30815 68.8652 6.6664 71.0293 6.6664C73.1935 6.6664 75.309 7.30815 77.1083 8.51048C78.9077 9.71281 80.3101 11.4217 81.1383 13.4211C81.9664 15.4205 82.183 17.6206 81.7607 19.7431C81.3385 21.8656 80.2963 23.8152 78.766 25.3454C76.714 27.3972 73.9311 28.5498 71.0293 28.5498C68.1276 28.5498 65.3447 27.3972 63.2927 25.3454Z" fill="#DEE1EC"/>
<path d="M83.8439 33.8832L80.6028 30.6421C77.3153 33.0585 73.2362 34.1436 69.1825 33.6799C65.1289 33.2161 61.4002 31.2379 58.7434 28.1414C56.0866 25.0449 54.698 21.0589 54.8556 16.9819C55.0132 12.9049 56.7055 9.03803 59.5935 6.15594C62.4815 3.27384 66.3518 1.5894 70.4291 1.44005C74.5064 1.2907 78.4896 2.68749 81.5806 5.35058C84.6717 8.01367 86.6424 11.7464 87.0979 15.8009C87.5534 19.8555 86.46 23.9324 84.0369 27.2149L87.2757 30.4537L83.8439 33.8832ZM60.5817 7.16132C57.9176 9.83078 56.3752 13.4179 56.2702 17.1878C56.1653 20.9577 57.506 24.625 60.0175 27.4385C62.5289 30.252 66.0212 31.9986 69.7788 32.3206C73.5364 32.6426 77.2749 31.5155 80.2284 29.1703L80.7144 28.782L83.8439 31.9116L85.3017 30.4537L82.1768 27.3265L82.5674 26.8383C84.924 23.8884 86.062 20.1483 85.7476 16.3857C85.4333 12.6232 83.6905 9.12373 80.8771 6.60576C78.0637 4.08779 74.3931 2.74236 70.6189 2.84567C66.8446 2.94899 63.2531 4.49321 60.5817 7.16132ZM62.7998 25.8385C61.1718 24.2108 60.0631 22.1369 59.6139 19.879C59.1646 17.6212 59.395 15.2809 60.2759 13.154C61.1568 11.0271 62.6486 9.20915 64.5627 7.93014C66.4768 6.65112 68.7272 5.96845 71.0293 5.96845C73.3314 5.96845 75.5818 6.65112 77.4959 7.93014C79.41 9.20915 80.9019 11.0271 81.7828 13.154C82.6637 15.2809 82.894 17.6212 82.4448 19.879C81.9955 22.1369 80.8868 24.2108 79.2589 25.8385C77.0746 28.018 74.115 29.2421 71.0293 29.2421C67.9437 29.2421 64.984 28.018 62.7998 25.8385ZM63.7856 10.3653C61.8673 12.2879 60.79 14.893 60.79 17.609C60.79 20.3249 61.8673 22.93 63.7856 24.8527C65.2183 26.2854 67.0436 27.261 69.0308 27.6563C71.018 28.0516 73.0778 27.8487 74.9497 27.0734C76.8216 26.298 78.4215 24.985 79.5471 23.3003C80.6728 21.6157 81.2736 19.6351 81.2736 17.609C81.2736 15.5829 80.6728 13.6022 79.5471 11.9176C78.4215 10.2329 76.8216 8.91991 74.9497 8.14455C73.0778 7.36919 71.018 7.16633 69.0308 7.56161C67.0436 7.95689 65.2183 8.93257 63.7856 10.3653Z" fill="#5E6175"/>
<path d="M100.47 47.0777C99.7893 47.7588 98.8655 48.1415 97.9023 48.1415C96.9391 48.1415 96.0154 47.7588 95.3343 47.0777L84.3996 36.1337C83.7858 35.4425 83.4589 34.5432 83.4855 33.6192C83.5121 32.6952 83.8904 31.8162 84.543 31.1615C85.1955 30.5068 86.0733 30.1258 86.9973 30.0962C87.9212 30.0667 88.8215 30.3907 89.5147 31.0023L100.461 41.9463C101.141 42.6263 101.524 43.5483 101.526 44.5101C101.528 45.472 101.148 46.3953 100.47 47.0777ZM14.0619 85.0227C13.5101 85.0227 12.9707 84.859 12.5119 84.5524C12.053 84.2459 11.6954 83.8101 11.4843 83.3003C11.2731 82.7905 11.2178 82.2295 11.3255 81.6883C11.4331 81.1471 11.6989 80.6499 12.0891 80.2597C12.4793 79.8695 12.9764 79.6038 13.5176 79.4961C14.0588 79.3885 14.6198 79.4437 15.1297 79.6549C15.6395 79.8661 16.0752 80.2237 16.3818 80.6825C16.6884 81.1413 16.852 81.6808 16.852 82.2326C16.852 82.9726 16.5581 83.6822 16.0348 84.2055C15.5116 84.7287 14.8019 85.0227 14.0619 85.0227ZM14.0619 80.8376C13.786 80.8376 13.5163 80.9194 13.2869 81.0727C13.0575 81.226 12.8787 81.4438 12.7731 81.6987C12.6675 81.9536 12.6399 82.2341 12.6937 82.5047C12.7475 82.7754 12.8804 83.0239 13.0755 83.219C13.2706 83.4141 13.5192 83.547 13.7898 83.6008C14.0604 83.6546 14.3409 83.627 14.5958 83.5214C14.8507 83.4158 15.0686 83.237 15.2219 83.0076C15.3752 82.7782 15.457 82.5085 15.457 82.2326C15.4551 81.8638 15.3073 81.5108 15.0459 81.2507C14.7845 80.9905 14.4307 80.8445 14.0619 80.8445V80.8376ZM2.1716 77.1919C1.742 77.1919 1.32205 77.0645 0.964884 76.8257C0.607715 76.587 0.329377 76.2477 0.165082 75.8508C0.000787269 75.4538 -0.0420824 75.0171 0.0418979 74.5957C0.125878 74.1744 0.332935 73.7875 0.636871 73.4839C0.940808 73.1803 1.32797 72.9736 1.74937 72.8901C2.17077 72.8066 2.60748 72.8499 3.00425 73.0146C3.40102 73.1794 3.74002 73.4581 3.97836 73.8155C4.21669 74.1729 4.34367 74.593 4.34321 75.0226C4.34259 75.5981 4.11352 76.1499 3.70634 76.5566C3.29915 76.9634 2.74714 77.1919 2.1716 77.1919ZM2.1716 74.246C2.01801 74.246 1.86787 74.2916 1.74016 74.3769C1.61246 74.4622 1.51292 74.5835 1.45415 74.7254C1.39537 74.8673 1.37999 75.0235 1.40996 75.1741C1.43992 75.3247 1.51388 75.4631 1.62249 75.5717C1.73109 75.6803 1.86946 75.7543 2.0201 75.7842C2.17074 75.8142 2.32688 75.7988 2.46878 75.7401C2.61068 75.6813 2.73197 75.5817 2.8173 75.454C2.90263 75.3263 2.94817 75.1762 2.94817 75.0226C2.94695 74.8172 2.86466 74.6207 2.71923 74.4757C2.57379 74.3307 2.37697 74.249 2.1716 74.2484V74.246ZM95.3808 6.50481L98.6224 3.26322L99.6087 4.2495L96.3671 7.4911L95.3808 6.50481ZM91.4096 0H92.8046V4.58501H91.4096V0ZM98.415 9.79546H103V11.1905H98.415V9.79546Z" fill="#5E6175"/>
<path d="M94.4322 80.9514H93.0372V79.5564H94.4322V80.9514ZM90.7121 80.9514H89.3171V79.5564H90.7121V80.9514ZM86.992 80.9514H85.597V79.5564H86.992V80.9514ZM83.2719 80.9514H81.8769V79.5564H83.2719V80.9514ZM79.5518 80.9514H78.1568V79.5564H79.5518V80.9514ZM75.8317 80.9514H74.4367V79.5564H75.8317V80.9514ZM72.1116 80.9514H70.7166V79.5564H72.1116V80.9514ZM68.3916 80.9514H66.9965V79.5564H68.3916V80.9514ZM64.6715 80.9514H63.2764V79.5564H64.6715V80.9514ZM60.9514 80.9514H59.5563V79.5564H60.9514V80.9514ZM57.2313 80.9514H55.8362V79.5564H57.2313V80.9514ZM53.5112 80.9514H52.1162V79.5564H53.5112V80.9514ZM49.7911 80.9514H48.3961V79.5564H49.7911V80.9514ZM46.071 80.9514H44.676V79.5564H46.071V80.9514ZM42.3509 80.9514H40.9559V79.5564H42.3509V80.9514ZM38.6308 80.9514H37.2358V79.5564H38.6308V80.9514ZM34.9107 80.9514H33.5157V79.5564H34.9107V80.9514ZM96.834 80.9212L96.6782 79.5261C97.0681 79.4836 97.4488 79.3792 97.8058 79.2169L98.3848 80.4864C97.894 80.7121 97.3706 80.8588 96.834 80.9212ZM30.9465 80.2771C30.4795 80.0089 30.0568 79.6701 29.6933 79.2727L30.7256 78.3427C30.9901 78.6331 31.2984 78.8802 31.6394 79.0751L30.9465 80.2771ZM100.442 78.8077L99.3102 77.9916C99.5393 77.6732 99.7174 77.321 99.8379 76.9476L101.166 77.3708C101.002 77.8851 100.758 78.3701 100.442 78.8077ZM28.475 76.9128C28.3716 76.4074 28.3309 75.8912 28.3541 75.3759H29.7491C29.7275 75.7903 29.7571 76.2058 29.8375 76.6128L28.475 76.9128ZM101.41 74.8574H100.015V73.4624H101.41V74.8574ZM101.41 71.1373H100.015V69.7423H101.41V71.1373ZM101.41 67.4172H100.015V66.0222H101.41V67.4172ZM101.41 63.6972H100.015V62.3021H101.41V63.6972ZM101.41 59.9771H100.015V58.582H101.41V59.9771ZM101.41 56.257H100.015V54.8619H101.41V56.257ZM101.41 52.5369H100.015V51.1418H101.41V52.5369ZM28.3494 68.6286H29.7445V70.0236H28.3494V68.6286Z" fill="#A9AFC4"/>
<defs>
<linearGradient id="paint0_linear_30_799" x1="55.5572" y1="33.704" x2="92.9395" y2="33.704" gradientUnits="userSpaceOnUse">
<stop stop-color="#CACFDD"/>
<stop offset="1" stop-color="#EEF0F1"/>
</linearGradient>
</defs>
</svg>
