<svg width="55" height="55" viewBox="0 0 55 55" fill="none" xmlns="http://www.w3.org/2000/svg">
<g clip-path="url(#clip0_1801_426)">
<g clip-path="url(#clip1_1801_426)">
<path d="M49.8438 18.8891H32.6562C30.7579 18.8891 29.2188 20.4282 29.2188 22.3266V44.6703C29.2188 46.5687 30.7579 48.1078 32.6562 48.1078H41.25H49.8438C51.7421 48.1078 53.2812 46.5687 53.2812 44.6703V22.3266C53.2812 20.4282 51.7421 18.8891 49.8438 18.8891ZM49.8438 29.2016H32.6562V22.3266H49.8438V29.2016Z" fill="#FFF1F0"/>
<path d="M21.4844 26.6406H14.6094V19.7656C14.6094 19.2904 14.2244 18.9062 13.75 18.9062C9.01141 18.9062 5.15625 22.7614 5.15625 27.5C5.15625 32.2386 9.01141 36.0938 13.75 36.0938C18.4886 36.0938 22.3438 32.2386 22.3438 27.5C22.3438 27.0248 21.9587 26.6406 21.4844 26.6406ZM13.75 34.375C9.9593 34.375 6.875 31.2907 6.875 27.5C6.875 24.0006 9.50383 21.1028 12.8906 20.6783V27.5C12.8906 27.9752 13.2756 28.3594 13.75 28.3594H20.5717C20.1472 31.7453 17.2494 34.375 13.75 34.375Z" fill="#1A1A1A"/>
<path d="M16.3281 16.3281C15.8538 16.3281 15.4688 16.7123 15.4688 17.1875V24.9219C15.4688 25.3971 15.8538 25.7812 16.3281 25.7812H24.0625C24.5369 25.7812 24.9219 25.3971 24.9219 24.9219C24.9219 20.1833 21.0667 16.3281 16.3281 16.3281ZM17.1875 24.0625V18.1002C20.2924 18.4886 22.7605 20.9567 23.1498 24.0625H17.1875Z" fill="#1A1A1A"/>
<path d="M49.8438 18.0469H42.1094V5.15625C42.1094 2.78695 40.1818 0.859375 37.8125 0.859375H5.15625C2.78695 0.859375 0.859375 2.78695 0.859375 5.15625V49.8438C0.859375 52.213 2.78695 54.1406 5.15625 54.1406H37.8125C40.1818 54.1406 42.1094 52.213 42.1094 49.8438V48.9844H49.8438C52.213 48.9844 54.1406 47.0568 54.1406 44.6875V22.3438C54.1406 19.9745 52.213 18.0469 49.8438 18.0469ZM40.3906 49.8438C40.3906 51.2652 39.2339 52.4219 37.8125 52.4219H5.15625C3.73484 52.4219 2.57812 51.2652 2.57812 49.8438V5.15625C2.57812 3.73484 3.73484 2.57812 5.15625 2.57812H37.8125C39.2339 2.57812 40.3906 3.73484 40.3906 5.15625V18.0469H32.6562C30.287 18.0469 28.3594 19.9745 28.3594 22.3438V44.6875C28.3594 47.0568 30.287 48.9844 32.6562 48.9844H40.3906V49.8438ZM52.4219 44.6875C52.4219 46.1089 51.2652 47.2656 49.8438 47.2656H32.6562C31.2348 47.2656 30.0781 46.1089 30.0781 44.6875V22.3438C30.0781 20.9223 31.2348 19.7656 32.6562 19.7656H49.8438C51.2652 19.7656 52.4219 20.9223 52.4219 22.3438V44.6875Z" fill="#1A1A1A"/>
<path d="M49.8438 21.4844H32.6562C32.1819 21.4844 31.7969 21.8685 31.7969 22.3438V29.2188C31.7969 29.694 32.1819 30.0781 32.6562 30.0781H49.8438C50.3181 30.0781 50.7031 29.694 50.7031 29.2188V22.3438C50.7031 21.8685 50.3181 21.4844 49.8438 21.4844ZM48.9844 28.3594H33.5156V23.2031H48.9844V28.3594Z" fill="#1A1A1A"/>
<path d="M34.375 32.6562V34.375H32.6562V36.0938H34.375V37.8125H36.0938V36.0938H37.8125V34.375H36.0938V32.6562H34.375Z" fill="#1A1A1A"/>
<path d="M37.8125 42.1094H32.6562V43.8281H37.8125V42.1094Z" fill="#1A1A1A"/>
<path d="M45.2951 37.5607L46.836 36.0198L48.3768 37.5607L49.592 36.3456L48.0511 34.8047L49.592 33.2647L48.3768 32.0495L46.836 33.5895L45.2951 32.0487L44.08 33.2638L45.6208 34.8047L44.08 36.3456L45.2951 37.5607Z" fill="#1A1A1A"/>
<path d="M49.8438 41.25H44.6875V42.9688H49.8438V41.25Z" fill="#1A1A1A"/>
<path d="M48.9844 40.3906V38.6719H42.1094V33.5156H40.3906V38.6719H33.5156V40.3906H40.3906V45.5469H42.1094V40.3906H48.9844Z" fill="#1A1A1A"/>
<path d="M21.6865 7.73437C22.0724 7.73437 22.3989 7.98961 22.5081 8.34023L19.2975 12.3535C19.0912 12.6122 19.0508 12.9654 19.1935 13.2636C19.3361 13.5601 19.6378 13.75 19.9678 13.75H24.2646V12.0312H21.7561L24.0764 9.13086C24.1985 8.97789 24.2646 8.78969 24.2646 8.59375C24.2646 7.17234 23.1079 6.01562 21.6865 6.01562C20.2651 6.01562 19.1084 7.17234 19.1084 8.59375H20.8271C20.8271 8.11937 21.213 7.73437 21.6865 7.73437Z" fill="#1A1A1A"/>
<path d="M30.9375 6.875H29.2188V8.59375H30.9375V6.875Z" fill="#1A1A1A"/>
<path d="M36.0938 10.3125H34.375V12.0312H36.0938V10.3125Z" fill="#1A1A1A"/>
<path d="M33.6068 5.63216L30.1694 12.507L31.7067 13.2756L35.1441 6.40081L33.6068 5.63216Z" fill="#1A1A1A"/>
<path d="M8.59375 42.9688H6.875V48.9844H8.59375V42.9688Z" fill="#1A1A1A"/>
<path d="M12.0312 40.3906H10.3125V48.9844H12.0312V40.3906Z" fill="#1A1A1A"/>
<path d="M15.4688 38.6719H13.75V48.9844H15.4688V38.6719Z" fill="#1A1A1A"/>
<path d="M18.9062 42.1094H17.1875V48.9844H18.9062V42.1094Z" fill="#1A1A1A"/>
<path d="M22.3438 40.3906H20.625V48.9844H22.3438V40.3906Z" fill="#1A1A1A"/>
<path d="M49.8438 43.8281H44.6875V45.5469H49.8438V43.8281Z" fill="#1A1A1A"/>
</g>
</g>
<defs>
<clipPath id="clip0_1801_426">
<rect width="55" height="55" fill="white"/>
</clipPath>
<clipPath id="clip1_1801_426">
<rect width="55" height="55" fill="white"/>
</clipPath>
</defs>
</svg>
