<svg width="178" height="65" viewBox="0 0 178 65" fill="none" xmlns="http://www.w3.org/2000/svg">
<path d="M82.6108 29.0166C80.8692 29.0166 79.3544 28.6978 78.0664 28.0602C76.7783 27.4226 75.7842 26.5344 75.0841 25.3957C74.3839 24.2564 74.0335 22.9345 74.0329 21.4299H77.0179C77.0078 22.3319 77.2285 23.2213 77.6589 24.0123C78.0956 24.8063 78.7484 25.4581 79.5406 25.891C80.3659 26.3577 81.389 26.591 82.6099 26.591C83.6726 26.591 84.5828 26.4145 85.3403 26.0616C86.0979 25.7087 86.6745 25.2248 87.07 24.6099C87.4672 23.9895 87.6736 23.2647 87.6634 22.5265C87.6634 21.5926 87.4656 20.8351 87.07 20.254C86.6555 19.6567 86.1027 19.1701 85.4594 18.8365C84.7041 18.4412 83.915 18.1152 83.1016 17.8626C82.2097 17.5785 81.277 17.2656 80.3033 16.9237C78.4268 16.2861 77.0478 15.4948 76.1664 14.5498C75.2849 13.6048 74.8438 12.3692 74.8432 10.8432C74.8432 9.54461 75.143 8.40714 75.7424 7.43076C76.3419 6.45438 77.2011 5.68582 78.32 5.12507C79.4389 4.56679 80.7672 4.28765 82.3049 4.28765C83.8194 4.28765 85.1365 4.57232 86.256 5.14167C87.3262 5.66785 88.2347 6.47648 88.8849 7.48148C89.5179 8.472 89.8344 9.61655 89.8344 10.9151H86.8503C86.8469 10.2327 86.6738 9.56208 86.3467 8.9645C85.9829 8.30406 85.4477 7.75571 84.7983 7.37819C84.1085 6.95763 83.2438 6.74705 82.2042 6.74643C81.3441 6.7243 80.5811 6.86663 79.9151 7.17344C79.2822 7.45324 78.7421 7.90959 78.3585 8.48861C77.9849 9.05857 77.7984 9.75335 77.799 10.5729C77.799 11.3464 77.9629 11.9726 78.2907 12.4516C78.6185 12.9306 79.0931 13.3348 79.7145 13.6644C80.4171 14.0282 81.1493 14.3309 81.903 14.5692C82.7393 14.8428 83.6662 15.1502 84.6838 15.4914C85.758 15.8426 86.788 16.3183 87.7531 16.909C88.6177 17.4367 89.3408 18.1698 89.8591 19.044C90.3682 19.9097 90.6228 21.0143 90.6228 22.3578C90.6224 23.4964 90.3113 24.613 89.7236 25.5857C89.1248 26.5996 88.2375 27.425 87.0618 28.062C85.8861 28.699 84.4024 29.0172 82.6108 29.0166Z" fill="#07331E"/>
<path d="M94.8202 28.6071V11.3892H97.6697V28.6071H94.8202Z" fill="#07331E"/>
<path d="M102.688 28.6071V11.3892H105.266L105.436 13.8489C105.971 12.9683 106.725 12.244 107.624 11.7479C108.542 11.2352 109.576 10.9705 110.625 10.9797C111.436 10.969 112.244 11.0901 113.016 11.3384C113.716 11.5701 114.362 11.9418 114.915 12.4313C115.485 12.9447 115.932 13.5821 116.221 14.2952C116.79 13.2658 117.637 12.4192 118.663 11.8531C119.667 11.2816 120.8 10.9814 121.953 10.9815C123.287 10.9815 124.441 11.249 125.412 11.7839C126.384 12.3188 127.142 13.1273 127.685 14.2095C128.228 15.291 128.499 16.6633 128.499 18.3265V28.6071H125.684V18.6299C125.684 16.8997 125.334 15.6015 124.632 14.7352C123.931 13.8688 122.936 13.4363 121.648 13.4375C120.805 13.4262 119.978 13.6701 119.274 14.1375C118.572 14.6048 118.018 15.2812 117.612 16.1665C117.205 17.0519 117.002 18.1451 117.001 19.4461V28.6016H114.152V18.6299C114.152 16.8997 113.802 15.6015 113.101 14.7352C112.401 13.8688 111.418 13.4369 110.154 13.4394C109.322 13.4312 108.506 13.6751 107.813 14.1394C107.113 14.6067 106.559 15.283 106.151 16.1684C105.744 17.0538 105.541 18.147 105.542 19.448V28.6034L102.688 28.6071Z" fill="#07331E"/>
<path d="M132.908 36.1227V11.3892H135.486L135.723 14.191C136.114 13.611 136.582 13.0875 137.114 12.6351C137.718 12.1209 138.407 11.7153 139.148 11.4362C139.942 11.1288 140.857 10.9751 141.895 10.9751C143.543 10.9751 144.985 11.3747 146.219 12.174C147.45 12.9703 148.446 14.0852 149.102 15.402C149.792 16.7546 150.137 18.2976 150.136 20.0309C150.135 21.7641 149.791 23.3071 149.102 24.6598C148.448 25.9741 147.445 27.0795 146.203 27.8527C144.959 28.6268 143.511 29.0138 141.861 29.0138C140.482 29.0138 139.261 28.7291 138.199 28.1598C137.168 27.6228 136.318 26.7907 135.757 25.7683V36.1227H132.908ZM141.522 26.5227C142.562 26.5424 143.586 26.2617 144.472 25.7138C145.359 25.166 146.071 24.3739 146.525 23.4313C147.013 22.4635 147.257 21.3193 147.257 19.9986C147.257 18.7 147.013 17.561 146.525 16.5816C146.076 15.634 145.365 14.8369 144.478 14.2857C143.591 13.7345 142.565 13.4525 141.522 13.4735C140.392 13.4735 139.397 13.7468 138.538 14.2934C137.67 14.8503 136.976 15.6437 136.537 16.5816C136.061 17.5616 135.824 18.7006 135.824 19.9986C135.824 21.3193 136.062 22.4635 136.537 23.4313C136.979 24.3628 137.673 25.15 138.539 25.7028C139.398 26.2501 140.392 26.5234 141.522 26.5227Z" fill="#07331E"/>
<path d="M154.173 28.6071V4.01097H157.022V28.6071H154.173Z" fill="#07331E"/>
<path d="M163.602 36.1227L167.773 26.6934H166.79L160.075 11.3892H163.16L168.723 24.5417L174.591 11.3892H177.541L166.586 36.1227H163.602Z" fill="#07331E"/>
<path d="M82.8937 57.4844C81.1521 57.4844 79.637 57.1656 78.3484 56.528C77.0597 55.8904 76.065 55.0013 75.3642 53.8608C74.6628 52.7215 74.3125 51.3995 74.3131 49.895H77.2972C77.2874 50.7969 77.5081 51.6862 77.9382 52.4774C78.3755 53.2712 79.0286 53.9229 79.8208 54.356C80.6485 54.8252 81.6728 55.0597 82.8937 55.0597C83.9559 55.0597 84.866 54.8833 85.6242 54.5303C86.3824 54.1774 86.9589 53.6932 87.3539 53.0778C87.7507 52.4568 87.9571 51.7318 87.9472 50.9934C87.9472 50.0601 87.7494 49.3029 87.3539 48.7219C86.939 48.1245 86.3859 47.6379 85.7423 47.3043C84.9875 46.9086 84.1987 46.5826 83.3854 46.3304C82.4905 46.0463 81.5578 45.7334 80.5872 45.3915C78.7101 44.7539 77.3308 43.9626 76.4493 43.0176C75.5678 42.0726 75.1271 40.837 75.1271 39.311C75.1271 38.0124 75.4265 36.875 76.0254 35.8986C76.6242 34.9222 77.4834 34.1536 78.6029 33.5929C79.7231 33.0358 81.0517 32.757 82.5888 32.7564C84.1033 32.7564 85.4203 33.0411 86.5399 33.6104C87.6102 34.1361 88.5185 34.9448 89.1678 35.9502C89.8014 36.9407 90.1183 38.0853 90.1183 39.3838H87.1332C87.1278 38.7001 86.9517 38.0287 86.6214 37.4314C86.2599 36.7706 85.7265 36.2215 85.0785 35.8432C84.3881 35.4215 83.5234 35.2109 82.4844 35.2115C81.6249 35.1887 80.8619 35.3311 80.1953 35.6385C79.5628 35.9188 79.0227 36.3751 78.6386 36.9537C78.2663 37.523 78.0798 38.2175 78.0792 39.0371C78.0792 39.8118 78.2431 40.438 78.5709 40.9157C78.8987 41.3935 79.3736 41.7977 79.9956 42.1285C80.6977 42.493 81.4296 42.796 82.1832 43.0342C83.0201 43.3072 83.947 43.6146 84.964 43.9565C86.038 44.3082 87.0677 44.7845 88.0324 45.3759C88.8968 45.9039 89.6198 46.6369 90.1384 47.5109C90.6475 48.3766 90.9018 49.4812 90.9011 50.8246C90.9011 51.9632 90.5903 53.0799 90.0029 54.0526C89.4034 55.0659 88.5158 55.8913 87.3401 56.5289C86.1644 57.1665 84.6823 57.485 82.8937 57.4844Z" fill="#07331E"/>
<path d="M101.072 57.4844C99.6927 57.4844 98.5396 57.2384 97.6129 56.7466C96.6863 56.2547 95.9965 55.6054 95.5435 54.7987C95.0917 53.9913 94.858 53.0786 94.866 52.1518C94.866 50.9897 95.1654 50.006 95.7642 49.2005C96.3631 48.3951 97.211 47.7802 98.3079 47.356C99.4067 46.9342 100.701 46.7233 102.191 46.7233H106.703C106.703 45.6535 106.538 44.7598 106.21 44.0422C105.917 43.3637 105.419 42.7957 104.786 42.4191C104.164 42.0538 103.389 41.8712 102.462 41.8712C101.376 41.8712 100.438 42.1445 99.6466 42.6911C98.8555 43.2377 98.3693 44.0459 98.188 45.1158H95.2716C95.4071 43.8861 95.8198 42.8556 96.5096 42.0243C97.2175 41.1799 98.1201 40.5232 99.1384 40.1115C100.192 39.6696 101.321 39.4432 102.462 39.4456C104.045 39.4456 105.362 39.7359 106.413 40.3163C107.429 40.8605 108.252 41.7077 108.77 42.7418C109.29 43.7785 109.55 45.0026 109.55 46.4143V57.074H107.007L106.837 54.0305C106.607 54.5153 106.316 54.9687 105.972 55.3798C105.62 55.8033 105.209 56.1727 104.751 56.4763C104.253 56.8012 103.71 57.0499 103.14 57.2142C102.467 57.4035 101.771 57.4945 101.072 57.4844ZM101.513 55.0588C102.26 55.0696 102.998 54.8997 103.666 54.5635C104.309 54.2361 104.872 53.7697 105.315 53.1977C105.766 52.6183 106.116 51.9654 106.349 51.2673C106.588 50.5517 106.708 49.8015 106.705 49.0465V48.9441H102.431C101.323 48.9441 100.43 49.0751 99.7519 49.337C99.0737 49.599 98.5878 49.9632 98.2942 50.4299C97.9974 50.9054 97.8441 51.4574 97.8528 52.019C97.8394 52.584 97.9865 53.1411 98.2768 53.6247C98.5794 54.0972 99.0171 54.4664 99.5322 54.6834C100.082 54.9343 100.742 55.0588 101.513 55.0588Z" fill="#07331E"/>
<path d="M118.912 57.074L112.434 39.857H115.419L120.574 54.3072L125.763 39.857H128.68L122.202 57.074H118.912Z" fill="#07331E"/>
<path d="M132.817 57.074V39.857H135.666V57.074H132.817Z" fill="#07331E"/>
<path d="M140.686 57.074V39.857H143.263L143.399 42.8636C143.917 41.819 144.724 40.9472 145.722 40.3522C146.728 39.7491 147.876 39.4475 149.165 39.4475C150.499 39.4475 151.652 39.7149 152.624 40.2499C153.596 40.7848 154.353 41.5933 154.897 42.6754C155.439 43.757 155.71 45.1293 155.711 46.7925V57.074H152.861V47.0996C152.861 45.3694 152.482 44.0711 151.725 43.2048C150.967 42.3385 149.899 41.906 148.52 41.9072C147.623 41.8925 146.741 42.1353 145.976 42.6072C145.23 43.0739 144.636 43.7456 144.196 44.6224C143.756 45.4991 143.535 46.5868 143.534 47.8854V57.074H140.686Z" fill="#07331E"/>
<path d="M166.903 65C165.364 65 164.002 64.8008 162.815 64.4024C161.628 64.0039 160.707 63.3946 160.052 62.5744C159.395 61.7542 159.067 60.7397 159.067 59.5309C159.076 58.9582 159.186 58.3916 159.39 57.857C159.605 57.2649 159.978 56.6842 160.51 56.1148C161.041 55.5455 161.793 55.0333 162.765 54.5783L164.732 55.7394C163.533 56.2405 162.753 56.8157 162.391 57.465C162.029 58.1143 161.849 58.7119 161.849 59.2579C161.849 60.0099 162.063 60.6364 162.49 61.1375C162.917 61.6386 163.517 62.0143 164.288 62.2645C165.134 62.526 166.015 62.6527 166.9 62.6399C167.871 62.6399 168.708 62.4976 169.41 62.2129C170.112 61.9282 170.657 61.5421 171.045 61.0545C171.433 60.5525 171.637 59.9308 171.621 59.2948C171.628 58.917 171.553 58.5422 171.401 58.1969C171.248 57.8515 171.022 57.5441 170.739 57.2962C170.151 56.7626 169.032 56.4496 167.382 56.3574C166.257 56.2901 165.136 56.1645 164.024 55.9811C163.263 55.8592 162.514 55.6706 161.786 55.4176C161.265 55.2346 160.769 54.9867 160.31 54.6798C159.934 54.4218 159.577 54.1364 159.242 53.8257V53.04L162.529 49.764L165.002 50.6522L161.614 53.727L162.055 52.5281C162.304 52.7125 162.541 52.8835 162.768 53.0409C163.049 53.2259 163.358 53.3642 163.683 53.4504C164.212 53.593 164.75 53.696 165.294 53.7584C165.983 53.85 166.893 53.9422 168.024 54.0351C169.585 54.1494 170.834 54.4227 171.772 54.855C172.71 55.2872 173.389 55.8679 173.807 56.5972C174.226 57.3258 174.435 58.1912 174.435 59.1934C174.433 60.1783 174.157 61.143 173.637 61.9777C173.106 62.8539 172.287 63.5769 171.179 64.1469C170.071 64.7169 168.645 65.0012 166.903 65ZM166.869 51.6768C165.444 51.6768 164.229 51.4035 163.223 50.8569C162.217 50.3103 161.454 49.5759 160.934 48.6536C160.408 47.7104 160.138 46.6439 160.153 45.5622C160.131 44.4807 160.408 43.4143 160.953 42.4822C161.498 41.5501 162.289 40.789 163.239 40.284C164.234 39.7263 165.444 39.4475 166.869 39.4475C168.294 39.4475 169.503 39.7263 170.498 40.284C171.492 40.8429 172.25 41.5773 172.77 42.4873C173.296 43.4244 173.565 44.4857 173.549 45.5622C173.564 46.6437 173.295 47.71 172.77 48.6536C172.234 49.5901 171.446 50.3542 170.496 50.8569C169.502 51.4041 168.293 51.6774 166.869 51.6768ZM166.869 49.3195C168.09 49.3195 169.051 49.0007 169.751 48.3631C170.452 47.7255 170.802 46.7912 170.802 45.5603C170.802 44.3534 170.452 43.4311 169.751 42.7935C169.051 42.1559 168.09 41.8371 166.869 41.8371C165.67 41.8371 164.703 42.1559 163.969 42.7935C163.235 43.4311 162.868 44.3534 162.87 45.5603C162.87 46.79 163.232 47.7237 163.955 48.3613C164.679 48.9989 165.65 49.3183 166.869 49.3195ZM169.65 42.2825L168.802 39.857H175.788V42.0096L169.65 42.2825Z" fill="#07331E"/>
<path d="M96.2065 7.99519C95.3385 7.99519 94.6181 7.70683 94.0455 7.1301C93.4729 6.55337 93.1869 5.82815 93.1876 4.95445C93.1876 4.08137 93.4736 3.37429 94.0455 2.83322C94.6175 2.29216 95.3378 2.02132 96.2065 2.0207C96.9953 2.00307 97.7604 2.29321 98.3418 2.83046C98.9315 3.37275 99.2266 4.07983 99.2272 4.95169C99.2279 5.82354 98.9327 6.54968 98.3418 7.1301C98.0615 7.41097 97.7281 7.63227 97.3613 7.78088C96.9945 7.92948 96.6018 8.00236 96.2065 7.99519Z" fill="#07331E"/>
<path d="M31.0482 62.5449C48.1956 62.5449 62.0963 48.5437 62.0963 31.2724C62.0963 14.0012 48.1956 0 31.0482 0C13.9007 0 0 14.0012 0 31.2724C0 48.5437 13.9007 62.5449 31.0482 62.5449Z" fill="#167A4E"/>
<path d="M32.592 26.923C28.477 30.6877 26.4625 35.715 24.4655 40.7248C22.4382 45.8029 22.3421 51.2305 22.0353 56.8775C21.0785 56.0429 20.8596 55.2091 20.9173 54.3413C21.0803 51.8705 20.15 49.8461 18.7994 47.8328C13.6085 40.0958 14.3951 31.4163 20.7278 24.562C24.4307 20.5547 28.8433 17.4817 33.4216 14.6217C35.0459 13.6072 36.7408 12.7043 38.324 11.6308C39.4118 10.893 39.8394 11.2757 40.1901 12.3391C41.2685 15.6467 42.1407 19.019 42.8016 22.4361C43.6916 26.9553 44.034 31.515 42.9801 36.072C41.7834 41.2432 38.7388 45.1342 34.5762 48.2248C33.4545 49.0548 32.3026 49.859 31.1141 50.5904C27.9569 52.5327 26.7904 55.3253 27.3947 58.9619C27.4496 59.2893 28.0842 59.934 27.2116 60.0631C26.5422 60.1618 26.0084 59.8417 25.9296 59.0421C25.8234 57.9557 25.6687 56.8729 25.5872 55.7837C24.9719 47.5755 26.7839 39.8763 30.388 32.5424C31.2716 30.7468 32.1085 28.9188 32.592 26.923Z" fill="white"/>
</svg>
