<svg width="139" height="47" viewBox="0 0 139 47" fill="none" xmlns="http://www.w3.org/2000/svg">
<path d="M59.8068 20.9812C58.5459 20.9812 57.4493 20.7507 56.5168 20.2897C55.5843 19.8286 54.8646 19.1864 54.3577 18.3631C53.8508 17.5392 53.5972 16.5834 53.5967 15.4955H55.7578C55.7504 16.1477 55.9102 16.7908 56.2218 17.3627C56.538 17.9369 57.0106 18.4082 57.5841 18.7212C58.1815 19.0586 58.9222 19.2273 59.8061 19.2273C60.5755 19.2273 61.2344 19.0997 61.7829 18.8445C62.3313 18.5894 62.7487 18.2395 63.0351 17.7949C63.3226 17.3462 63.472 16.8222 63.4646 16.2884C63.4646 15.6131 63.3214 15.0654 63.0351 14.6452C62.735 14.2133 62.3348 13.8615 61.869 13.6202C61.3222 13.3344 60.7509 13.0987 60.1621 12.916C59.5164 12.7106 58.8411 12.4843 58.1362 12.2371C56.7777 11.7761 55.7794 11.2039 55.1413 10.5206C54.5031 9.83729 54.1838 8.9439 54.1834 7.84045C54.1834 6.90149 54.4004 6.07901 54.8343 5.37301C55.2683 4.66701 55.8903 4.11128 56.7004 3.70582C57.5105 3.30214 58.4721 3.1003 59.5853 3.1003C60.6818 3.1003 61.6352 3.30614 62.4458 3.71783C63.2205 4.09829 63.8783 4.68299 64.3489 5.40969C64.8072 6.12591 65.0364 6.9535 65.0364 7.89246H62.876C62.8735 7.39905 62.7482 6.91412 62.5114 6.48202C62.2481 6.00447 61.8606 5.60797 61.3904 5.335C60.891 5.0309 60.265 4.87863 59.5124 4.87819C58.8897 4.86218 58.3373 4.9651 57.8552 5.18695C57.397 5.38927 57.006 5.71924 56.7283 6.13791C56.4578 6.55004 56.3228 7.05242 56.3232 7.64505C56.3232 8.20434 56.4419 8.65714 56.6792 9.00347C56.9165 9.3498 57.2601 9.64212 57.71 9.88041C58.2186 10.1434 58.7487 10.3623 59.2943 10.5346C59.8998 10.7325 60.5709 10.9547 61.3076 11.2015C62.0852 11.4554 62.8309 11.7994 63.5296 12.2265C64.1555 12.6081 64.679 13.1381 65.0543 13.7703C65.4228 14.3963 65.6071 15.195 65.6071 16.1664C65.6068 16.9897 65.3816 17.7971 64.9562 18.5004C64.5226 19.2336 63.8803 19.8304 63.0291 20.291C62.1779 20.7516 61.1038 20.9817 59.8068 20.9812Z" fill="#07331E"/>
<path d="M68.6458 20.6851V8.23524H70.7088V20.6851H68.6458Z" fill="#07331E"/>
<path d="M74.3421 20.6851V8.23524H76.2082L76.3315 10.0138C76.7186 9.37707 77.2646 8.85334 77.9152 8.49465C78.5797 8.12392 79.3283 7.93255 80.0882 7.93914C80.6752 7.93142 81.2597 8.01902 81.819 8.19856C82.3255 8.36606 82.7932 8.63486 83.1938 8.9888C83.6066 9.36003 83.9298 9.82093 84.1391 10.3366C84.5514 9.59218 85.1642 8.98006 85.9071 8.57067C86.6337 8.15748 87.4542 7.94039 88.2889 7.94048C89.2549 7.94048 90.0898 8.13387 90.7933 8.52066C91.4969 8.90745 92.0453 9.49207 92.4386 10.2745C92.8315 11.0566 93.0279 12.0489 93.0279 13.2515V20.6851H90.9902V13.4709C90.9902 12.2198 90.7363 11.2811 90.2285 10.6547C89.7207 10.0282 89.0006 9.71548 88.0681 9.71636C87.4577 9.70819 86.8589 9.88452 86.3492 10.2225C85.8415 10.5604 85.4404 11.0494 85.1461 11.6896C84.8517 12.3298 84.7044 13.1203 84.7039 14.0611V20.6811H82.6416V13.4709C82.6416 12.2198 82.388 11.2811 81.8806 10.6547C81.3733 10.0282 80.662 9.71592 79.7468 9.7177C79.1443 9.71181 78.554 9.88815 78.0524 10.2239C77.545 10.5617 77.144 11.0508 76.8492 11.691C76.5545 12.3312 76.4073 13.1216 76.4077 14.0624V20.6825L74.3421 20.6851Z" fill="#07331E"/>
<path d="M96.2198 26.1195V8.23524H98.0859L98.2576 10.2612C98.5407 9.84179 98.8795 9.46328 99.2645 9.13618C99.7024 8.76433 100.201 8.47107 100.737 8.26925C101.312 8.04696 101.975 7.93581 102.726 7.93581C103.919 7.93581 104.963 8.22479 105.856 8.80275C106.748 9.37851 107.469 10.1846 107.944 11.1368C108.443 12.1149 108.693 13.2306 108.692 14.4839C108.692 15.7371 108.442 16.8528 107.944 17.8309C107.47 18.7813 106.744 19.5806 105.845 20.1396C104.944 20.6993 103.896 20.9792 102.702 20.9792C101.703 20.9792 100.819 20.7734 100.05 20.3617C99.304 19.9734 98.6889 19.3718 98.2821 18.6325V26.1195H96.2198ZM102.456 19.178C103.209 19.1922 103.95 18.9892 104.592 18.5931C105.234 18.197 105.749 17.6242 106.078 16.9426C106.431 16.2428 106.608 15.4155 106.608 14.4605C106.608 13.5216 106.431 12.698 106.078 11.9897C105.753 11.3046 105.238 10.7282 104.596 10.3297C103.954 9.93108 103.211 9.72718 102.456 9.74237C101.638 9.74237 100.918 9.93999 100.296 10.3352C99.6673 10.7379 99.1648 11.3116 98.8469 11.9897C98.5026 12.6984 98.3307 13.522 98.3311 14.4605C98.3311 15.4155 98.503 16.2428 98.8469 16.9426C99.1672 17.6162 99.6697 18.1854 100.297 18.5851C100.918 18.9808 101.638 19.1784 102.456 19.178Z" fill="#07331E"/>
<path d="M111.615 20.6851V2.90024H113.677V20.6851H111.615Z" fill="#07331E"/>
<path d="M118.441 26.1195L121.461 19.3014H120.749L115.887 8.23524H118.121L122.148 17.7455L126.396 8.23524H128.532L120.601 26.1195H118.441Z" fill="#07331E"/>
<path d="M60.0116 41.5656C58.7508 41.5656 57.6539 41.3351 56.721 40.8741C55.788 40.413 55.0679 39.7702 54.5606 38.9455C54.0528 38.1217 53.7991 37.1658 53.7996 36.0779H55.9599C55.9528 36.7301 56.1126 37.3731 56.424 37.9452C56.7406 38.5192 57.2134 38.9904 57.7869 39.3036C58.3862 39.6428 59.1277 39.8124 60.0116 39.8124C60.7806 39.8124 61.4395 39.6848 61.9884 39.4296C62.5372 39.1744 62.9546 38.8243 63.2406 38.3793C63.5279 37.9303 63.6773 37.4061 63.6701 36.8722C63.6701 36.1973 63.5269 35.6498 63.2406 35.2297C62.9402 34.7977 62.5398 34.4459 62.0739 34.2047C61.5274 33.9185 60.9563 33.6828 60.3676 33.5004C59.7197 33.2951 59.0444 33.0688 58.3417 32.8216C56.9828 32.3605 55.9843 31.7884 55.3461 31.105C54.708 30.4217 54.3889 29.5283 54.3889 28.4249C54.3889 27.4859 54.6056 26.6634 55.0392 25.9574C55.4727 25.2514 56.0947 24.6957 56.9052 24.2902C57.7162 23.8875 58.6781 23.6858 59.7908 23.6854C60.8873 23.6854 61.8407 23.8912 62.6513 24.3029C63.4261 24.683 64.0837 25.2678 64.5538 25.9948C65.0125 26.711 65.2419 27.5386 65.2419 28.4775H63.0808C63.0769 27.9832 62.9494 27.4977 62.7103 27.0658C62.4486 26.588 62.0624 26.191 61.5933 25.9174C61.0934 25.6124 60.4674 25.4602 59.7153 25.4606C59.093 25.4442 58.5406 25.5471 58.058 25.7694C57.6001 25.9721 57.2092 26.302 56.9311 26.7203C56.6615 27.132 56.5265 27.6342 56.5261 28.2268C56.5261 28.787 56.6447 29.2398 56.882 29.5852C57.1194 29.9307 57.4632 30.223 57.9135 30.4622C58.4218 30.7257 58.9516 30.9448 59.4972 31.117C60.1031 31.3144 60.7741 31.5367 61.5104 31.7839C62.2879 32.0382 63.0334 32.3827 63.7318 32.8102C64.3576 33.192 64.881 33.722 65.2564 34.354C65.625 34.98 65.8091 35.7787 65.8086 36.7501C65.8086 37.5734 65.5836 38.3808 65.1583 39.0842C64.7244 39.8169 64.0818 40.4137 63.2306 40.8747C62.3795 41.3358 61.3065 41.5661 60.0116 41.5656Z" fill="#07331E"/>
<path d="M73.1721 41.5656C72.1734 41.5656 71.3386 41.3878 70.6677 41.0321C69.9968 40.6765 69.4975 40.207 69.1695 39.6237C68.8424 39.0399 68.6733 38.3799 68.679 37.7098C68.679 36.8695 68.8958 36.1582 69.3293 35.5758C69.7628 34.9934 70.3767 34.5488 71.1708 34.242C71.9663 33.937 72.9034 33.7845 73.9822 33.7845H77.2483C77.2483 33.011 77.1294 32.3648 76.8917 31.8459C76.6794 31.3553 76.3187 30.9446 75.8608 30.6722C75.4101 30.4082 74.8493 30.2761 74.1784 30.2761C73.3922 30.2761 72.7127 30.4737 72.14 30.869C71.5673 31.2642 71.2153 31.8486 71.084 32.6222H68.9727C69.0708 31.733 69.3695 30.9879 69.8689 30.3868C70.3814 29.7763 71.0349 29.3014 71.7721 29.0037C72.5345 28.6842 73.3525 28.5205 74.1784 28.5222C75.3239 28.5222 76.2774 28.7321 77.0388 29.1518C77.7739 29.5452 78.3699 30.1579 78.7451 30.9056C79.1217 31.6552 79.3099 32.5404 79.3099 33.5611V41.2689H77.4684L77.3457 39.0682C77.1788 39.4187 76.9683 39.7466 76.7193 40.0438C76.4648 40.3501 76.1671 40.6172 75.8357 40.8367C75.4751 41.0717 75.082 41.2514 74.669 41.3702C74.1819 41.5071 73.6778 41.5729 73.1721 41.5656ZM73.491 39.8118C74.0317 39.8195 74.5664 39.6967 75.0501 39.4536C75.5153 39.2169 75.9228 38.8796 76.2433 38.466C76.5702 38.0471 76.8236 37.575 76.9924 37.0702C77.1653 36.5528 77.2524 36.0103 77.2503 35.4644V35.3904H74.1559C73.3538 35.3904 72.7072 35.4851 72.2162 35.6745C71.7252 35.8639 71.3735 36.1273 71.1609 36.4647C70.946 36.8085 70.835 37.2077 70.8414 37.6137C70.8316 38.0223 70.9381 38.4251 71.1483 38.7748C71.3674 39.1165 71.6843 39.3834 72.0571 39.5403C72.4549 39.7217 72.9328 39.8118 73.491 39.8118Z" fill="#07331E"/>
<path d="M86.0874 41.2689L81.3974 28.8197H83.5584L87.2905 39.2682L91.0472 28.8197H93.1592L88.4692 41.2689H86.0874Z" fill="#07331E"/>
<path d="M96.1542 41.2689V28.8197H98.2164V41.2689H96.1542Z" fill="#07331E"/>
<path d="M101.85 41.2689V28.8197H103.717L103.815 30.9937C104.19 30.2384 104.774 29.6079 105.496 29.1778C106.225 28.7416 107.056 28.5236 107.989 28.5236C108.955 28.5236 109.79 28.717 110.493 29.1037C111.197 29.4905 111.745 30.0752 112.139 30.8576C112.531 31.6396 112.728 32.632 112.728 33.8346V41.2689H110.665V34.0566C110.665 32.8056 110.391 31.8668 109.842 31.2404C109.294 30.614 108.521 30.3012 107.522 30.3021C106.873 30.2915 106.234 30.4671 105.681 30.8083C105.14 31.1457 104.711 31.6314 104.392 32.2654C104.073 32.8994 103.914 33.6858 103.913 34.6248V41.2689H101.85Z" fill="#07331E"/>
<path d="M120.831 47C119.717 47 118.731 46.8559 117.871 46.5679C117.012 46.2798 116.345 45.8392 115.871 45.2461C115.395 44.653 115.158 43.9195 115.158 43.0454C115.165 42.6313 115.244 42.2216 115.392 41.835C115.547 41.4069 115.817 40.987 116.202 40.5753C116.587 40.1636 117.131 39.7933 117.835 39.4643L119.259 40.3039C118.391 40.6662 117.827 41.0821 117.564 41.5516C117.302 42.0211 117.172 42.4532 117.172 42.848C117.172 43.3918 117.327 43.8448 117.636 44.2071C117.945 44.5695 118.379 44.8411 118.938 45.022C119.55 45.2111 120.188 45.3027 120.829 45.2935C121.532 45.2935 122.137 45.1905 122.646 44.9847C123.154 44.7789 123.548 44.4997 123.83 44.1471C124.11 43.7841 124.258 43.3345 124.247 42.8747C124.252 42.6015 124.197 42.3305 124.087 42.0808C123.977 41.8311 123.813 41.6088 123.608 41.4296C123.183 41.0437 122.372 40.8174 121.177 40.7507C120.363 40.702 119.552 40.6112 118.746 40.4786C118.196 40.3905 117.654 40.2542 117.126 40.0712C116.749 39.9388 116.39 39.7596 116.058 39.5377C115.785 39.3511 115.527 39.1448 115.285 38.9201V38.352L117.665 35.9832L119.454 36.6254L117.002 38.8488L117.321 37.9818C117.501 38.1152 117.673 38.2388 117.837 38.3526C118.041 38.4865 118.265 38.5864 118.5 38.6487C118.883 38.7519 119.272 38.8263 119.666 38.8715C120.165 38.9377 120.824 39.0044 121.643 39.0715C122.772 39.1542 123.677 39.3518 124.356 39.6644C125.035 39.9769 125.526 40.3968 125.829 40.9241C126.132 41.4509 126.284 42.0767 126.284 42.8013C126.282 43.5136 126.082 44.2111 125.706 44.8146C125.322 45.4482 124.728 45.971 123.926 46.3831C123.124 46.7953 122.092 47.0009 120.831 47ZM120.806 37.3663C119.775 37.3663 118.895 37.1687 118.166 36.7735C117.438 36.3782 116.886 35.8472 116.509 35.1803C116.128 34.4983 115.934 33.7271 115.944 32.9449C115.928 32.163 116.129 31.3919 116.523 30.7179C116.918 30.0439 117.491 29.4936 118.178 29.1284C118.899 28.7252 119.775 28.5236 120.806 28.5236C121.838 28.5236 122.713 28.7252 123.433 29.1284C124.153 29.5325 124.701 30.0636 125.078 30.7216C125.459 31.3992 125.654 32.1666 125.643 32.9449C125.653 33.727 125.458 34.498 125.078 35.1803C124.691 35.8575 124.12 36.41 123.432 36.7735C122.712 37.1691 121.837 37.3668 120.806 37.3663ZM120.806 35.6618C121.69 35.6618 122.386 35.4313 122.893 34.9702C123.4 34.5092 123.654 33.8337 123.654 32.9436C123.654 32.0709 123.4 31.404 122.893 30.943C122.386 30.482 121.69 30.2514 120.806 30.2514C119.938 30.2514 119.238 30.482 118.707 30.943C118.175 31.404 117.91 32.0709 117.911 32.9436C117.911 33.8328 118.173 34.5079 118.697 34.9689C119.22 35.4299 119.924 35.6609 120.806 35.6618ZM122.819 30.5735L122.205 28.8197H127.263V30.3761L122.819 30.5735Z" fill="#07331E"/>
<path d="M134.311 41.5656C133.294 41.5656 132.402 41.3927 131.634 41.0468C130.866 40.7009 130.256 40.2192 129.805 39.6017C129.354 38.9842 129.08 38.2555 128.982 37.4157H131.094C131.176 37.8446 131.352 38.2497 131.609 38.6014C131.888 38.9782 132.255 39.2797 132.677 39.479C133.127 39.7013 133.68 39.8124 134.335 39.8124C134.909 39.8124 135.384 39.7259 135.758 39.553C136.103 39.4069 136.398 39.1623 136.606 38.8495C136.791 38.5626 136.89 38.2275 136.889 37.8852C136.889 37.3748 136.77 36.9878 136.533 36.7241C136.295 36.4605 135.948 36.2506 135.489 36.0946C134.944 35.9166 134.385 35.7804 133.819 35.6871C133.28 35.5882 132.747 35.4561 132.223 35.2917C131.728 35.1407 131.257 34.9203 130.824 34.6368C130.43 34.3812 130.098 34.0393 129.854 33.6365C129.617 33.2413 129.498 32.7556 129.498 32.1794C129.487 31.5077 129.68 30.8486 130.05 30.2895C130.419 29.7382 130.938 29.306 131.609 28.993C132.28 28.6801 133.066 28.5245 133.967 28.5262C135.292 28.5262 136.365 28.8472 137.183 29.4892C138.001 30.1312 138.484 31.0604 138.632 32.2767H136.594C136.512 31.6512 136.247 31.1622 135.799 30.8096C135.351 30.4571 134.732 30.2792 133.943 30.2761C133.173 30.2761 132.588 30.4317 132.187 30.7429C131.996 30.8847 131.841 31.0711 131.736 31.2862C131.631 31.5012 131.579 31.7385 131.585 31.978C131.583 32.3014 131.702 32.614 131.917 32.8543C132.138 33.1103 132.469 33.3286 132.911 33.5091C133.427 33.7114 133.961 33.8604 134.507 33.9539C135.267 34.0865 136.015 34.2848 136.742 34.5468C137.412 34.7935 137.957 35.1599 138.374 35.6458C138.792 36.1317 139 36.8193 139 37.7084C139 38.4825 138.808 39.1575 138.423 39.7337C138.039 40.3099 137.495 40.7587 136.791 41.0802C136.087 41.4038 135.26 41.5656 134.311 41.5656Z" fill="#07331E"/>
<path d="M69.6495 5.78114C69.0211 5.78114 68.4996 5.57263 68.085 5.15561C67.6705 4.73859 67.4635 4.2142 67.4639 3.58245C67.4639 2.95114 67.671 2.43987 68.085 2.04864C68.4991 1.65741 69.0206 1.46157 69.6495 1.46112C70.2206 1.44838 70.7744 1.65816 71.1954 2.04664C71.6223 2.43876 71.8359 2.95003 71.8364 3.58045C71.8368 4.21087 71.6232 4.73592 71.1954 5.15561C70.9925 5.3587 70.7511 5.51872 70.4855 5.62617C70.22 5.73363 69.9357 5.78632 69.6495 5.78114Z" fill="#07331E"/>
<path d="M22.4776 45.2248C34.8916 45.2248 44.9552 35.1009 44.9552 22.6124C44.9552 10.1239 34.8916 0 22.4776 0C10.0636 0 0 10.1239 0 22.6124C0 35.1009 10.0636 45.2248 22.4776 45.2248Z" fill="#167A4E"/>
<path d="M23.5952 19.4674C20.6162 22.1896 19.1578 25.8247 17.712 29.4472C16.2443 33.119 16.1747 37.0436 15.9527 41.1268C15.2599 40.5233 15.1015 39.9205 15.1433 39.2929C15.2613 37.5064 14.5878 36.0426 13.61 34.5868C9.85201 28.9924 10.4214 22.7164 15.006 17.7602C17.6868 14.8626 20.8813 12.6406 24.1958 10.5726C25.3718 9.83907 26.5988 9.1862 27.745 8.40996C28.5325 7.87646 28.8421 8.15321 29.096 8.92212C29.8767 11.3138 30.5081 13.7522 30.9866 16.2231C31.6309 19.4907 31.8788 22.7878 31.1158 26.0828C30.2494 29.822 28.0453 32.6355 25.0317 34.8702C24.2197 35.4704 23.3858 36.0519 22.5253 36.5807C20.2396 37.9852 19.3951 40.0045 19.8326 42.634C19.8724 42.8707 20.3318 43.3369 19.7 43.4302C19.2155 43.5016 18.829 43.2702 18.772 42.692C18.6951 41.9064 18.583 41.1235 18.5241 40.3359C18.0786 34.4007 19.3905 28.8337 21.9996 23.5307C22.6393 22.2323 23.2452 20.9105 23.5952 19.4674Z" fill="white"/>
</svg>
