<svg width="94" height="123" viewBox="0 0 94 123" fill="none" xmlns="http://www.w3.org/2000/svg">
<g clip-path="url(#clip0_180_896)">
<path d="M7.2002 91.5502L47.7002 111.65L86.7002 91.5502V10.9502H7.2002V91.5502Z" fill="white"/>
<path d="M86.4999 12.25L7.3999 91.95L48.3999 112.25L86.4999 92.75V12.25Z" fill="#F2F3F2"/>
<path d="M5.6001 38.1501V92.2501L7.0001 92.9501L46.5001 113.05L47.7001 113.65L48.9001 113.05L87.0001 92.9501L88.4001 92.2501V9.3501H5.6001V38.1501ZM8.2001 90.7501V11.9501H85.8001V90.7501L47.7001 110.85L8.2001 90.7501Z" fill="#DCDEDC"/>
<path d="M46.9999 13.2501C47.3999 13.2501 47.7999 13.2501 48.1999 13.3501L46.9999 15.6501C45.1999 15.5501 43.5999 16.9501 43.4999 18.7501C43.3999 20.5501 44.7999 22.1501 46.5999 22.2501H46.9999C47.7999 22.2501 48.5999 21.9501 49.1999 21.4501L50.4999 23.6501C49.4999 24.3501 48.2999 24.7501 46.9999 24.7501C43.7999 24.8501 41.0999 22.4501 40.9999 19.2501C40.8999 16.0501 43.2999 13.3501 46.4999 13.2501H46.9999ZM51.0999 18.1501L52.5999 20.6501L51.0999 23.0501L49.6999 20.6501H46.7999L48.2999 18.1501H51.0999ZM48.6999 17.2501C48.6999 16.8501 48.7999 16.4501 48.9999 16.1501C49.2999 15.8501 49.5999 15.5501 49.8999 15.3501L50.0999 15.2501C50.4999 15.0501 50.5999 14.9501 50.5999 14.7501C50.5999 14.5501 50.2999 14.3501 50.0999 14.3501C49.6999 14.3501 49.2999 14.5501 49.1999 14.9501L48.6999 14.4501C48.7999 14.2501 48.9999 14.0501 49.1999 13.8501C49.4999 13.6501 49.7999 13.6501 50.0999 13.6501C50.3999 13.6501 50.6999 13.7501 50.9999 13.9501C51.1999 14.1501 51.3999 14.4501 51.3999 14.7501C51.3999 15.2501 50.9999 15.7501 50.4999 15.8501L50.1999 16.0501C49.8999 16.2501 49.6999 16.3501 49.5999 16.6501H51.3999V17.3501L48.6999 17.2501ZM46.9999 29.7501L56.4999 24.3501V9.3501H37.3999V24.2501L46.9999 29.7501Z" fill="#FF492C"/>
<path d="M23.4002 49.75V40.95C23.4002 40.85 23.5002 40.75 23.6002 40.75H25.9002C26.0002 40.75 26.1002 40.85 26.1002 40.95V49.75C26.0002 50.95 27.0002 51.95 28.2002 52.05C28.3002 52.05 28.3002 52.05 28.4002 52.05C29.6002 52.15 30.6002 51.25 30.7002 50.05C30.7002 49.95 30.7002 49.85 30.7002 49.75V40.95C30.7002 40.85 30.8002 40.75 30.9002 40.75H33.2002C33.3002 40.75 33.4002 40.85 33.4002 40.95V49.75C33.4002 52.55 31.4002 54.35 28.4002 54.35C25.4002 54.35 23.4002 52.45 23.4002 49.75ZM35.1002 51.45V51.25C35.1002 51.15 35.2002 51.05 35.3002 51.05H37.4002C37.5002 51.05 37.6002 51.15 37.6002 51.25C37.6002 51.85 38.3002 52.25 39.3002 52.25C40.2002 52.25 40.8002 51.85 40.8002 51.35C40.8002 50.55 39.3002 50.55 37.9002 50.05C36.6002 49.65 35.2002 48.95 35.2002 47.25C35.2002 45.35 36.8002 44.15 39.3002 44.15C41.8002 44.15 43.4002 45.45 43.4002 47.25C43.4002 47.35 43.3002 47.45 43.2002 47.45H41.1002C41.0002 47.45 40.9002 47.35 40.9002 47.25C40.9002 46.65 40.3002 46.25 39.3002 46.25C38.5002 46.25 37.9002 46.55 37.9002 47.15C37.9002 47.95 39.2002 47.95 40.7002 48.45C42.2002 48.85 43.7002 49.55 43.7002 51.35C43.7002 53.25 42.0002 54.35 39.5002 54.35C36.8002 54.35 35.1002 53.15 35.1002 51.45ZM54.0002 49.85C54.0002 50.05 53.9002 50.05 53.7002 50.05H47.7002C47.6002 50.05 47.6002 50.05 47.6002 50.15C47.6002 50.45 47.7002 50.65 47.8002 50.95C48.1002 51.75 49.0002 52.15 49.8002 52.05C50.6002 52.05 51.3002 51.65 51.8002 51.05C51.9002 50.95 52.0002 50.85 52.1002 51.05L53.5002 52.45C53.6002 52.55 53.6002 52.65 53.5002 52.75C52.5002 53.85 51.1002 54.55 49.6002 54.45C47.7002 54.55 45.9002 53.35 45.2002 51.55C44.9002 50.75 44.8002 49.95 44.8002 49.15C44.8002 48.45 44.9002 47.75 45.1002 47.15C45.7002 45.35 47.4002 44.05 49.3002 44.15C51.7002 44.05 53.7002 45.85 53.8002 48.25C54.0002 48.75 54.0002 49.35 54.0002 49.85ZM47.8002 47.55C47.7002 47.75 47.7002 47.95 47.7002 48.15C47.7002 48.25 47.7002 48.25 47.8002 48.25H51.1002C51.2002 48.25 51.2002 48.25 51.2002 48.15C51.2002 47.95 51.1002 47.85 51.1002 47.65C50.9002 46.85 50.2002 46.35 49.4002 46.45C48.7002 46.45 48.0002 46.85 47.8002 47.55ZM61.8002 44.45C61.9002 44.55 61.9002 44.65 61.9002 44.75L61.5002 46.95C61.5002 47.15 61.4002 47.15 61.2002 47.05C60.8002 46.95 60.5002 46.95 60.1002 46.95C59.2002 46.95 58.4002 47.75 58.4002 48.65V53.95C58.4002 54.05 58.3002 54.15 58.2002 54.15H55.9002C55.8002 54.15 55.7002 54.05 55.7002 53.95V44.55C55.7002 44.45 55.8002 44.35 55.9002 44.35H58.2002C58.3002 44.35 58.4002 44.45 58.4002 44.55V45.25C58.4002 45.35 58.4002 45.35 58.5002 45.35C59.0002 44.65 59.7002 44.15 60.6002 44.15C61.0002 44.15 61.4002 44.25 61.8002 44.45ZM62.6002 51.45V51.25C62.6002 51.15 62.7002 51.05 62.8002 51.05H64.9002C65.0002 51.05 65.1002 51.15 65.1002 51.25C65.1002 51.85 65.8002 52.25 66.8002 52.25C67.7002 52.25 68.3002 51.85 68.3002 51.35C68.3002 50.55 66.8002 50.55 65.4002 50.05C64.1002 49.65 62.7002 48.95 62.7002 47.25C62.7002 45.35 64.3002 44.15 66.8002 44.15C69.3002 44.15 70.9002 45.45 70.9002 47.25C70.9002 47.35 70.8002 47.45 70.7002 47.45H68.6002C68.5002 47.45 68.4002 47.35 68.4002 47.25C68.4002 46.65 67.8002 46.25 66.8002 46.25C66.0002 46.25 65.4002 46.55 65.4002 47.15C65.4002 47.95 66.7002 47.95 68.2002 48.45C69.7002 48.85 71.2002 49.55 71.2002 51.35C71.2002 53.25 69.5002 54.35 67.0002 54.35C64.3002 54.35 62.6002 53.15 62.6002 51.45ZM14.7002 70.15V57.15C14.7002 57.05 14.8002 56.95 14.9002 56.95H17.2002C17.3002 56.95 17.4002 57.05 17.4002 57.15V67.95C17.4002 68.05 17.4002 68.05 17.5002 68.05H23.8002C23.9002 68.05 24.0002 68.15 24.0002 68.25V70.15C24.0002 70.25 23.9002 70.35 23.8002 70.35H14.9002C14.8002 70.35 14.7002 70.25 14.7002 70.15ZM25.6002 67.35C25.4002 66.75 25.3002 66.05 25.3002 65.35C25.3002 64.65 25.4002 63.95 25.6002 63.35C26.2002 61.45 28.0002 60.25 30.0002 60.35C31.9002 60.25 33.7002 61.55 34.3002 63.35C34.5002 63.95 34.6002 64.65 34.6002 65.35C34.6002 65.95 34.5002 66.65 34.3002 67.25C33.8002 69.15 32.0002 70.55 30.0002 70.45C28.0002 70.65 26.1002 69.35 25.6002 67.35ZM31.7002 66.75C32.0002 65.85 32.0002 64.95 31.7002 64.05C31.5002 63.25 30.8002 62.65 30.0002 62.65C29.2002 62.65 28.4002 63.25 28.3002 64.05C28.1002 64.45 28.0002 64.95 28.1002 65.45C28.1002 65.85 28.1002 66.35 28.2002 66.75C28.4002 67.55 29.1002 68.15 30.0002 68.15C30.8002 68.25 31.4002 67.65 31.7002 66.75ZM38.3002 70.15L35.2002 60.65C35.1002 60.45 35.2002 60.35 35.4002 60.35H37.9002C38.0002 60.35 38.1002 60.45 38.2002 60.55L39.8002 66.35C39.8002 66.45 39.9002 66.45 39.9002 66.35L41.5002 60.55C41.5002 60.45 41.6002 60.35 41.8002 60.35H44.3002C44.5002 60.35 44.6002 60.45 44.5002 60.65L41.4002 70.05C41.4002 70.15 41.3002 70.25 41.1002 70.25H38.6002C38.4002 70.35 38.3002 70.35 38.3002 70.15ZM54.1002 66.05C54.1002 66.25 54.0002 66.25 53.8002 66.25H47.8002C47.7002 66.25 47.7002 66.25 47.7002 66.35C47.7002 66.65 47.8002 66.85 47.9002 67.15C48.2002 67.95 49.1002 68.35 49.9002 68.25C50.7002 68.25 51.4002 67.85 51.9002 67.25C52.0002 67.15 52.1002 67.05 52.2002 67.25L53.6002 68.65C53.7002 68.75 53.7002 68.85 53.6002 68.95C52.6002 70.05 51.2002 70.75 49.7002 70.65C47.8002 70.75 46.0002 69.55 45.3002 67.75C45.0002 66.95 44.9002 66.15 44.9002 65.35C44.9002 64.65 45.0002 63.95 45.2002 63.35C45.8002 61.55 47.5002 60.25 49.4002 60.35C51.8002 60.25 53.8002 62.05 53.9002 64.45C54.1002 64.95 54.1002 65.55 54.1002 66.05ZM47.9002 63.75C47.8002 63.95 47.8002 64.15 47.8002 64.35C47.8002 64.45 47.8002 64.45 47.9002 64.45H51.2002C51.3002 64.45 51.3002 64.45 51.3002 64.35C51.3002 64.15 51.2002 64.05 51.2002 63.85C51.0002 63.05 50.3002 62.55 49.5002 62.65C48.8002 62.55 48.1002 63.05 47.9002 63.75ZM59.7002 65.95V57.15C59.7002 57.05 59.8002 56.95 59.9002 56.95H62.2002C62.3002 56.95 62.4002 57.05 62.4002 57.15V65.95C62.3002 67.15 63.3002 68.15 64.5002 68.25C64.6002 68.25 64.6002 68.25 64.7002 68.25C65.9002 68.35 66.9002 67.45 67.0002 66.25C67.0002 66.15 67.0002 66.05 67.0002 65.95V57.15C67.0002 57.05 67.1002 56.95 67.2002 56.95H69.5002C69.6002 56.95 69.7002 57.05 69.7002 57.15V65.95C69.7002 68.75 67.7002 70.55 64.7002 70.55C61.7002 70.55 59.7002 68.65 59.7002 65.95ZM71.4002 67.65V67.45C71.4002 67.35 71.5002 67.25 71.6002 67.25H73.7002C73.8002 67.25 73.9002 67.35 73.9002 67.45C73.9002 68.05 74.6002 68.45 75.6002 68.45C76.5002 68.45 77.1002 68.05 77.1002 67.55C77.1002 66.75 75.6002 66.75 74.2002 66.25C72.9002 65.85 71.5002 65.15 71.5002 63.45C71.5002 61.55 73.1002 60.35 75.6002 60.35C78.1002 60.35 79.7002 61.65 79.7002 63.45C79.7002 63.55 79.6002 63.65 79.5002 63.65H77.4002C77.3002 63.65 77.2002 63.55 77.2002 63.45C77.2002 62.85 76.6002 62.45 75.6002 62.45C74.8002 62.45 74.2002 62.75 74.2002 63.35C74.2002 64.15 75.5002 64.15 77.0002 64.65C78.5002 65.05 80.0002 65.75 80.0002 67.55C80.0002 69.45 78.3002 70.55 75.8002 70.55C73.1002 70.55 71.4002 69.35 71.4002 67.65Z" fill="#252530"/>
<path d="M19.4004 81.8501H39.4004V82.6501H19.4004V81.8501ZM55.2004 81.8501H75.2004V82.6501H55.2004V81.8501Z" fill="#DCDEDC"/>
<path fill-rule="evenodd" clip-rule="evenodd" d="M42.5 80.9501L45.6 80.4501L47.2 77.3501L48.7 80.3501L52 80.9501L49.7 83.2501L50.2 86.5501L47.2 85.1501L44.2 86.5501L44.6 83.2501L42.5 80.9501Z" fill="#DCDEDC"/>
</g>
<defs>
<clipPath id="clip0_180_896">
<rect width="82.8" height="104.3" fill="white" transform="translate(5.6001 9.3501)"/>
</clipPath>
</defs>
</svg>
