<svg width="570" height="568" viewBox="0 0 570 568" fill="none" xmlns="http://www.w3.org/2000/svg">
<g opacity="0.1">
<path d="M0 0H89.6696C137.233 0 182.849 18.8977 216.482 52.5358C250.114 86.1739 269.009 131.797 269.009 179.368V269.053H179.339C131.776 269.053 86.1599 250.155 52.5273 216.517C18.8946 182.879 0 137.256 0 89.6842V0Z" fill="#FFAF32"/>
<path d="M89.6697 568H2.46621e-05V478.316C2.46621e-05 430.744 18.8947 385.121 52.5273 351.483C86.1599 317.845 131.776 298.947 179.339 298.947H269.009V388.632C269.009 436.203 250.114 481.826 216.482 515.464C182.849 549.102 137.233 568 89.6697 568Z" fill="#FFAF32"/>
<path d="M300.991 298.947H390.661C438.224 298.947 483.84 317.845 517.473 351.483C551.105 385.121 570 430.744 570 478.316V568H480.33C432.767 568 387.151 549.102 353.518 515.464C319.886 481.826 300.991 436.203 300.991 388.632V298.947Z" fill="#FFAF32"/>
<path d="M570 0V269.053H447.452V122.568H300.991V0H570Z" fill="#FFAF32"/>
</g>
</svg>
