<svg width="105" height="12" viewBox="0 0 105 12" fill="none" xmlns="http://www.w3.org/2000/svg">
<path d="M1 5C0.447715 5 4.82823e-08 5.44772 0 6C-4.82823e-08 6.55228 0.447715 7 1 7L1 5ZM105 6.00001L95 0.226505L95 11.7735L105 6.00001ZM3.88889 7L4.88889 7L4.88889 5L3.88889 5L3.88889 7ZM9.66667 5L8.66667 5L8.66667 7L9.66667 7L9.66667 5ZM15.4444 7L16.4444 7L16.4444 5L15.4444 5L15.4444 7ZM21.2222 5L20.2222 5L20.2222 7L21.2222 7L21.2222 5ZM27 7L28 7L28 5L27 5L27 7ZM32.7778 5L31.7778 5L31.7778 7L32.7778 7L32.7778 5ZM38.5556 7L39.5556 7L39.5556 5L38.5556 5L38.5556 7ZM44.3333 5L43.3333 5L43.3333 7L44.3333 7L44.3333 5ZM50.1111 7L51.1111 7L51.1111 5L50.1111 5L50.1111 7ZM55.8889 5L54.8889 5L54.8889 7L55.8889 7L55.8889 5ZM61.6667 7.00001L62.6667 7.00001L62.6667 5.00001L61.6667 5.00001L61.6667 7.00001ZM67.4445 5.00001L66.4445 5.00001L66.4445 7.00001L67.4445 7.00001L67.4445 5.00001ZM73.2222 7.00001L74.2222 7.00001L74.2222 5.00001L73.2222 5.00001L73.2222 7.00001ZM79 5.00001L78 5.00001L78 7.00001L79 7.00001L79 5.00001ZM84.7778 7.00001L85.7778 7.00001L85.7778 5.00001L84.7778 5.00001L84.7778 7.00001ZM90.5556 5.00001L89.5556 5.00001L89.5556 7.00001L90.5556 7.00001L90.5556 5.00001ZM96.3333 7.00001L97.3333 7.00001L97.3333 5.00001L96.3333 5.00001L96.3333 7.00001ZM102.111 5.00001L101.111 5.00001L101.111 7.00001L102.111 7.00001L102.111 5.00001ZM1 7L3.88889 7L3.88889 5L1 5L1 7ZM9.66667 7L15.4444 7L15.4444 5L9.66667 5L9.66667 7ZM21.2222 7L27 7L27 5L21.2222 5L21.2222 7ZM32.7778 7L38.5556 7L38.5556 5L32.7778 5L32.7778 7ZM44.3333 7L50.1111 7L50.1111 5L44.3333 5L44.3333 7ZM55.8889 7L61.6667 7.00001L61.6667 5.00001L55.8889 5L55.8889 7ZM67.4445 7.00001L73.2222 7.00001L73.2222 5.00001L67.4445 5.00001L67.4445 7.00001ZM79 7.00001L84.7778 7.00001L84.7778 5.00001L79 5.00001L79 7.00001ZM90.5556 7.00001L96.3333 7.00001L96.3333 5.00001L90.5556 5.00001L90.5556 7.00001Z" fill="#29294E"/>
</svg>
