<svg width="1440" height="354" viewBox="0 0 1440 354" fill="none" xmlns="http://www.w3.org/2000/svg">
<g clip-path="url(#clip0_3_219)">
<path opacity="0.05" d="M-479.172 351.486C-435.422 350.236 -354.589 341.736 -269.172 345.486C-183.755 349.236 -152.505 372.611 -69.1719 369.486C14.1614 366.361 47.4948 328.611 130.828 330.486C214.161 332.361 247.495 377.236 330.828 378.486C414.161 379.736 447.495 339.402 530.828 336.486C614.161 333.569 647.495 365.944 730.828 364.486C814.161 363.027 847.495 328.444 930.828 329.486C1014.16 330.527 1047.49 371.361 1130.83 369.486C1214.16 367.611 1247.49 321.527 1330.83 320.486C1414.16 319.444 1447.49 365.736 1530.83 364.486C1614.16 363.236 1649.58 317.194 1730.83 314.486C1812.08 311.777 1827.08 425.027 1920.83 351.486C2014.58 277.944 2782.91 146.902 2180.83 -38.5143C1578.74 -223.931 -312.922 -434.348 -969.172 -538.514" fill="#177A4E" fill-opacity="0.1"/>
<path opacity="0.29" d="M-479.172 295.486C-435.422 294.236 -354.589 285.736 -269.172 289.486C-183.755 293.236 -152.505 316.611 -69.1719 313.486C14.1614 310.361 47.4948 272.611 130.828 274.486C214.161 276.361 247.495 321.236 330.828 322.486C414.161 323.736 447.495 283.402 530.828 280.486C614.161 277.569 647.495 309.944 730.828 308.486C814.161 307.027 847.495 272.444 930.828 273.486C1014.16 274.527 1047.49 315.361 1130.83 313.486C1214.16 311.611 1247.49 265.527 1330.83 264.486C1414.16 263.444 1447.49 309.736 1530.83 308.486C1614.16 307.236 1649.58 261.194 1730.83 258.486C1812.08 255.777 1827.08 369.027 1920.83 295.486C2014.58 221.944 2782.91 90.9024 2180.83 -94.5143C1578.74 -279.931 -312.922 -490.348 -969.172 -594.514" fill="#177A4E" fill-opacity="0.1"/>
<path opacity="0.53" d="M-479.172 239.486C-435.422 238.236 -354.589 229.736 -269.172 233.486C-183.755 237.236 -152.505 260.611 -69.1719 257.486C14.1614 254.361 47.4948 216.611 130.828 218.486C214.161 220.361 247.495 265.236 330.828 266.486C414.161 267.736 447.495 227.402 530.828 224.486C614.161 221.569 647.495 253.944 730.828 252.486C814.161 251.027 847.495 216.444 930.828 217.486C1014.16 218.527 1047.49 259.361 1130.83 257.486C1214.16 255.611 1247.49 209.527 1330.83 208.486C1414.16 207.444 1447.49 253.736 1530.83 252.486C1614.16 251.236 1649.58 205.194 1730.83 202.486C1812.08 199.777 1827.08 313.027 1920.83 239.486C2014.58 165.944 2782.91 34.9024 2180.83 -150.514C1578.74 -335.931 -312.922 -546.348 -969.172 -650.514" fill="#177A4E" fill-opacity="0.1"/>
<path opacity="0.76" d="M-479.172 183.486C-435.422 182.236 -354.589 173.736 -269.172 177.486C-183.755 181.236 -152.505 204.611 -69.1719 201.486C14.1614 198.361 47.4948 160.611 130.828 162.486C214.161 164.361 247.495 209.236 330.828 210.486C414.161 211.736 447.495 171.402 530.828 168.486C614.161 165.569 647.495 197.944 730.828 196.486C814.161 195.027 847.495 160.444 930.828 161.486C1014.16 162.527 1047.49 203.361 1130.83 201.486C1214.16 199.611 1247.49 153.527 1330.83 152.486C1414.16 151.444 1447.49 197.736 1530.83 196.486C1614.16 195.236 1649.58 149.194 1730.83 146.486C1812.08 143.777 1827.08 257.027 1920.83 183.486C2014.58 109.944 2782.91 -21.0976 2180.83 -206.514C1578.74 -391.931 -312.922 -602.348 -969.172 -706.514" fill="#177A4E" fill-opacity="0.1"/>
<path d="M-479.172 127.486C-435.422 126.236 -354.589 117.736 -269.172 121.486C-183.755 125.236 -152.505 148.611 -69.1719 145.486C14.1614 142.361 47.4948 104.611 130.828 106.486C214.161 108.361 247.495 153.236 330.828 154.486C414.161 155.736 447.495 115.402 530.828 112.486C614.161 109.569 647.495 141.944 730.828 140.486C814.161 139.027 847.495 104.444 930.828 105.486C1014.16 106.527 1047.49 147.361 1130.83 145.486C1214.16 143.611 1247.49 97.5274 1330.83 96.4857C1414.16 95.444 1447.49 141.736 1530.83 140.486C1614.16 139.236 1649.58 93.194 1730.83 90.4857C1812.08 87.7774 1827.08 201.027 1920.83 127.486C2014.58 53.944 2782.91 -77.0976 2180.83 -262.514C1578.74 -447.931 -312.922 -658.348 -969.172 -762.514" fill="#177A4E" fill-opacity="0.05"/>
</g>
<defs>
<clipPath id="clip0_3_219">
<rect width="1440" height="354" fill="white" transform="matrix(1 0 0 -1 0 354)"/>
</clipPath>
</defs>
</svg>
