<svg width="235" height="361" viewBox="0 0 235 361" fill="none" xmlns="http://www.w3.org/2000/svg">
<g clip-path="url(#clip0_1803_2232)">
<path d="M0 0L56.9481 0C87.1552 0 116.125 12.0107 137.485 33.3898C158.845 54.769 170.844 83.7653 170.844 114V171H113.896C83.689 171 54.7191 158.989 33.3594 137.61C11.9997 116.231 0 87.2347 0 57L0 0Z" fill="#FAF3E7"/>
<path d="M56.9481 361H1.56626e-05L1.56626e-05 304C1.56626e-05 273.765 11.9998 244.769 33.3594 223.39C54.7191 202.011 83.689 190 113.896 190H170.844V247C170.844 277.235 158.845 306.231 137.485 327.61C116.125 348.989 87.1552 361 56.9481 361Z" fill="#FAF3E7"/>
<path d="M191.156 190H248.104C278.311 190 307.281 202.011 328.641 223.39C350 244.769 362 273.765 362 304V361H305.052C274.845 361 245.875 348.989 224.515 327.61C203.155 306.231 191.156 277.235 191.156 247V190Z" fill="#FAF3E7"/>
<path d="M362 0V171H284.171V77.9H191.156V0L362 0Z" fill="#FAF3E7"/>
</g>
<defs>
<clipPath id="clip0_1803_2232">
<rect width="362" height="361" fill="white"/>
</clipPath>
</defs>
</svg>
